<?xml version="1.0" standalone="no"?>
<!DOCTYPE svg PUBLIC "-//W3C//DTD SVG 1.1//EN" "http://www.w3.org/Graphics/SVG/1.1/DTD/svg11.dtd" >
<svg>
<metadata>
Created by FontForge 20090914 at Sun Apr 26 09:05:52 2020
 By www-data
Copyright 2010 The Josefin Sans Project Authors (https://github.com/ThomasJockin/JosefinSansFont-master), with Reserved Font Name "Josefin Sans".
</metadata>
<defs>
<font id="JosefinSans-Bold" horiz-adv-x="0" >
  <font-face 
    font-family="Josefin Sans"
    font-weight="700"
    font-stretch="normal"
    units-per-em="1000"
    panose-1="0 0 0 0 0 0 0 0 0 0"
    ascent="750"
    descent="-250"
    x-height="437"
    cap-height="736"
    bbox="-106 -246.002 1348 1242"
    underline-thickness="50"
    underline-position="-75"
    unicode-range="U+000D-U+FB02"
  />
<missing-glyph horiz-adv-x="300" 
 />
    <glyph glyph-name="f_f" unicode="ff" horiz-adv-x="748" 
d="M114 0v315.001h-74v124h74v152c0 57.333 16.5 104.166 49.5 140.499s80.833 54.5 143.5 54.5c18.667 0 39.5 -2.83301 62.5 -8.5s43.167 -14.834 60.5 -27.501l-59 -101c-6.66699 8.66699 -14.5 14.5 -23.5 17.5s-17.5 4.5 -25.5 4.5c-20 0 -36.333 -6.66699 -49 -20
s-19 -34.666 -19 -63.999v-148h132v-124h-132v-315h-140zM437 0.000976562v315.001h-74v124h74v152c0 57.333 16.5 104.166 49.5 140.499s80.833 54.5 143.5 54.5c18.667 0 39.5 -2.83301 62.5 -8.5s43.167 -14.834 60.5 -27.501l-59 -101
c-6.66699 8.66699 -14.5 14.5 -23.5 17.5s-17.5 4.5 -25.5 4.5c-20 0 -36.333 -6.66699 -49 -20s-19 -34.666 -19 -63.999v-148h132v-124h-132v-315h-140z" />
    <glyph glyph-name="fi" unicode="fi" horiz-adv-x="634" 
d="M114 0v315.001h-74v124h74v152c0 57.333 16.5 104.166 49.5 140.499s80.833 54.5 143.5 54.5c18.667 0 39.5 -2.83301 62.5 -8.5s43.167 -14.834 60.5 -27.501l-59 -101c-6.66699 8.66699 -14.5 14.5 -23.5 17.5s-17.5 4.5 -25.5 4.5c-20 0 -36.333 -6.66699 -49 -20
s-19 -34.666 -19 -63.999v-148h112v-124h-112v-315h-140zM422 437.001h140v-437h-140v437zM419 592.001c0 20.667 8.16699 37.667 24.5 51s33.833 20 52.5 20s35.834 -6.66699 51.501 -20s23.5 -30.333 23.5 -51s-7.83301 -37.5 -23.5 -50.5s-32.834 -19.5 -51.501 -19.5
s-36.167 6.5 -52.5 19.5s-24.5 29.833 -24.5 50.5z" />
    <glyph glyph-name="fl" unicode="fl" horiz-adv-x="634" 
d="M114 0v315.001h-74v124h74v152c0 57.333 16.5 104.166 49.5 140.499s80.833 54.5 143.5 54.5c18.667 0 39.5 -2.83301 62.5 -8.5s43.167 -14.834 60.5 -27.501l-59 -101c-6.66699 8.66699 -14.5 14.5 -23.5 17.5s-17.5 4.5 -25.5 4.5c-20 0 -36.333 -6.66699 -49 -20
s-19 -34.666 -19 -63.999v-148h112v-124h-112v-315h-140zM422 789.001h140v-789h-140v789z" />
    <glyph glyph-name="f_f_i" unicode="ffi" horiz-adv-x="949" 
d="M114 0v315.001h-74v124h74v152c0 57.333 16.5 104.166 49.5 140.499s80.833 54.5 143.5 54.5c18.667 0 39.5 -2.83301 62.5 -8.5s43.167 -14.834 60.5 -27.501l-59 -101c-6.66699 8.66699 -14.5 14.5 -23.5 17.5s-17.5 4.5 -25.5 4.5c-20 0 -36.333 -6.66699 -49 -20
s-19 -34.666 -19 -63.999v-148h132v-124h-132v-315h-140zM437 0.000976562v315.001h-74v124h74v152c0 57.333 16.5 104.166 49.5 140.499s80.833 54.5 143.5 54.5c18.667 0 39.5 -2.83301 62.5 -8.5s43.167 -14.834 60.5 -27.501l-59 -101
c-6.66699 8.66699 -14.5 14.5 -23.5 17.5s-17.5 4.5 -25.5 4.5c-20 0 -36.333 -6.66699 -49 -20s-19 -34.666 -19 -63.999v-148h132v-124h-132v-315h-140zM737 437.002h140v-437h-140v437zM734 592.002c0 20.667 8.16699 37.667 24.5 51s33.833 20 52.5 20
s35.834 -6.66699 51.501 -20s23.5 -30.333 23.5 -51s-7.83301 -37.5 -23.5 -50.5s-32.834 -19.5 -51.501 -19.5s-36.167 6.5 -52.5 19.5s-24.5 29.833 -24.5 50.5z" />
    <glyph glyph-name="f_f_l" unicode="ffl" horiz-adv-x="1032" 
d="M114 0v315.001h-74v124h74v152c0 57.333 16.5 104.166 49.5 140.499s80.833 54.5 143.5 54.5c18.667 0 39.5 -2.83301 62.5 -8.5s43.167 -14.834 60.5 -27.501l-59 -101c-6.66699 8.66699 -14.5 14.5 -23.5 17.5s-17.5 4.5 -25.5 4.5c-20 0 -36.333 -6.66699 -49 -20
s-19 -34.666 -19 -63.999v-148h132v-124h-132v-315h-140zM437 0.000976562v315.001h-74v124h74v152c0 57.333 16.5 104.166 49.5 140.499s80.833 54.5 143.5 54.5c18.667 0 39.5 -2.83301 62.5 -8.5s43.167 -14.834 60.5 -27.501l-59 -101
c-6.66699 8.66699 -14.5 14.5 -23.5 17.5s-17.5 4.5 -25.5 4.5c-20 0 -36.333 -6.66699 -49 -20s-19 -34.666 -19 -63.999v-148h132v-124h-132v-315h-140zM820 789.002h140v-789h-140v789z" />
    <glyph glyph-name=".notdef" horiz-adv-x="300" 
 />
    <glyph glyph-name="NULL" 
 />
    <glyph glyph-name="NULL" 
 />
    <glyph glyph-name="CR" unicode="&#xd;" horiz-adv-x="325" 
 />
    <glyph glyph-name="space" unicode=" " horiz-adv-x="325" 
 />
    <glyph glyph-name="exclam" unicode="!" horiz-adv-x="202" 
d="M36 765h125v-566h-125v566zM102 -14c-24 0 -43.667 6.5 -59 19.5s-23 30.167 -23 51.5c0 20.667 7.83301 38 23.5 52s35.167 21 58.5 21s42.5 -7 57.5 -21s22.5 -31.333 22.5 -52c0 -21.333 -7.33301 -38.5 -22 -51.5s-34 -19.5 -58 -19.5z" />
    <glyph glyph-name="quotedbl" unicode="&#x22;" horiz-adv-x="366" 
d="M186 734l-2 -126l-2 -127h-118v253h122zM322 734l-2 -126l-2 -127h-118v253h122z" />
    <glyph glyph-name="numbersign" unicode="#" horiz-adv-x="582" 
d="M287 656l-11.502 -88.5l-11.5 -88.5h62c3.33301 30 7 59.5 11 88.5s7.66699 58.5 11 88.5h127l-11.5 -88.5l-11.5 -88.5h84c-2 -20 -3.83301 -40.167 -5.5 -60.5s-3.83398 -40.5 -6.50098 -60.5h-85l-4 -32.5l-4 -33.5h85l-8 -61c-2.66699 -20 -5 -40.333 -7 -61h-85
c-2.66699 -28.667 -5.83398 -57 -9.50098 -85s-7.16699 -56.333 -10.5 -85h-126c3.33301 28.667 6.83301 57 10.5 85s6.83398 56.333 9.50098 85h-61c-2.66699 -28.667 -6 -57 -10 -85s-7.33301 -56.333 -10 -85h-127c3.33301 28.667 6.83301 57 10.5 85
s6.83398 56.333 9.50098 85h-79l8 61c2.66699 20 5 40.333 7 61h79l4 33.5l4 32.5h-79c2.66699 20 4.83398 40.167 6.50098 60.5s3.83398 40.5 6.50098 60.5h79l11.5 88.5l11.5 88.5h126zM250.998 358c-0.666992 -10.667 -1.83301 -21.5 -3.5 -32.5
s-3.16699 -22.167 -4.5 -33.5h62l4 33.5c1.33301 11 2.33301 21.833 3 32.5h-61z" />
    <glyph glyph-name="dollar" unicode="$" horiz-adv-x="567" 
d="M232 -68v434l40 47v391h84v-419l-40 -61v-392h-84zM488 558c-28 15.333 -56.5029 28.0039 -85.5029 38.0039s-56.167 15 -81.5 15c-31.333 0 -56 -6.33301 -74 -19s-27 -31.667 -27 -57c0 -17.333 6.83301 -32.833 20.5 -46.5s31.334 -25.834 53.001 -36.501
s44.167 -20.334 67.5 -29.001c21.333 -8 42.5 -17.5 63.5 -28.5s39.833 -24.667 56.5 -41s30 -36.666 40 -60.999s15 -54.166 15 -89.499c0 -37.333 -9.66699 -72 -29 -104s-47.666 -57.833 -84.999 -77.5s-83.333 -29.5 -138 -29.5c-28 0 -56.5 2.83301 -85.5 8.5
s-57.5 14.334 -85.5 26.001s-55 26.5 -81 44.5l64 113c17.333 -12.667 36.166 -23.834 56.499 -33.501s40.833 -17.167 61.5 -22.5s39.667 -8 57 -8s34.833 2.5 52.5 7.5s32.334 13.5 44.001 25.5s17.5 28.667 17.5 50c0 14.667 -4.83301 28 -14.5 40s-22.667 23 -39 33
s-34.166 18.667 -53.499 26c-22.667 8.66699 -46 18.667 -70 30s-46.5 25.166 -67.5 41.499s-38 36.666 -51 60.999s-19.5 54.166 -19.5 89.499c0 42.667 9.5 79.667 28.5 111s45.833 56.166 80.5 74.499s74.667 28.5 120 30.5c59.333 0 107.5 -7 144.5 -21
s70.167 -30.667 99.5 -50z" />
    <glyph glyph-name="percent" unicode="%" horiz-adv-x="810" 
d="M196 294c-36.667 0 -67 8.33301 -91 25s-41.667 39.334 -53 68.001s-17 61 -17 97s5.66699 68.167 17 96.5s29 50.833 53 67.5s54.333 25 91 25s66.834 -8.33301 90.501 -25s41.334 -39.167 53.001 -67.5s17.5 -60.5 17.5 -96.5s-5.83301 -68.333 -17.5 -97
s-29.334 -51.334 -53.001 -68.001s-53.834 -25 -90.501 -25zM157 484c0 -27.333 2.66699 -49.5 8 -66.5s15.666 -25.5 30.999 -25.5s25.5 8.5 30.5 25.5s7.5 39.167 7.5 66.5c0 31.333 -2.5 54.166 -7.5 68.499s-15.167 21.5 -30.5 21.5s-25.666 -7.16699 -30.999 -21.5
s-8 -37.166 -8 -68.499zM614 -28c-36.667 0 -67 8.33301 -91 25s-41.667 39.334 -53 68.001s-17 61 -17 97s5.66699 68.167 17 96.5s29 50.833 53 67.5s54.333 25 91 25s66.834 -8.33301 90.501 -25s41.334 -39.167 53.001 -67.5s17.5 -60.5 17.5 -96.5
s-5.83301 -68.333 -17.5 -97s-29.334 -51.334 -53.001 -68.001s-53.834 -25 -90.501 -25zM575 162c0 -27.333 2.66699 -49.5 8 -66.5s15.666 -25.5 30.999 -25.5s25.5 8.5 30.5 25.5s7.5 39.167 7.5 66.5c0 31.333 -2.5 54.166 -7.5 68.499s-15.167 21.5 -30.5 21.5
s-25.666 -7.16699 -30.999 -21.5s-8 -37.166 -8 -68.499zM728 673l-486 -675l-137 2l484 673h139z" />
    <glyph glyph-name="ampersand" unicode="&#x26;" horiz-adv-x="740" 
d="M715 0l-41.499 0.000976562h-56.5h-49.5h-20.5l-324 436c-6.66699 9.33301 -15 22.166 -25 38.499s-18.667 34.666 -26 54.999s-11 40.833 -11 61.5c0 26.667 6.83301 53.167 20.5 79.5s34.667 48.333 63 66s64.166 26.5 107.499 26.5c47.333 0 89 -9.66699 125 -29
s64.667 -42.666 86 -69.999l-73 -97c-20.667 22.667 -40.5 40.667 -59.5 54s-37.5 20 -55.5 20c-22.667 0 -39 -6.66699 -49 -20s-15 -28 -15 -44c0 -9.33301 2.5 -19.5 7.5 -30.5s10.167 -21 15.5 -30l11 -18.5zM310.001 335.001c-16 0 -30.998 -3.16602 -44.998 -9.49902
s-26.333 -14.833 -37 -25.5s-18.834 -22.667 -24.501 -36s-8.5 -27.333 -8.5 -42c0 -20.667 5.16699 -38.834 15.5 -54.501s24.5 -27.834 42.5 -36.501s37.667 -13 59 -13c22 0 40.167 3.16699 54.5 9.5s26.333 14.833 36 25.5s17.5 22.334 23.5 35.001l93 -77
c-18 -34 -45.5 -63 -82.5 -87s-85.167 -36 -144.5 -36c-46 0 -87.667 9.66699 -125 29s-67 46 -89 80s-33 73 -33 117c0 33.333 7.5 64 22.5 92s35.167 52.333 60.5 73s53.666 37.167 84.999 49.5s63.333 18.833 96 19.5zM528.003 448.002h132l-124 -312l-105 62z" />
    <glyph glyph-name="quotesingle" unicode="'" horiz-adv-x="175" 
d="M152 734l-2 -126l-2 -127h-120v253h124z" />
    <glyph glyph-name="parenleft" unicode="(" horiz-adv-x="408" 
d="M75 296c0 68 8.16699 131.668 24.5 191.001s37.333 112.166 63 158.499s52.5 84.5 80.5 114.5l115 -53c-26 -30 -49.333 -65.167 -70 -105.5s-37 -86 -49 -137s-18 -107.167 -18 -168.5s6 -117.5 18 -168.5s28.333 -96.5 49 -136.5s44 -75 70 -105l-115 -54
c-28 30.667 -54.833 69.167 -80.5 115.5s-46.667 99 -63 158s-24.5 122.5 -24.5 190.5v0z" />
    <glyph glyph-name="parenright" unicode=")" horiz-adv-x="408" 
d="M333 296c0 -68 -8.16699 -131.667 -24.5 -191s-37.166 -112.166 -62.499 -158.499s-52.333 -84.5 -81 -114.5l-115 53c26 30 49.333 65.167 70 105.5s37 86 49 137s18 107.167 18 168.5s-6 117.5 -18 168.5s-28.333 96.667 -49 137s-44 75.166 -70 104.499l115 54
c28.667 -30 55.667 -68.333 81 -115s46.166 -99.5 62.499 -158.5s24.5 -122.5 24.5 -190.5v0z" />
    <glyph glyph-name="asterisk" unicode="*" horiz-adv-x="335" 
d="M128 504l-30.5 -17.5l-30.5 -17.5l-20.5 36.5l-21.5 36.5c10.667 5.33301 21 11 31 17s20.333 11.667 31 17l-30.5 18.5l-30.5 18.5l19.5 34.5l19.5 34.5l31.5 -18.5l31.5 -18.5v75h84c0 -12.667 -0.166992 -25.167 -0.5 -37.5s-0.5 -24.833 -0.5 -37.5l32 18l32 18
l20 -34.5l20 -34.5l-32 -18.5c-10.667 -6.33301 -21.667 -12.5 -33 -18.5v0l31.5 -18l31.5 -18l-20.5 -36.5l-21.5 -36.5c-10.667 6 -21 12.167 -31 18.5s-20.333 12.5 -31 18.5c0 -11.333 -0.166992 -22.833 -0.5 -34.5s-0.5 -23.167 -0.5 -34.5h-80v70z" />
    <glyph glyph-name="plus" unicode="+" horiz-adv-x="554" 
d="M208 419h127v-124h120v-121h-120v-122h-127v122h-120v121h120v124z" />
    <glyph glyph-name="comma" unicode="," horiz-adv-x="205" 
d="M188 88l-44 -105l-44 -105h-112l39.5 105l39.5 105h121z" />
    <glyph glyph-name="hyphen" unicode="-" horiz-adv-x="306" 
d="M54 290h188v-122h-188v122z" />
    <glyph glyph-name="period" unicode="." horiz-adv-x="172" 
d="M15 72c0 20.667 7.5 38 22.5 52s31.5 21 49.5 21c16.667 0 32.5 -7 47.5 -21s22.5 -31.333 22.5 -52c0 -22 -7.5 -39.5 -22.5 -52.5s-30.833 -19.5 -47.5 -19.5c-18 0 -34.5 6.5 -49.5 19.5s-22.5 30.5 -22.5 52.5v0z" />
    <glyph glyph-name="slash" unicode="/" horiz-adv-x="421" 
d="M427 751l-142 -385l-142 -385h-126l142 385l142 385h126z" />
    <glyph glyph-name="zero" unicode="0" horiz-adv-x="628" 
d="M314 -1c-38 0 -73.833 6.66699 -107.5 20s-63.334 33.833 -89.001 61.5s-45.834 62.667 -60.501 105s-22 92.166 -22 149.499c0 64 7 117.5 21 160.5s33.5 77.5 58.5 103.5s54.5 44.5 88.5 55.5s71 16.5 111 16.5c38 0 73.833 -6.66699 107.5 -20
s63.334 -33.833 89.001 -61.5s45.834 -62.667 60.501 -105s22 -92.166 22 -149.499c0 -59.333 -7.33301 -110.333 -22 -153s-35 -77.5 -61 -104.5s-55.667 -46.833 -89 -59.5s-69 -19 -107 -19zM313 138c33.333 0 59.333 8.83008 78 26.4971s31.834 41.834 39.501 72.501
s11.5 64.667 11.5 102c0 36.667 -3.83301 69.334 -11.5 98.001s-20.834 51.5 -39.501 68.5s-44.667 25.5 -78 25.5c-32.667 0 -58.334 -8.66699 -77.001 -26s-31.667 -40.666 -39 -69.999s-11 -62.333 -11 -99s3.66699 -70 11 -100s20.333 -53.833 39 -71.5
s44.334 -26.5 77.001 -26.5z" />
    <glyph glyph-name="one" unicode="1" horiz-adv-x="344" 
d="M50 663h199v-663h-146v523h-53v140z" />
    <glyph glyph-name="two" unicode="2" horiz-adv-x="583" 
d="M54 0l118.998 121.5c38 39 72.167 76.667 102.5 113s54.333 71.5 72 105.5s26.5 67 26.5 99c0 14 -2.5 26.667 -7.5 38s-12 21 -21 29s-19.667 14.167 -32 18.5s-26.166 6.5 -41.499 6.5s-29 -2.16699 -41 -6.5s-22 -10.166 -30 -17.499s-14.167 -15.333 -18.5 -24
s-6.5 -17.667 -6.5 -27c0 -21.333 3.5 -40.166 10.5 -56.499s16.5 -30.833 28.5 -43.5l-89 -81c-19.333 9.33301 -35.833 25 -49.5 47s-24 45.167 -31 69.5s-10.5 44.5 -10.5 60.5c0 36.667 10.167 71.667 30.5 105s50 60.666 89 81.999s86.5 32 142.5 32
c46 0 86 -10.333 120 -31s60.5 -47.834 79.5 -81.501s28.5 -69.5 28.5 -107.5c0 -30 -4.66699 -59 -14 -87s-22.166 -55.5 -38.499 -82.5s-34.833 -53.667 -55.5 -80l-64 -80.5l-66 19h246v-140h-479z" />
    <glyph glyph-name="three" unicode="3" horiz-adv-x="527" 
d="M456 663l-150.003 -287.999l-79 43c6.66699 2.66699 13.834 4.66699 21.501 6s14.834 2 21.501 2c23.333 0.666992 46.666 -2 69.999 -8s44.5 -16.667 63.5 -32s34.333 -36.333 46 -63s17.5 -60.667 17.5 -102c0 -48 -11.167 -89.167 -33.5 -123.5
s-51.5 -60.5 -87.5 -78.5s-75 -27 -117 -27c-32.667 0 -67 6.83301 -103 20.5s-64.667 31.834 -86 54.501l74 120c10 -12.667 25.333 -25 46 -37s42.334 -18 65.001 -18c14.667 0 29 3.66699 43 11s25.667 18.333 35 33s14 32.667 14 54
c0 29.333 -8.16699 52.666 -24.5 69.999s-39.166 26 -68.499 26c-20 0 -35.167 -0.833008 -45.5 -2.5s-20.5 -3.83398 -30.5 -6.50098l-3 4l117 219l42 -17h-209v140h361z" />
    <glyph glyph-name="four" unicode="4" horiz-adv-x="553" 
d="M10 145v1l423 525h1v-416h79v-110h-79v-145h-146v145h-278zM295 352l-77 -103l-14 6h84v104z" />
    <glyph glyph-name="five" unicode="5" horiz-adv-x="518" 
d="M242 -8c-39.333 0 -77.665 7.33398 -114.998 22.001s-66.333 32.334 -87 53.001l75 116c12 -14.667 29.167 -26.834 51.5 -36.501s43.833 -14.5 64.5 -14.5c15.333 0 29.666 3.33301 42.999 10s24 16.667 32 30s12 29.666 12 48.999c0 21.333 -4.16699 40 -12.5 56
s-20.333 28.5 -36 37.5s-34.167 13.5 -55.5 13.5c-20.667 0 -40.334 -2.83301 -59.001 -8.5s-40.667 -15.167 -66 -28.5h-1v372h331v-140h-206v-107l-17 30c9.33301 1.33301 18.333 2.33301 27 3s17.334 1 26.001 1c46.667 0 86.167 -10.333 118.5 -31
s57.166 -48 74.499 -82s26 -71 26 -111c0 -44 -10 -83.667 -30 -119s-47.167 -63.333 -81.5 -84s-72.5 -31 -114.5 -31z" />
    <glyph glyph-name="six" unicode="6" horiz-adv-x="561" 
d="M286 -8c-48 0 -91.333 11.333 -130 34s-69.334 56 -92.001 100s-34 97.667 -34 161c0 39.333 7.5 77.5 22.5 114.5s35.667 72.333 62 106s56.833 65.167 91.5 94.5s71.667 55.666 111 78.999l97 -105c-53.333 -20.667 -97 -47.167 -131 -79.5s-59 -65.833 -75 -100.5
s-24 -66.667 -24 -96l-36 4c18 42 41.167 74.667 69.5 98s67.833 35 118.5 35c32 0 63 -9 93 -27s54.5 -43 73.5 -75s28.5 -69.333 28.5 -112c0 -49.333 -11.833 -91.166 -35.5 -125.499s-54.167 -60.5 -91.5 -78.5s-76.666 -27 -117.999 -27zM280 122
c19.333 0 36.5 3.83203 51.5 11.499s26.833 19 35.5 34s13 33.167 13 54.5c0 20.667 -4.5 37.834 -13.5 51.501s-21 24 -36 31s-31.833 10.5 -50.5 10.5s-35.5 -3.5 -50.5 -10.5s-27 -16.333 -36 -28s-13.5 -24.167 -13.5 -37.5v-24c0 -16 4.33301 -31 13 -45
s20.667 -25.5 36 -34.5s32.333 -13.5 51 -13.5z" />
    <glyph glyph-name="seven" unicode="7" horiz-adv-x="503" 
d="M488 663l-247 -663h-162l205 540l47 -17h-291v140h448z" />
    <glyph glyph-name="eight" unicode="8" horiz-adv-x="532" 
d="M15 215c0 34.667 6.33398 64.001 19.001 88.001s28.167 43.833 46.5 59.5s35.166 28.167 50.499 37.5c-14.667 15.333 -27.167 31.166 -37.5 47.499s-15.5 39.5 -15.5 69.5s8.5 56.667 25.5 80s39.833 41.5 68.5 54.5s60.334 19.5 95.001 19.5s66.5 -6.5 95.5 -19.5
s52.333 -30.5 70 -52.5s26.5 -47 26.5 -75c0 -33.333 -5.5 -58.333 -16.5 -75s-24.5 -33 -40.5 -49c16 -10 32.833 -23 50.5 -39s32.834 -35.833 45.501 -59.5s19 -52.5 19 -86.5c0 -38.667 -11 -75 -33 -109s-51.833 -61.5 -89.5 -82.5s-80.834 -31.5 -129.501 -31.5
s-91.834 10.5 -129.501 31.5s-67.167 48.5 -88.5 82.5s-32 70.333 -32 109v0zM164.001 221.001c0 -19.333 4.66699 -37.168 14 -53.501s21.666 -29.333 36.999 -39s32.333 -14.5 51 -14.5c19.333 0 37 4.83301 53 14.5s28.833 22.667 38.5 39s14.5 34.166 14.5 53.499
s-4.5 36.833 -13.5 52.5s-21 28.5 -36 38.5s-31.833 15.333 -50.5 16s-36.167 -3.66602 -52.5 -12.999s-29.666 -22.166 -39.999 -38.499s-15.5 -34.833 -15.5 -55.5v0zM219.001 498.999c0 -13.333 5.50098 -25 16.501 -35s22.5 -15 34.5 -15s23.333 5 34 15
s16 21.667 16 35s-5.16699 25.166 -15.5 35.499s-21.833 15.5 -34.5 15.5s-24.334 -5.16699 -35.001 -15.5s-16 -22.166 -16 -35.499v0z" />
    <glyph glyph-name="nine" unicode="9" horiz-adv-x="546" 
d="M225 207c-32 0 -62.832 9.00488 -92.499 27.0049s-54.167 43.167 -73.5 75.5s-29 69.5 -29 111.5c0 53.333 11.833 98.666 35.5 135.999s54.167 65.666 91.5 84.999s76.666 29 117.999 29c48.667 0 92.167 -10.833 130.5 -32.5s68.833 -51.334 91.5 -89.001
s34 -80.167 34 -127.5c0 -54.667 -9.5 -103.834 -28.5 -147.501s-44.333 -82.834 -76 -117.501s-66.834 -66.167 -105.501 -94.5s-77.667 -54.833 -117 -79.5l-97 105c53.333 22 100.333 47.167 141 75.5s72.334 58 95.001 89s34 61.5 34 91.5l36 -4
c-18 -42 -41 -74.667 -69 -98s-67.667 -35 -119 -35zM281.001 329.005c28 0 51.667 9.00293 71 27.0029s29 38.333 29 61v23c0 17.333 -4.33301 33.666 -13 48.999s-20.5 27.833 -35.5 37.5s-32.167 14.5 -51.5 14.5c-18.667 0 -35.667 -4.16699 -51 -12.5
s-27.333 -20.5 -36 -36.5s-13 -35.667 -13 -59c0 -22.667 4.5 -41.834 13.5 -57.501s21 -27.334 36 -35.001s31.833 -11.5 50.5 -11.5z" />
    <glyph glyph-name="colon" unicode=":" horiz-adv-x="179" 
d="M15 357c0 20.667 7.5 38 22.5 52s31.5 21 49.5 21c16.667 0 32.5 -7 47.5 -21s22.5 -31.333 22.5 -52c0 -22 -7.5 -39.5 -22.5 -52.5s-30.833 -19.5 -47.5 -19.5c-18 0 -34.5 6.5 -49.5 19.5s-22.5 30.5 -22.5 52.5v0zM15 72c0 20.667 7.5 38 22.5 52s31.5 21 49.5 21
c16.667 0 32.5 -7 47.5 -21s22.5 -31.333 22.5 -52c0 -22 -7.5 -39.5 -22.5 -52.5s-30.833 -19.5 -47.5 -19.5c-18 0 -34.5 6.5 -49.5 19.5s-22.5 30.5 -22.5 52.5v0z" />
    <glyph glyph-name="semicolon" unicode=";" horiz-adv-x="205" 
d="M52 327c0 20.667 7.5 38 22.5 52s31.167 21 48.5 21s33.333 -7 48 -21s22 -31.333 22 -52c0 -22 -7.33301 -39.5 -22 -52.5s-30.667 -19.5 -48 -19.5s-33.5 6.5 -48.5 19.5s-22.5 30.5 -22.5 52.5v0zM174 88l-44 -105l-44 -105h-112l39.5 105l39.5 105h121z" />
    <glyph glyph-name="less" unicode="&#x3c;" horiz-adv-x="555" 
d="M475 347l-177 -105l177 -105v-151l-445 256l445 257v-152z" />
    <glyph glyph-name="equal" unicode="=" horiz-adv-x="722" 
d="M102 412h516v-122h-516v122zM102 214h516v-122h-516v122z" />
    <glyph glyph-name="greater" unicode="&#x3e;" horiz-adv-x="555" 
d="M80 138l177 105l-177 105v151l445 -256l-445 -257v0v152z" />
    <glyph glyph-name="question" unicode="?" horiz-adv-x="464" 
d="M142 197l-0.00292969 53.001c0 33.333 4.16699 61.166 12.5 83.499s19 41.5 32 57.5s26.167 30.333 39.5 43c18 16.667 34 33.167 48 49.5s21 37.833 21 64.5c0 14.667 -3.66699 27 -11 37s-16.166 17.833 -26.499 23.5s-20.5 8.5 -30.5 8.5
c-19.333 0 -35.5 -4.5 -48.5 -13.5s-23.667 -20.5 -32 -34.5s-15.5 -28.667 -21.5 -44l-115 54c4 12 11 27.333 21 46s24.167 37.334 42.5 56.001s41.333 34.334 69 47.001s60.834 19 99.501 19c38 0 72.167 -6.5 102.5 -19.5s54.5 -33 72.5 -60s27 -62.5 27 -106.5
c0 -36.667 -5 -66.334 -15 -89.001s-22.333 -41.834 -37 -57.501l-44 -46.5c-11.333 -11.333 -22.166 -23.833 -32.499 -37.5s-18.5 -29.5 -24.5 -47.5s-9 -39.667 -9 -65v-21h-140zM211.997 -13.999c-24 0 -43.667 6.5 -59 19.5s-23 30.167 -23 51.5
c0 20.667 7.83301 38 23.5 52s35.167 21 58.5 21s42.5 -7 57.5 -21s22.5 -31.333 22.5 -52c0 -21.333 -7.33301 -38.5 -22 -51.5s-34 -19.5 -58 -19.5z" />
    <glyph glyph-name="at" unicode="@" horiz-adv-x="1061" 
d="M460 -226c-54.667 0 -107.33 8 -157.997 24s-95.834 40.5 -135.501 73.5s-71 75 -94 126s-34.5 111.167 -34.5 180.5c0 44.667 6.66699 90.5 20 137.5s34.333 92.167 63 135.5s65.667 82.166 111 116.499s99.666 61.666 162.999 81.999s136.666 30.5 219.999 30.5
c66.667 0 125.334 -9.5 176.001 -28.5s93.167 -45.333 127.5 -79s60.333 -72.667 78 -117s26.5 -92.166 26.5 -143.499c0 -43.333 -6.5 -84.166 -19.5 -122.499s-31.333 -72.333 -55 -102s-52 -53 -85 -70s-69.833 -25.5 -110.5 -25.5c-28.667 0 -54.167 7 -76.5 21
s-39 33 -50 57s-14.167 51.333 -9.5 82l24 -62c-10 -14 -25 -28.833 -45 -44.5s-42.833 -29.167 -68.5 -40.5s-52.167 -17 -79.5 -17c-36.667 0 -69.834 7.83301 -99.501 23.5s-53 38.667 -70 69s-25.5 67.166 -25.5 110.499c0 50.667 10.667 96.167 32 136.5
s51 72.333 89 96s82.333 35.5 133 35.5c29.333 0 52.833 -3.33301 70.5 -10s32 -15.167 43 -25.5s20.5 -21.5 28.5 -33.5l16 47h134l-37 -265c-1.33301 -11.333 -1.33301 -21 0 -29s4.33301 -13.833 9 -17.5s10.667 -5.5 18 -5.5c12 0 24.167 4.5 36.5 13.5
s23.666 22 33.999 39s18.666 37.333 24.999 61s9.5 49.834 9.5 78.501c0 46.667 -10.667 89.5 -32 128.5s-54 70.5 -98 94.5s-100.333 36 -169 36c-71.333 0 -132.166 -9.66699 -182.499 -29s-91.666 -44.5 -123.999 -75.5s-57.5 -64.167 -75.5 -99.5
s-30.667 -69.333 -38 -102s-11 -60.334 -11 -83.001c0 -54 8.5 -100 25.5 -138s40.167 -68.833 69.5 -92.5s63.166 -41.167 101.499 -52.5s78.5 -17 120.5 -17c38 0 75.667 5.83301 113 17.5s72.333 27.834 105 48.501l56 -79c-26.667 -22 -57.167 -40 -91.5 -54
s-69.166 -24.333 -104.499 -31s-68.333 -10 -99 -10zM504.004 102c18 0 33.667 2.49805 47 7.49805s25.333 12.333 36 22s20.667 21.834 30 36.501l15 107c-3.33301 14.667 -9.66602 27.167 -18.999 37.5s-20.833 18.333 -34.5 24s-29.5 8.5 -47.5 8.5
c-24.667 0 -46.834 -6.5 -66.501 -19.5s-35 -29.667 -46 -50s-16.5 -42.166 -16.5 -65.499c0 -20 4.33301 -38.167 13 -54.5s20.667 -29.333 36 -39s33 -14.5 53 -14.5z" />
    <glyph glyph-name="A" unicode="A" horiz-adv-x="696" 
d="M12 0l332 765h8l332 -765h-168l-212 538l105 72l-254 -610h-143zM239 266h221l51 -122h-317z" />
    <glyph glyph-name="B" unicode="B" horiz-adv-x="647" 
d="M311 736c76.667 0 137.665 -15.501 182.998 -46.501s68 -77.167 68 -138.5c0 -45.333 -11.167 -83.166 -33.5 -113.499s-52.666 -53 -90.999 -68s-82.166 -22.5 -131.499 -22.5l-23 78c60.667 0 114.5 -8.33301 161.5 -25s84.167 -40.5 111.5 -71.5s41 -68.167 41 -111.5
c0 -40 -7.16699 -73.833 -21.5 -101.5s-33.666 -50 -57.999 -67s-51.833 -29.333 -82.5 -37s-62.334 -11.5 -95.001 -11.5h-245v736h216zM327.998 434.999c28.667 0 49.833 8.66699 63.5 26s20.5 37 20.5 59c0 25.333 -8.5 44.333 -25.5 57s-39.833 19 -68.5 19h-78v-161h88
zM332.997 134.999c21.333 0 40.667 2.83301 58 8.5s31 14.667 41 27s15 27.833 15 46.5c0 21.333 -6 37.5 -18 48.5s-27.5 18.667 -46.5 23s-38.833 6.5 -59.5 6.5h-83v-160h93z" />
    <glyph glyph-name="C" unicode="C" horiz-adv-x="697" 
d="M647 61c-8 -6.66699 -22.8281 -15.6719 -44.4951 -27.0049s-48.167 -21.333 -79.5 -30s-66 -12.667 -104 -12c-58 1.33301 -109.833 11.833 -155.5 31.5s-84.334 46.5 -116.001 80.5s-55.834 73 -72.501 117s-25 91 -25 141c0 56 8.5 107.333 25.5 154s41.333 87 73 121
s69.5 60.333 113.5 79s92.667 28 146 28c49.333 0 93 -6.66699 131 -20s69 -27.666 93 -42.999l-57 -137c-16.667 12.667 -38.834 25.834 -66.501 39.501s-59.5 20.5 -95.5 20.5c-28 0 -54.833 -5.83301 -80.5 -17.5s-48.334 -28.167 -68.001 -49.5
s-35.167 -46.166 -46.5 -74.499s-17 -59.166 -17 -92.499c0 -35.333 5.16699 -67.666 15.5 -96.999s25.166 -54.5 44.499 -75.5s42.5 -37.167 69.5 -48.5s57.5 -17 91.5 -17c39.333 0 73 6.33301 101 19s49.333 26 64 40z" />
    <glyph glyph-name="D" unicode="D" horiz-adv-x="771" 
d="M95 0l-0.000976562 736.001h220c74 0 137 -11 189 -33s93.833 -51.333 125.5 -88s54.834 -77.667 69.501 -123s22 -91 22 -137c0 -54.667 -9.83301 -103.834 -29.5 -147.501s-46.5 -81 -80.5 -112s-73.333 -54.667 -118 -71s-92 -24.5 -142 -24.5h-256zM239.999 140.001
l85.999 -0.000976562c36.667 0 70 4.83301 100 14.5s55.833 23.834 77.5 42.501s38.334 42.167 50.001 70.5s17.5 60.833 17.5 97.5c0 48 -7.83301 87.167 -23.5 117.5s-35 53.833 -58 70.5s-46.5 28.167 -70.5 34.5s-44.333 9.5 -61 9.5h-118v-457z" />
    <glyph glyph-name="E" unicode="E" horiz-adv-x="666" 
d="M95 736h502v-140h-357v-157h316v-140h-316v-159h371v-140h-516v736z" />
    <glyph glyph-name="F" unicode="F" horiz-adv-x="600" 
d="M95 736h460v-140h-315v-167h273v-140h-273v-289h-145v736z" />
    <glyph glyph-name="G" unicode="G" horiz-adv-x="762" 
d="M692 74c-8.66699 -9.33301 -22.333 -18.834 -41 -28.501s-40.167 -18.5 -64.5 -26.5s-49.166 -14.5 -74.499 -19.5s-49.333 -7.5 -72 -7.5c-60 0 -114 8.83301 -162 26.5s-89 42.334 -123 74.001s-60 69.167 -78 112.5s-27 90.666 -27 141.999
c0 67.333 10.167 125.833 30.5 175.5s48 91 83 124s75.333 57.5 121 73.5s93.5 24 143.5 24c47.333 0 90.666 -5.16699 129.999 -15.5s72.666 -23.166 99.999 -38.499l-47 -135c-12 6.66699 -28 13.334 -48 20.001s-40.333 12.167 -61 16.5s-39 6.5 -55 6.5
c-40 0 -75.333 -5 -106 -15s-56.5 -25 -77.5 -45s-36.833 -44.833 -47.5 -74.5s-16 -64.167 -16 -103.5c0 -34.667 6 -65.834 18 -93.501s28.833 -51.167 50.5 -70.5s47.334 -34 77.001 -44s62.5 -15 98.5 -15c20.667 0 39.667 1.5 57 4.5s32 7.83301 44 14.5v89h-127v140
h274v-311z" />
    <glyph glyph-name="H" unicode="H" horiz-adv-x="809" 
d="M714 736v-736h-145v299h-329v-299h-145v736h145v-297h329v297h145z" />
    <glyph glyph-name="I" unicode="I" horiz-adv-x="335" 
d="M95 736h145v-736h-145v736z" />
    <glyph glyph-name="J" unicode="J" horiz-adv-x="400" 
d="M305 155c0 -64 -12.667 -118.668 -38 -164.001s-60.5 -80.166 -105.5 -104.499s-97.167 -37.5 -156.5 -39.5v0v141c45.333 2.66699 82.333 16.667 111 42s43 68 43 128v578h146v-581z" />
    <glyph glyph-name="K" unicode="K" horiz-adv-x="704" 
d="M242 474l-4 -37l22 28l240 271h188l-304 -330l305 -406h-184l-227 314l-36 -36v-278h-147v736h147v-262z" />
    <glyph glyph-name="L" unicode="L" horiz-adv-x="641" 
d="M95 736h145v-596h346v-140h-491v736z" />
    <glyph glyph-name="M" unicode="M" horiz-adv-x="948" 
d="M95 0v766h1l409 -580l-62 14l408 566h2v-766h-145v439l9 -75l-249 -354h-2l-256 354l25 69v-433h-140z" />
    <glyph glyph-name="N" unicode="N" horiz-adv-x="853" 
d="M754 -30l-558 504l43 -24l3 -450h-147v765h6l546 -502l-32 14l-3 459h146v-766h-4z" />
    <glyph glyph-name="O" unicode="O" horiz-adv-x="852" 
d="M50 367c0 50.667 9.66699 98.667 29 144s46.166 85.5 80.499 120.5s74.166 62.5 119.499 82.5s94 30 146 30c51.333 0 99.666 -10 144.999 -30s85.5 -47.5 120.5 -82.5s62.333 -75.167 82 -120.5s29.5 -93.333 29.5 -144c0 -52 -9.83301 -100.667 -29.5 -146
s-47 -85.166 -82 -119.499s-75.167 -61.166 -120.5 -80.499s-93.666 -29 -144.999 -29c-52 0 -100.667 9.66699 -146 29s-85.166 46.166 -119.499 80.499s-61.166 74.166 -80.499 119.499s-29 94 -29 146zM200 367c0 -32.667 5.83105 -63.167 17.498 -91.5
s28 -53.333 49 -75s45.333 -38.5 73 -50.5s57.834 -18 90.501 -18c31.333 0 60.5 6 87.5 18s50.5 28.833 70.5 50.5s35.667 46.667 47 75s17 58.833 17 91.5c0 33.333 -5.83301 64.333 -17.5 93s-27.667 53.834 -48 75.501s-44.166 38.5 -71.499 50.5s-57 18 -89 18
s-61.667 -6 -89 -18s-51.333 -28.833 -72 -50.5s-36.667 -46.834 -48 -75.501s-17 -59.667 -17 -93z" />
    <glyph glyph-name="P" unicode="P" horiz-adv-x="636" 
d="M318 736c60.667 0 112 -10.167 154 -30.5s74 -49 96 -86s33 -80.833 33 -131.5c0 -30 -4.5 -60.167 -13.5 -90.5s-23.333 -57.833 -43 -82.5s-46 -44.5 -79 -59.5s-73.5 -22.5 -121.5 -22.5h-104v-233h-145v736h223zM343 374c22 0 40.332 3.83105 54.999 11.498
s26.167 17.334 34.5 29.001s14.333 23.834 18 36.501s5.5 23.667 5.5 33c0 7.33301 -1.16699 17.166 -3.5 29.499s-7.16602 24.833 -14.499 37.5s-18.5 23.334 -33.5 32.001s-35.167 13 -60.5 13h-104v-222h103z" />
    <glyph glyph-name="Q" unicode="Q" horiz-adv-x="893" 
d="M615 142h228v-142h-418zM50 367c0 50.667 9.66699 98.667 29 144s46.166 85.5 80.499 120.5s74.166 62.5 119.499 82.5s94 30 146 30c51.333 0 99.666 -10 144.999 -30s85.5 -47.5 120.5 -82.5s62.333 -75.167 82 -120.5s29.5 -93.333 29.5 -144
c0 -52 -9.83301 -100.667 -29.5 -146s-47 -85.166 -82 -119.499s-75.167 -61.166 -120.5 -80.499s-93.666 -29 -144.999 -29c-52 0 -100.667 9.66699 -146 29s-85.166 46.166 -119.499 80.499s-61.166 74.166 -80.499 119.499s-29 94 -29 146zM200 367
c0 -32 5.83105 -62.166 17.498 -90.499s28 -53.333 49 -75s45.333 -38.5 73 -50.5s57.834 -18 90.501 -18c31.333 0 60.5 6 87.5 18s50.5 28.667 70.5 50s35.667 46.166 47 74.499s17 58.833 17 91.5c0 32 -5.83301 62.167 -17.5 90.5s-27.667 53.166 -48 74.499
s-44.166 38 -71.499 50s-57 18 -89 18s-61.667 -6 -89 -18s-51.333 -28.667 -72 -50s-36.667 -46.166 -48 -74.499s-17 -58.5 -17 -90.5z" />
    <glyph glyph-name="R" unicode="R" horiz-adv-x="686" 
d="M318 736c46 0 86.998 -5.83203 122.998 -17.499s66.167 -28.334 90.5 -50.001s42.833 -47.667 55.5 -78s19 -64.5 19 -102.5c0 -30 -4.5 -60 -13.5 -90s-23.667 -57.333 -44 -82s-47.166 -44.5 -80.499 -59.5s-74.666 -22.5 -123.999 -22.5h-104v-234h-145v736h223z
M342.998 374.001c22 0 40.332 3.66797 54.999 11.001s26.167 16.666 34.5 27.999s14.333 23.166 18 35.499s5.5 23.833 5.5 34.5c0 8 -1.16699 18.167 -3.5 30.5s-7.16602 24.833 -14.499 37.5s-18.5 23.334 -33.5 32.001s-35.167 13 -60.5 13h-104v-222h103z
M478.997 284.002l182 -284h-169l-186 280z" />
    <glyph glyph-name="S" unicode="S" horiz-adv-x="583" 
d="M488 558c-28 15.333 -56.5029 28.0039 -85.5029 38.0039s-56.167 15 -81.5 15c-31.333 0 -56 -6.33301 -74 -19s-27 -31.667 -27 -57c0 -17.333 6.83301 -32.833 20.5 -46.5s31.334 -25.834 53.001 -36.501s44.167 -20.334 67.5 -29.001c21.333 -8 42.5 -17.5 63.5 -28.5
s39.833 -24.667 56.5 -41s30 -36.666 40 -60.999s15 -54.166 15 -89.499c0 -37.333 -9.66699 -72 -29 -104s-47.666 -57.833 -84.999 -77.5s-83.333 -29.5 -138 -29.5c-28 0 -56.5 2.83301 -85.5 8.5s-57.5 14.334 -85.5 26.001s-55 26.5 -81 44.5l64 113
c17.333 -12.667 36.166 -23.834 56.499 -33.501s40.833 -17.167 61.5 -22.5s39.667 -8 57 -8s34.833 2.5 52.5 7.5s32.334 13.5 44.001 25.5s17.5 28.667 17.5 50c0 14.667 -4.83301 28 -14.5 40s-22.667 23 -39 33s-34.166 18.667 -53.499 26
c-22.667 8.66699 -46 18.667 -70 30s-46.5 25.166 -67.5 41.499s-38 36.666 -51 60.999s-19.5 54.166 -19.5 89.499c0 42.667 9.5 79.667 28.5 111s45.833 56.166 80.5 74.499s74.667 28.5 120 30.5c59.333 0 107.5 -7 144.5 -21s70.167 -30.667 99.5 -50z" />
    <glyph glyph-name="T" unicode="T" horiz-adv-x="586" 
d="M45 736h496v-140h-179v-596h-145v596h-172v140z" />
    <glyph glyph-name="U" unicode="U" horiz-adv-x="756" 
d="M225 272c0 -23.333 6.99902 -45.666 20.999 -66.999s32.5 -38.666 55.5 -51.999s48.167 -20 75.5 -20c30 0 56.667 6.66699 80 20s41.833 30.666 55.5 51.999s20.5 43.666 20.5 66.999v464h143v-467c0 -54 -13.333 -101.833 -40 -143.5s-62.667 -74.334 -108 -98.001
s-95.666 -35.5 -150.999 -35.5v0c-54.667 0 -104.5 11.833 -149.5 35.5s-80.833 56.334 -107.5 98.001s-40 89.5 -40 143.5v467h145v-464z" />
    <glyph glyph-name="V" unicode="V" horiz-adv-x="736" 
d="M206 736l215 -530l-84 17l195 513h172l-336 -770l-336 770h174z" />
    <glyph glyph-name="W" unicode="W" horiz-adv-x="1023" 
d="M32 731h170l157 -462l-23 10l137 341l67 -199l-212 -455zM401 731h144l181 -447l-26 4l135 443h156l-284 -763z" />
    <glyph glyph-name="X" unicode="X" horiz-adv-x="725" 
d="M35 736h185l480 -736h-187zM25 0l262 412l68 -146l-150 -266h-180zM365 466l152 270h176l-253 -395z" />
    <glyph glyph-name="Y" unicode="Y" horiz-adv-x="722" 
d="M286 229l-271 507h179l190 -382l-43 -3l187 385h179l-276 -507v-229h-145v229z" />
    <glyph glyph-name="Z" unicode="Z" horiz-adv-x="722" 
d="M45 0l17 27l45.5 72l64 102l73 117l73 117l64 102l45.5 72l17 27l16 -40h-265c-14 0 -28.5 3.16699 -43.5 9.5s-27.667 15 -38 26s-15.5 23.167 -15.5 36.5v105h133v-14c0 -14.667 2.33301 -22.167 7 -22.5s13 -0.5 25 -0.5h409l-388 -612l-8 16h395v-140h-626z" />
    <glyph glyph-name="bracketleft" unicode="[" horiz-adv-x="374" 
d="M95 761h234v-130h-89v-654h89v-129h-234v913z" />
    <glyph glyph-name="backslash" unicode="\" horiz-adv-x="430" 
d="M132 751l142 -385l142 -385h-142l-142 385l-142 385h142z" />
    <glyph glyph-name="bracketright" unicode="]" horiz-adv-x="374" 
d="M279 -152h-234v130h89v654h-89v129h234v-913z" />
    <glyph glyph-name="asciicircum" unicode="^" horiz-adv-x="479" 
d="M274 489l-9.5 11l-19 22.5l-9.5 11.5l-9 -11.5c-6 -7.66699 -12.167 -15.167 -18.5 -22.5l-9.5 -11h-85l61.5 92l60.5 92v0l61.5 -92l61.5 -92h-85z" />
    <glyph glyph-name="underscore" unicode="_" horiz-adv-x="612" 
d="M102 121h408v-121h-408v121z" />
    <glyph glyph-name="grave" unicode="`" horiz-adv-x="317" 
d="M30 624h155l62 -135h-85z" />
    <glyph glyph-name="a" unicode="a" horiz-adv-x="614" 
d="M256 -12c-40.667 0 -77.5 8.16602 -110.5 24.499s-59.167 41.5 -78.5 75.5s-29 77.333 -29 130c0 49.333 10 92 30 128s46.333 63.833 79 83.5s67.334 29.5 104.001 29.5c43.333 0 76.166 -7.16699 98.499 -21.5s40.833 -30.166 55.5 -47.499l-6 -17l13 64h130v-437h-140
v95l11 -30c-1.33301 0 -5.33301 -3.83301 -12 -11.5s-16.5 -16.667 -29.5 -27s-29 -19.333 -48 -27s-41.5 -11.5 -67.5 -11.5zM296 101.999c16.667 0 31.666 2.5 44.999 7.5s25 12.333 35 22s18.667 21.834 26 36.501v107c-5.33301 14.667 -13.333 27.167 -24 37.5
s-23.334 18.333 -38.001 24s-31 8.5 -49 8.5c-20 0 -38.5 -5.16699 -55.5 -15.5s-30.5 -24.5 -40.5 -42.5s-15 -38.667 -15 -62s5.33301 -44.333 16 -63s24.834 -33.334 42.501 -44.001s36.834 -16 57.501 -16z" />
    <glyph glyph-name="b" unicode="b" horiz-adv-x="624" 
d="M359 -12c-36.667 0 -67.501 6.16602 -92.501 18.499s-46.833 28.5 -65.5 48.5l11 30v-85h-140v789h139v-427v45c17.333 14.667 40.333 27 69 37s61.334 15 98.001 15c38 0 72.667 -9 104 -27s56.5 -44.167 75.5 -78.5s28.5 -76.166 28.5 -125.499s-10.5 -92 -31.5 -128
s-48.833 -63.667 -83.5 -83s-72 -29 -112 -29zM327.999 105.999c20.667 0 39.834 5.33301 57.501 16s31.834 25.334 42.501 44.001s16 39.667 16 63s-5.33301 44 -16 62s-24.834 32.167 -42.501 42.5s-36.834 15.5 -57.501 15.5c-18 0 -34.833 -2.83301 -50.5 -8.5
s-29 -13.667 -40 -24s-19.5 -22.833 -25.5 -37.5v-107c8 -14.667 17.5 -26.834 28.5 -36.501s23.833 -17 38.5 -22s31 -7.5 49 -7.5z" />
    <glyph glyph-name="c" unicode="c" horiz-adv-x="479" 
d="M443 39c-19.333 -15.333 -43.501 -27.666 -72.501 -36.999s-57.5 -14 -85.5 -14c-50 0 -93.5 9.16699 -130.5 27.5s-65.667 44.666 -86 78.999s-30.5 75.833 -30.5 124.5s11 90.167 33 124.5s50.833 60.5 86.5 78.5s73.167 27 112.5 27s73.5 -5.33301 102.5 -16
s53.833 -24.667 74.5 -42l-68 -90c-9.33301 7.33301 -22.166 14.833 -38.499 22.5s-35.5 11.5 -57.5 11.5c-19.333 0 -37 -5 -53 -15s-28.667 -23.667 -38 -41s-14 -37.333 -14 -60c0 -21.333 5 -41 15 -59s23.833 -32.167 41.5 -42.5s38.5 -15.5 62.5 -15.5
c15.333 0 29.5 2.16699 42.5 6.5s24.167 10.5 33.5 18.5z" />
    <glyph glyph-name="d" unicode="d" horiz-adv-x="624" 
d="M250 -12c-40.667 0 -77 9.5 -109 28.5s-57.167 46.5 -75.5 82.5s-27.5 78.667 -27.5 128s10 91.333 30 126s47.333 61 82 79s74 27 118 27c28 0 54.833 -4.33301 80.5 -13s47.167 -22 64.5 -40v-44v427h139v-789h-140v85l11 -30c-22.667 -18.667 -48 -34.5 -76 -47.5
s-60.333 -19.5 -97 -19.5zM296 106c18.667 0 35.168 2.5 49.501 7.5s27 12.333 38 22s20.5 21.834 28.5 36.501v107c-5.33301 14.667 -13.5 27.167 -24.5 37.5s-24.333 18.333 -40 24s-32.834 8.5 -51.501 8.5c-20.667 0 -39.834 -5.16699 -57.501 -15.5
s-31.834 -24.5 -42.501 -42.5s-16 -38.667 -16 -62s5.33301 -44.333 16 -63s24.834 -33.334 42.501 -44.001s36.834 -16 57.501 -16z" />
    <glyph glyph-name="e" unicode="e" horiz-adv-x="553" 
d="M287 -12c-53.333 0 -98.4971 9.99902 -135.497 29.999s-65.167 47.667 -84.5 83s-29 76 -29 122c0 44 11.333 83.667 34 119s53 63.5 91 84.5s80.333 31.5 127 31.5c62.667 0 114.167 -18.167 154.5 -54.5s66.5 -88.833 78.5 -157.5l-340 -108l-31 76l246 83l-29 -13
c-5.33301 17.333 -14.833 32.5 -28.5 45.5s-34.167 19.5 -61.5 19.5c-20.667 0 -38.834 -4.83301 -54.501 -14.5s-27.667 -23.334 -36 -41.001s-12.5 -38.5 -12.5 -62.5c0 -27.333 5 -50.166 15 -68.499s23.667 -32.166 41 -41.499s36.666 -14 57.999 -14
c15.333 0 30.166 2.66699 44.499 8s28.5 12.333 42.5 21l62 -104c-23.333 -13.333 -48.5 -24 -75.5 -32s-52.5 -12 -76.5 -12z" />
    <glyph glyph-name="f" unicode="f" horiz-adv-x="435" 
d="M114 0v315.001h-74v124h74v152c0 57.333 16.5 104.166 49.5 140.499s80.833 54.5 143.5 54.5c18.667 0 39.5 -2.83301 62.5 -8.5s43.167 -14.834 60.5 -27.501l-59 -101c-6.66699 8.66699 -14.5 14.5 -23.5 17.5s-17.5 4.5 -25.5 4.5c-20 0 -36.333 -6.66699 -49 -20
s-19 -34.666 -19 -63.999v-148h132v-124h-132v-315h-140z" />
    <glyph glyph-name="g" unicode="g" horiz-adv-x="633" 
d="M298 -220c-39.333 0 -72.4971 4.66602 -99.4971 13.999s-49.833 20.666 -68.5 33.999s-35.334 26 -50.001 38l82 96c15.333 -14 33.166 -27.5 53.499 -40.5s47.166 -19.5 80.499 -19.5c22 0 42.5 3.83301 61.5 11.5s34.333 18.834 46 33.501s17.5 33 17.5 55v96l5 -25
c-10.667 -22.667 -30 -42.5 -58 -59.5s-64.667 -25.5 -110 -25.5c-39.333 0 -75.833 10.167 -109.5 30.5s-60.5 48 -80.5 83s-30 74.833 -30 119.5c0 46 10.667 86.833 32 122.5s49 63.834 83 84.501s70 31 108 31s70.833 -5.5 98.5 -16.5s48.5 -24.5 62.5 -40.5l-5 -13
l15 48h129v-437c0 -42.667 -12 -80.5 -36 -113.5s-55.833 -59 -95.5 -78s-83.5 -28.5 -131.5 -28.5zM179.003 224.999c0 -23.333 5.33301 -44.333 16 -63s25.167 -33.334 43.5 -44.001s38.833 -16 61.5 -16c19.333 0 36.5 2.5 51.5 7.5s28.333 12.333 40 22
s21.5 21.834 29.5 36.501v107c-6 14.667 -15 27.167 -27 37.5s-25.833 18.333 -41.5 24s-33.167 8.5 -52.5 8.5c-22.667 0 -43.167 -5.16699 -61.5 -15.5s-32.833 -24.5 -43.5 -42.5s-16 -38.667 -16 -62z" />
    <glyph glyph-name="h" unicode="h" horiz-adv-x="594" 
d="M72 0l0.000976562 789h137v-440l-1 17c15.333 27.333 37 49.5 65 66.5s62.333 25.5 103 25.5c41.333 0 75.833 -12.167 103.5 -36.5s41.834 -55.833 42.501 -94.5v-327h-140v275c-0.666992 19.333 -5.83398 34.833 -15.501 46.5s-25.834 17.5 -48.501 17.5
c-21.333 0 -40 -7 -56 -21s-28.333 -33 -37 -57s-13 -51.667 -13 -83v-178h-140z" />
    <glyph glyph-name="i" unicode="i" horiz-adv-x="284" 
d="M72 437h140v-437h-140v437zM69 592c0 20.667 8.16699 37.667 24.5 51s33.833 20 52.5 20s35.834 -6.66699 51.501 -20s23.5 -30.333 23.5 -51s-7.83301 -37.5 -23.5 -50.5s-32.834 -19.5 -51.501 -19.5s-36.167 6.5 -52.5 19.5s-24.5 29.833 -24.5 50.5z" />
    <glyph glyph-name="j" unicode="j" horiz-adv-x="295" 
d="M101 -211l-81 87c20 14.667 35.5 32.667 46.5 54s16.5 47.333 16.5 78v429h140v-437c0 -52 -9.33301 -95.167 -28 -129.5s-50 -61.5 -94 -81.5zM78 592c0 20.667 8.16699 37.667 24.5 51s33.833 20 52.5 20s35.834 -6.66699 51.501 -20s23.5 -30.333 23.5 -51
s-7.83301 -37.5 -23.5 -50.5s-32.834 -19.5 -51.501 -19.5s-36.167 6.5 -52.5 19.5s-24.5 29.833 -24.5 50.5z" />
    <glyph glyph-name="k" unicode="k" horiz-adv-x="546" 
d="M72 0v789h140v-789h-140zM323 297l198 -297h-163l-127 217zM170 121l-14 133l264 194l85 -75z" />
    <glyph glyph-name="l" unicode="l" horiz-adv-x="284" 
d="M72 789h140v-789h-140v789z" />
    <glyph glyph-name="m" unicode="m" horiz-adv-x="863" 
d="M199 437l10.998 -76.9951l-2 6c17.333 29.333 39 52.166 65 68.499s57.333 24.5 94 24.5c24 0 45.167 -3.33301 63.5 -10s33.833 -16.5 46.5 -29.5s21.334 -29.833 26.001 -50.5l-5 -1c18.667 27.333 41.167 49.333 67.5 66s53.833 25 82.5 25
c43.333 0 77.833 -12.167 103.5 -36.5s38.834 -55.833 39.501 -94.5v-328h-139v270c-0.666992 19.333 -3.66699 35.166 -9 47.499s-17.666 19.166 -36.999 20.499c-22.667 0 -41.834 -7.83301 -57.501 -23.5s-27.334 -35.667 -35.001 -60s-11.5 -49.5 -11.5 -75.5v-179h-140
v270c-0.666992 19.333 -4.16699 35.166 -10.5 47.499s-19.166 19.166 -38.499 20.499c-22 0 -40.5 -7.83301 -55.5 -23.5s-26.333 -35.5 -34 -59.5s-11.5 -48.667 -11.5 -74v-181h-140v437h127z" />
    <glyph glyph-name="n" unicode="n" horiz-adv-x="594" 
d="M199 437l11.001 -78l-2 7c15.333 27.333 37 49.5 65 66.5s62.333 25.5 103 25.5c41.333 0 75.833 -12.167 103.5 -36.5s41.834 -55.833 42.501 -94.5v-327h-140v275c-0.666992 19.333 -5.83398 34.833 -15.501 46.5s-25.834 17.5 -48.501 17.5c-21.333 0 -40 -7 -56 -21
s-28.333 -33 -37 -57s-13 -51.667 -13 -83v-178h-140v437h127z" />
    <glyph glyph-name="o" unicode="o" horiz-adv-x="571" 
d="M38 224c0 44.667 10.5 84.6699 31.5 120.003s50.5 63.166 88.5 83.499s81.667 30.5 131 30.5c50 0 93.333 -10.167 130 -30.5s64.834 -48.166 84.501 -83.499s29.5 -75.333 29.5 -120s-9.83301 -84.834 -29.5 -120.501s-47.834 -63.834 -84.501 -84.501
s-80.667 -31 -132 -31c-48 0 -90.833 9.33301 -128.5 28s-67.167 45.667 -88.5 81s-32 77.666 -32 126.999zM179 223.003c0 -22.667 4.66699 -43.167 14 -61.5s22 -32.833 38 -43.5s34 -16 54 -16c22 0 41 5.33301 57 16s28.333 25.167 37 43.5s13 38.833 13 61.5
c0 23.333 -4.33301 44 -13 62s-21 32.333 -37 43s-35 16 -57 16c-20 0 -38 -5.33301 -54 -16s-28.667 -25 -38 -43s-14 -38.667 -14 -62z" />
    <glyph glyph-name="p" unicode="p" horiz-adv-x="624" 
d="M346 -12c-26 0 -51.5 4.83301 -76.5 14.5s-45.833 23.5 -62.5 41.5l4 41v-295h-139v657h120l20 -85l-11 30c22.667 19.333 48 35.333 76 48s60.333 19 97 19c40.667 0 77 -9.5 109 -28.5s57.167 -46.333 75.5 -82s27.5 -78.5 27.5 -128.5
c0 -49.333 -10.333 -91.333 -31 -126s-49 -61 -85 -79s-77.333 -27 -124 -27zM318 98c22.667 0 43.5 5.00391 62.5 15.0039s34.333 24.167 46 42.5s17.5 39.166 17.5 62.499c0 24.667 -5.16699 46.167 -15.5 64.5s-24.333 32.666 -42 42.999s-37.167 15.5 -58.5 15.5
c-18.667 0 -35.167 -2.5 -49.5 -7.5s-27 -12.333 -38 -22s-20.5 -21.834 -28.5 -36.501v-107c5.33301 -14 13 -26.333 23 -37s22.167 -18.834 36.5 -24.501s29.833 -8.5 46.5 -8.5z" />
    <glyph glyph-name="q" unicode="q" horiz-adv-x="624" 
d="M246 -12c-37.333 0 -71.833 9.00098 -103.5 27.001s-57 44.167 -76 78.5s-28.5 76.166 -28.5 125.499c0 50 10.667 92.833 32 128.5s49.166 63.167 83.499 82.5s71.5 29 111.5 29c37.333 0 68.333 -6.16699 93 -18.5s46.334 -28.5 65.001 -48.5l-11 -30v85h140v-657h-139
v295l2 -45c-17.333 -14.667 -40.5 -27 -69.5 -37s-62.167 -15 -99.5 -15zM296 98.001c18.667 0 35.833 2.83203 51.5 8.49902s29 13.834 40 24.501s19.167 23 24.5 37v107c-8 14.667 -17.5 26.834 -28.5 36.501s-23.667 17 -38 22s-30.833 7.5 -49.5 7.5
c-20.667 0 -39.834 -5.33301 -57.501 -16s-31.834 -25.334 -42.501 -44.001s-16 -39.667 -16 -63s5.33301 -44 16 -62s24.834 -32.167 42.501 -42.5s36.834 -15.5 57.501 -15.5z" />
    <glyph glyph-name="r" unicode="r" horiz-adv-x="410" 
d="M198 437l13 -120l-3 18c12.667 26 30 48.167 52 66.5s43.833 32.5 65.5 42.5s38.167 15 49.5 15l-7 -140c-32.667 4 -60.667 -1.33301 -84 -16s-41.333 -34 -54 -58s-19 -48.667 -19 -74v-171h-139v437h126z" />
    <glyph glyph-name="s" unicode="s" horiz-adv-x="447" 
d="M214 -9c-36 0 -69.4951 6.33105 -100.495 18.998s-57.167 30.334 -78.5 53.001l58 77c21.333 -19.333 41.166 -33.166 59.499 -41.499s34.833 -12.5 49.5 -12.5c11.333 0 21.5 1.16699 30.5 3.5s16.167 6 21.5 11s8 11.5 8 19.5c0 11.333 -4.5 20.333 -13.5 27
s-20.5 12.167 -34.5 16.5l-45 13.5c-40 12.667 -68.833 31.167 -86.5 55.5s-26.5 50.833 -26.5 79.5c0 22 5.83301 44.167 17.5 66.5s30.334 41 56.001 56s58.834 22.5 99.501 22.5c36.667 0 67.667 -3.66699 93 -11s49.333 -19.333 72 -36l-53 -82
c-12.667 10 -26.834 18.5 -42.501 25.5s-30.167 10.833 -43.5 11.5c-12 0.666992 -22.167 -0.666016 -30.5 -3.99902s-14.833 -7.66602 -19.5 -12.999s-7 -11 -7 -17c-0.666992 -12.667 4.16602 -22.667 14.499 -30s23.5 -13 39.5 -17s31.667 -8.66699 47 -14
c21.333 -6.66699 39.666 -15.667 54.999 -27s27.166 -24.833 35.499 -40.5s12.5 -34.5 12.5 -56.5c0 -26.667 -6.83301 -51.834 -20.5 -75.501s-34.334 -42.834 -62.001 -57.501s-62.834 -22 -105.501 -22z" />
    <glyph glyph-name="t" unicode="t" horiz-adv-x="394" 
d="M113 629h140v-190h106v-109h-106v-330h-140v330h-68v109h68v190z" />
    <glyph glyph-name="u" unicode="u" horiz-adv-x="584" 
d="M213 -21c-39.333 0 -72.334 12.167 -99.001 36.5s-40.667 55.833 -42 94.5v327h140v-275c1.33301 -19.333 6.33301 -34.833 15 -46.5s23.334 -17.5 44.001 -17.5s38.5 7 53.5 21s26.667 33.167 35 57.5s12.5 51.833 12.5 82.5v178h140v-437h-127l-11 80l2 -9
c-10 -18 -22.667 -34 -38 -48s-33.5 -24.833 -54.5 -32.5s-44.5 -11.5 -70.5 -11.5z" />
    <glyph glyph-name="v" unicode="v" horiz-adv-x="534" 
d="M272 -9l-262 446h166l149 -302l-86 3l129 299h156l-248 -446h-4z" />
    <glyph glyph-name="w" unicode="w" horiz-adv-x="684" 
d="M384 437l96 -225l-26 -2l84 227h136l-197 -463l-140 290l-128 -290l-199 463h136l106 -243l-48 7l84 186l-23 50h119z" />
    <glyph glyph-name="x" unicode="x" horiz-adv-x="526" 
d="M270 298l83 139h139l-173 -240zM516 0h-169l-337 437h172zM252 140l-98 -140h-139l173 234z" />
    <glyph glyph-name="y" unicode="y" horiz-adv-x="534" 
d="M107 -210l291 647h126l-282 -647h-135zM224 -2l-214 439h157l165 -369z" />
    <glyph glyph-name="z" unicode="z" horiz-adv-x="522" 
d="M140 323c-24 0 -45 8.66797 -63 26.001s-27 40.666 -27 69.999v60h105v-14c0 -14 2.5 -22.167 7.5 -24.5s13.833 -3.5 26.5 -3.5h277l-242 -352l-26 29h265v-114h-443l249 363l21 -40h-150z" />
    <glyph glyph-name="braceleft" unicode="{" horiz-adv-x="401" 
d="M314 639c-14 0 -24.833 -2.00293 -32.5 -6.00293s-13 -13 -16 -27s-4.5 -36.333 -4.5 -67v-98c0 -25.333 -3.83301 -47.166 -11.5 -65.499s-16.5 -33.166 -26.5 -44.499s-19.333 -20 -28 -26c7.33301 -5.33301 16.166 -13.5 26.499 -24.5s19.5 -24.333 27.5 -40
s12 -33.167 12 -52.5v-120c0 -30 1.5 -52 4.5 -66s8.33301 -23 16 -27s18.5 -6 32.5 -6h37v-122h-79c-18.667 0 -37.167 0.333008 -55.5 1s-35.166 4.16699 -50.499 10.5s-27.5 18 -36.5 35s-13.5 41.5 -13.5 73.5v165c0 20 -3 38.833 -9 56.5s-15 32.167 -27 43.5
s-27 17 -45 17v0v116c18 0.666992 33 6.5 45 17.5s21 25.333 27 43s9 36.5 9 56.5v158c0 32 4.33301 56.333 13 73s20.5 28.334 35.5 35.001s31.833 10.5 50.5 11.5s37.667 1.5 57 1.5h79v-122h-37z" />
    <glyph glyph-name="bar" unicode="|" horiz-adv-x="306" 
d="M88 714h126v-951h-126v951z" />
    <glyph glyph-name="braceright" unicode="}" horiz-adv-x="401" 
d="M87 -31c14 0 24.835 2 32.502 6s13 13.167 16 27.5s4.5 36.5 4.5 66.5v98c0 26 3.83301 48 11.5 66s16.667 32.833 27 44.5s19.5 20.167 27.5 25.5c-6.66699 6 -15.334 14.333 -26.001 25s-20 23.834 -28 39.501s-12 33.167 -12 52.5v120
c0 30.667 -1.5 52.834 -4.5 66.501s-8.33301 22.5 -16 26.5s-18.5 6 -32.5 6h-37v122h79c18.667 0 37.167 -0.333008 55.5 -1s35.166 -4.16699 50.499 -10.5s27.5 -18 36.5 -35s13.5 -41.5 13.5 -73.5v-165c0 -14.667 1.66699 -29 5 -43s8.33301 -26.5 15 -37.5
s15.167 -19.833 25.5 -26.5s22.166 -10 35.499 -10v0v-116c-13.333 0 -25.166 -3.33301 -35.499 -10s-18.833 -15.334 -25.5 -26.001s-11.667 -23 -15 -37s-5 -28.667 -5 -44v-158c0 -32 -4.33301 -56.333 -13 -73s-20.5 -28.334 -35.5 -35.001s-31.833 -10.5 -50.5 -11.5
s-37.667 -1.5 -57 -1.5h-79v122h37z" />
    <glyph glyph-name="asciitilde" unicode="~" horiz-adv-x="451" 
d="M317 422c-28 0 -51.166 5.83398 -69.499 17.501s-35.166 23.5 -50.499 35.5c-8.66699 7.33301 -17.334 13.833 -26.001 19.5s-17.667 8.5 -27 8.5c-10.667 0 -19 -4 -25 -12s-9.83301 -18.167 -11.5 -30.5s-1.83398 -24.5 -0.500977 -36.5h-85
c-3.33301 31.333 -0.5 61.166 8.5 89.499s23.833 51.333 44.5 69s46.667 26.5 78 26.5c20 0 38.167 -5.5 54.5 -16.5s31.5 -22.5 45.5 -34.5l31.5 -25c9.66699 -7.33301 19.167 -11 28.5 -11c10.667 0 18.167 4.33301 22.5 13s7 19.5 8 32.5s0.833008 25.833 -0.5 38.5h85
c6 -34.667 4.5 -66 -4.5 -94s-23 -50 -42 -66s-40.5 -24 -64.5 -24z" />
    <glyph glyph-name="uni00A0" unicode="&#xa0;" horiz-adv-x="325" 
 />
    <glyph glyph-name="exclamdown" unicode="&#xa1;" horiz-adv-x="204" 
d="M36 -214h125v566h-125v-566zM102 565c-24 0 -43.667 -6.5 -59 -19.5s-23 -29.833 -23 -50.5c0 -21.333 7.83301 -39 23.5 -53s35.167 -21 58.5 -21s42.5 7 57.5 21s22.5 31.667 22.5 53c0 20.667 -7.33301 37.5 -22 50.5s-34 19.5 -58 19.5z" />
    <glyph glyph-name="cent" unicode="&#xa2;" horiz-adv-x="479" 
d="M239 506h84v-574h-84v574zM443 39c-19.333 -15.333 -43.501 -27.666 -72.501 -36.999s-57.5 -14 -85.5 -14c-50 0 -93.5 9.16699 -130.5 27.5s-65.667 44.666 -86 78.999s-30.5 75.833 -30.5 124.5s11 90.167 33 124.5s50.833 60.5 86.5 78.5s73.167 27 112.5 27
s73.5 -5.33301 102.5 -16s53.833 -24.667 74.5 -42l-68 -90c-9.33301 7.33301 -22.166 14.833 -38.499 22.5s-35.5 11.5 -57.5 11.5c-19.333 0 -37 -5 -53 -15s-28.667 -23.667 -38 -41s-14 -37.333 -14 -60c0 -21.333 5 -41 15 -59s23.833 -32.167 41.5 -42.5
s38.5 -15.5 62.5 -15.5c15.333 0 29.5 2.16699 42.5 6.5s24.167 10.5 33.5 18.5z" />
    <glyph glyph-name="sterling" unicode="&#xa3;" horiz-adv-x="672" 
d="M462 418v-140h-355v140h355zM173 560c0 32 10 61.502 30 88.502s47.833 48.5 83.5 64.5s77.167 24 124.5 24c49.333 0 92.166 -9.66699 128.499 -29s63.5 -46.333 81.5 -81l-105 -72c-4.66699 5.33301 -11 11.166 -19 17.499s-18.667 12 -32 17s-30.333 7.5 -51 7.5
c-21.333 0 -39.166 -3.16699 -53.499 -9.5s-25 -16.333 -32 -30s-10.5 -31.5 -10.5 -53.5v-267v-20c0 -12.667 -0.666992 -24.667 -2 -36s-4 -21.5 -8 -30.5s-10 -16.833 -18 -23.5l-20 13h197c14.667 0 25.667 3.16699 33 9.5s11 16.166 11 29.499v33l126 1v-81
c0 -20 -3 -38 -9 -54s-15 -29.833 -27 -41.5s-26.833 -20.667 -44.5 -27s-38.167 -9.5 -61.5 -9.5h-420v140h45c13.333 0 23.833 1.33301 31.5 4s13.167 9.16699 16.5 19.5s5 26.833 5 49.5v347z" />
    <glyph glyph-name="currency" unicode="&#xa4;" horiz-adv-x="506" 
d="M393 441c14.667 -25.333 21.9961 -51.998 21.9961 -79.998c0 -14.667 -2 -28.834 -6 -42.501s-9.66699 -26.5 -17 -38.5l24 -24l-59 -59c-4.66699 4 -9 8.16699 -13 12.5s-8.33301 8.5 -13 12.5c-23.333 -13.333 -49.666 -20 -78.999 -20
c-14.667 0 -28.5 1.66699 -41.5 5s-25.167 8 -36.5 14v0l-25 -25l-59 59l24 24c-6.66699 12 -12 25 -16 39s-6 28.333 -6 43v0c0 14.667 1.83301 28.5 5.5 41.5s8.83398 25.167 15.501 36.5l-11.5 12l-11.5 12l59 59l24 -24c12.667 6 25.334 11 38.001 15s26.334 6 41.001 6
s28.667 -1.83301 42 -5.5s26 -8.83398 38 -15.501v0l24 24l59 -59zM175.996 360.002c0 -14 3.5 -26.833 10.5 -38.5s16.333 -21 28 -28s24.5 -10.5 38.5 -10.5c14.667 0 27.834 3.5 39.501 10.5s21 16.333 28 28s10.5 24.5 10.5 38.5c0 14.667 -3.5 27.834 -10.5 39.501
s-16.333 21 -28 28s-24.834 10.5 -39.501 10.5c-14 0 -26.833 -3.5 -38.5 -10.5s-21 -16.333 -28 -28s-10.5 -24.834 -10.5 -39.501v0z" />
    <glyph glyph-name="yen" unicode="&#xa5;" horiz-adv-x="722" 
d="M174 315h389v-113h-389v113zM175 177h388v-113h-388v113zM286 309l-271 427h179l190 -302l-43 -3l187 305h179l-276 -427v-309h-145v309z" />
    <glyph glyph-name="brokenbar" unicode="&#xa6;" horiz-adv-x="219" 
d="M51 714h126v-357h-126v357zM51 119h126v-357h-126v357z" />
    <glyph glyph-name="section" unicode="&#xa7;" horiz-adv-x="579" 
d="M384 139l-54.9971 52.998c33.333 0 63.666 -6.16699 90.999 -18.5s49.166 -30.166 65.499 -53.499s24.5 -52 24.5 -86c0 -40 -9.66699 -76.5 -29 -109.5s-46 -59.5 -80 -79.5s-73.333 -30 -118 -30c-24.667 0 -50.5 2.16699 -77.5 6.5s-53.667 12 -80 23
s-51.5 26.5 -75.5 46.5l72 120c21.333 -16.667 40.833 -29.834 58.5 -39.501s34.167 -16.667 49.5 -21s30.333 -6.5 45 -6.5c16.667 0 31.167 2.66699 43.5 8s22 13.166 29 23.499s10.5 22.5 10.5 36.5c0 14.667 -5.16699 26.667 -15.5 36s-23.666 17.166 -39.999 23.499
s-34.166 11.833 -53.499 16.5c-20.667 5.33301 -42 12.333 -64 21s-42.333 19.834 -61 33.501s-33.834 30.334 -45.501 50.001s-17.5 42.5 -17.5 68.5c0 38 9 68.5 27 91.5s40.5 39.167 67.5 48.5s53.833 13 80.5 11l-11 -52c-38.667 12.667 -68.667 28.334 -90 47.001
s-36 39.167 -44 61.5s-12 44.833 -12 67.5c0 23.333 3.83301 46.833 11.5 70.5s20.167 45.334 37.5 65.001s40.166 35.334 68.499 47.001s62.833 17.5 103.5 17.5c44 -0.666992 82.833 -8 116.5 -22s63.5 -32.667 89.5 -56l-63 -107c-26.667 22.667 -49.834 38 -69.501 46
s-39.167 12.333 -58.5 13c-20.667 0 -37.167 -2.33301 -49.5 -7s-21.166 -11 -26.499 -19s-8 -17 -8 -27c0 -14 5.5 -25.667 16.5 -35s25.333 -17.333 43 -24s36.5 -12.667 56.5 -18s40.667 -12 62 -20s41.166 -18.5 59.499 -31.5s33 -29.333 44 -49
s16.5 -44.167 16.5 -73.5c0 -37.333 -11.833 -71.833 -35.5 -103.5s-60.167 -52.834 -109.5 -63.501zM387.003 278.998c1.33301 12 -3.33301 23.001 -14 33.001s-23.334 18.167 -38.001 24.5s-28.667 9.83301 -42 10.5c-26 2 -47.167 -2.16699 -63.5 -12.5
s-25.166 -22.5 -26.499 -36.5c-0.666992 -14 3.33301 -26.833 12 -38.5s20 -21.334 34 -29.001s28 -13.5 42 -17.5c15.333 1.33301 30.166 4.66602 44.499 9.99902s26.333 12.833 36 22.5s14.834 20.834 15.501 33.501z" />
    <glyph glyph-name="dieresis" unicode="&#xa8;" horiz-adv-x="442" 
d="M50 542c0 21.333 7.5 38.833 22.5 52.5s31.5 20.5 49.5 20.5c16.667 0 32.5 -6.83301 47.5 -20.5s22.5 -31.167 22.5 -52.5s-7.5 -38.666 -22.5 -51.999s-30.833 -20 -47.5 -20c-18 0 -34.5 6.66699 -49.5 20s-22.5 30.666 -22.5 51.999v0zM250 542
c0 21.333 7.5 38.833 22.5 52.5s31.5 20.5 49.5 20.5c16.667 0 32.5 -6.83301 47.5 -20.5s22.5 -31.167 22.5 -52.5s-7.5 -38.666 -22.5 -51.999s-30.833 -20 -47.5 -20c-18 0 -34.5 6.66699 -49.5 20s-22.5 30.666 -22.5 51.999v0z" />
    <glyph glyph-name="copyright" unicode="&#xa9;" horiz-adv-x="880" 
d="M612 182c-16.667 -18 -39.833 -35.001 -69.5 -51.001s-64.167 -23.667 -103.5 -23c-36 1.33301 -68.833 11.333 -98.5 30s-53.167 43.334 -70.5 74.001s-26 64 -26 100c0 40.667 8.33301 76.667 25 108s40.334 56 71.001 74s67.334 27 110.001 27
c14.667 0 30.667 -1.33301 48 -4s34.166 -7.16699 50.499 -13.5s29.5 -14.5 39.5 -24.5l-56 -107c-10.667 11.333 -22 18.666 -34 21.999s-24.333 5 -37 5c-15.333 0 -28.5 -4 -39.5 -12s-19.167 -18.167 -24.5 -30.5s-8 -25.5 -8 -39.5
c0 -14.667 2.83301 -28.167 8.5 -40.5s14 -22.333 25 -30s24.5 -11.5 40.5 -11.5c14.667 0 29.667 3.33301 45 10s28.666 17.334 39.999 32.001zM440.001 -71.001c-53.333 0 -103.5 9.66699 -150.5 29s-88.5 46.333 -124.5 81s-64.167 75.167 -84.5 121.5
s-30.5 96.833 -30.5 151.5c0 55.333 10.167 106.333 30.5 153s48.5 87.334 84.5 122.001s77.5 61.5 124.5 80.5s97.167 28.5 150.5 28.5s103.5 -9.5 150.5 -28.5s88.5 -45.833 124.5 -80.5s64.167 -75.334 84.5 -122.001s30.5 -97.667 30.5 -153
c0 -54.667 -10.167 -105.167 -30.5 -151.5s-48.5 -86.833 -84.5 -121.5s-77.5 -61.667 -124.5 -81s-97.167 -29 -150.5 -29zM440.001 40.999c51.333 0 97.166 11.667 137.499 35s72.333 55.5 96 96.5s35.5 87.5 35.5 139.5c0 52.667 -11.833 99.334 -35.5 140.001
s-55.667 72.834 -96 96.501s-86.166 35.5 -137.499 35.5c-50.667 0 -96.5 -11.833 -137.5 -35.5s-73.333 -55.834 -97 -96.501s-35.5 -87.334 -35.5 -140.001c0 -52 11.833 -98.5 35.5 -139.5s56 -73.167 97 -96.5s86.833 -35 137.5 -35z" />
    <glyph glyph-name="ordfeminine" unicode="&#xaa;" horiz-adv-x="389" 
d="M150 427c-23.333 0 -44.502 5.33008 -63.502 15.9971s-34 27.334 -45 50.001s-16.5 51.334 -16.5 86.001c0 32 5.66699 59.667 17 83s26.333 41.5 45 54.5s38.667 19.5 60 19.5c24.667 0 43.334 -4 56.001 -12s23.334 -17 32.001 -27l-3 -14l7 41h100v-290h-106v54l6 -17
c-0.666992 0 -4.5 -3.66699 -11.5 -11s-16.833 -14.666 -29.5 -21.999s-28.667 -11 -48 -11zM184.998 511.997c8 0 14.833 1.5 20.5 4.5s10.834 7.33301 15.501 13s8.66699 12.5 12 20.5v61c-4 12.667 -10.167 22.5 -18.5 29.5s-18.833 10.5 -31.5 10.5
c-14.667 0 -26.834 -6.33301 -36.501 -19s-14.5 -29 -14.5 -49c0 -13.333 2.33301 -25.333 7 -36s11 -19.167 19 -25.5s17 -9.5 27 -9.5z" />
    <glyph glyph-name="guillemotleft" unicode="&#xab;" horiz-adv-x="609" 
d="M15 244l18.5 14.5l47.5 38l61 49.5l61 49.5l47.5 38l18.5 14.5v-125l-14 -12l-33 -27.5l-33 -27.5l-14 -12l14 -12l33 -28.5l33 -28.5l14 -12v-124zM265 244l18.5 14.5l47.5 38l61 49.5l61 49.5l47.5 38l18.5 14.5v-125l-14 -12l-33 -27.5l-33 -27.5l-14 -12l14 -12
l33 -28.5l33 -28.5l14 -12v-124z" />
    <glyph glyph-name="logicalnot" unicode="&#xac;" horiz-adv-x="467" 
d="M50 329h367v-238h-145v98h-222v140z" />
    <glyph glyph-name="uni00AD" unicode="&#xad;" horiz-adv-x="600" 
d="M54 290h188v-122h-188v122z" />
    <glyph glyph-name="registered" unicode="&#xae;" horiz-adv-x="566" 
d="M283 230c-46.667 0 -89.667 11 -129 33s-70.666 52 -93.999 90s-35 81 -35 129c0 48.667 11.667 92 35 130s54.666 68 93.999 90s82.333 33 129 33c47.333 0 90.5 -11 129.5 -33s70.167 -52 93.5 -90s35 -81.333 35 -130c0 -48 -11.667 -91 -35 -129s-54.5 -68 -93.5 -90
s-82.167 -33 -129.5 -33zM283 305c33.333 0 63.333 7.66699 90 23s47.667 36.333 63 63s23 57 23 91c0 34.667 -7.66699 65.334 -23 92.001s-36.333 47.667 -63 63s-56.667 23 -90 23s-63.333 -7.66699 -90 -23s-47.667 -36.333 -63 -63s-23 -57.334 -23 -92.001
c0 -34 7.66699 -64.333 23 -91s36.333 -47.667 63 -63s56.667 -23 90 -23zM192 606l106 -0.000976562c32 0 55.167 -7.33301 69.5 -22s21.5 -34.667 21.5 -60c0 -19.333 -6.83301 -38.166 -20.5 -56.499s-34.5 -27.5 -62.5 -27.5h-39v-77h-75v243zM284 496.999
c10 0 16.667 2.33301 20 7s5 10.667 5 18c0 6 -1.5 12.167 -4.5 18.5s-9.83301 9.5 -20.5 9.5h-17v-53h17zM347 456.999l40 -94h-86l-31 92z" />
    <glyph glyph-name="macron" unicode="&#xaf;" horiz-adv-x="355" 
d="M50 556h255v-97h-255v97z" />
    <glyph glyph-name="degree" unicode="&#xb0;" horiz-adv-x="287" 
d="M22 572c0 21.333 5.33301 40.666 16 57.999s25 31.166 43 41.499s38 15.5 60 15.5c21.333 0 40.666 -5.16699 57.999 -15.5s31.166 -24.166 41.499 -41.499s15.5 -36.666 15.5 -57.999s-5.16699 -41 -15.5 -59s-24.166 -32.167 -41.499 -42.5
s-36.666 -15.5 -57.999 -15.5c-22 0 -42 5.16699 -60 15.5s-32.333 24.5 -43 42.5s-16 37.667 -16 59v0zM141 529c11.333 0 21.166 4 29.499 12s12.5 17.667 12.5 29s-4.16699 21.166 -12.5 29.499s-18.166 12.5 -29.499 12.5s-21 -4.16699 -29 -12.5
s-12 -18.166 -12 -29.499s4 -21 12 -29s17.667 -12 29 -12v0z" />
    <glyph glyph-name="plusminus" unicode="&#xb1;" horiz-adv-x="535" 
d="M208 582h127v-124h120v-121h-120v-122h-127v122h-120v121h120v124zM88 183h367v-122h-367v122z" />
    <glyph glyph-name="uni00B2" unicode="&#xb2;" horiz-adv-x="408" 
d="M45 623c13.333 20 35.334 36.4971 66.001 49.4971s62 19.167 94 18.5c47.333 -0.666992 85.666 -13.834 114.999 -39.501s44 -60.167 44 -103.5c0 -30.667 -8 -59.167 -24 -85.5s-36.167 -50.166 -60.5 -71.499s-49 -40.666 -74 -57.999s-46.167 -32.666 -63.5 -45.999
l23 94h213v-116h-316v81c14 6.66699 29.833 15.5 47.5 26.5s34.667 23.667 51 38s30 29.833 41 46.5s16.5 34 16.5 52c0 22.667 -4.16699 39.334 -12.5 50.001s-21.5 16 -39.5 16c-14.667 0 -30 -4.5 -46 -13.5s-27.667 -19.167 -35 -30.5z" />
    <glyph glyph-name="uni00B3" unicode="&#xb3;" horiz-adv-x="376" 
d="M163 260c-30.667 0 -56.168 5.83301 -76.501 17.5s-35.833 22.834 -46.5 33.501l39 81c5.33301 -6 13.833 -14.5 25.5 -25.5s25.834 -16.5 42.501 -16.5c14 0 26.333 4.16699 37 12.5s16 23.166 16 44.499c0 24 -6 40.5 -18 49.5s-26.333 13.5 -43 13.5
c-9.33301 0 -17.5 -0.833008 -24.5 -2.5s-12.167 -3.5 -15.5 -5.5l-7 12l75 126l29 -20h-139v100h258l-103 -204l-90 27c9.33301 8 20 15 32 21s27 9 45 9c19.333 0 38.666 -4.16699 57.999 -12.5s35.666 -21.333 48.999 -39s20 -40.5 20 -68.5s-6.66699 -53.667 -20 -77
s-32.166 -41.833 -56.499 -55.5s-53.166 -20.5 -86.499 -20.5z" />
    <glyph glyph-name="acute" unicode="&#xb4;" horiz-adv-x="317" 
d="M275 624l-148 -135h-85l78 135h155z" />
    <glyph glyph-name="uni00B5" unicode="&#xb5;" horiz-adv-x="584" 
d="M213 -21c-39.333 0 -71.6689 12.832 -97.002 38.499s-38.666 57.834 -39.999 96.501l136 -18v-297h-140v311v327h140v-275c1.33301 -19.333 6.33301 -34.833 15 -46.5s23.334 -17.5 44.001 -17.5s38.5 7 53.5 21s26.667 33.167 35 57.5s12.5 51.833 12.5 82.5v178h140
v-437h-127l-13 87l4 -16c-10 -18 -22.667 -34 -38 -48s-33.5 -24.833 -54.5 -32.5s-44.5 -11.5 -70.5 -11.5z" />
    <glyph glyph-name="paragraph" unicode="&#xb6;" horiz-adv-x="592" 
d="M205 431c-30.667 0 -58.667 7.5 -84 22.5s-45.333 35.167 -60 60.5s-22 53.333 -22 84c0 31.333 7.33301 59.5 22 84.5s34.667 45 60 60s53.333 22.5 84 22.5h291v-765h-124v644h-42v-644h-125v431z" />
    <glyph glyph-name="periodcentered" unicode="&#xb7;" horiz-adv-x="175" 
d="M15 289c0 20.667 7.5 38 22.5 52s31.5 21 49.5 21c16.667 0 32.5 -7 47.5 -21s22.5 -31.333 22.5 -52c0 -22 -7.5 -39.5 -22.5 -52.5s-30.833 -19.5 -47.5 -19.5c-18 0 -34.5 6.5 -49.5 19.5s-22.5 30.5 -22.5 52.5v0z" />
    <glyph glyph-name="cedilla" unicode="&#xb8;" horiz-adv-x="373" 
d="M93 -136c6.66699 -8 15.1689 -14.501 25.502 -19.501s21.833 -7.5 34.5 -7.5c11.333 0 23.166 3 35.499 9s18.5 15 18.5 27c0 7.33301 -3.33301 14.666 -10 21.999s-21 11 -43 11c-10.667 0 -21 -1.16699 -31 -3.5s-19.667 -4.83301 -29 -7.5l-19 66l69 51h107l-77 -86
l-26 35c7.33301 1.33301 14.5 2.33301 21.5 3l20.5 2c37.333 1.33301 68.833 -5.66699 94.5 -21s38.5 -38.666 38.5 -69.999c0 -25.333 -7.5 -46.166 -22.5 -62.499s-34.333 -28.5 -58 -36.5s-48.834 -12 -75.501 -12c-29.333 0 -53.333 4.5 -72 13.5s-33.667 19.5 -45 31.5
z" />
    <glyph glyph-name="uni00B9" unicode="&#xb9;" horiz-adv-x="283" 
d="M25 663h198v-415h-130v290h-68v125z" />
    <glyph glyph-name="ordmasculine" unicode="&#xba;" horiz-adv-x="373" 
d="M25 581c0 30 6.83301 56.501 20.5 79.501s32.834 41.167 57.501 54.5s53 20 85 20c32.667 0 61 -6.66699 85 -20s42.5 -31.5 55.5 -54.5s19.5 -49.5 19.5 -79.5c0 -29.333 -6.5 -55.833 -19.5 -79.5s-31.5 -42.167 -55.5 -55.5s-52.667 -20 -86 -20
c-31.333 0 -59.333 6.16699 -84 18.5s-43.834 30.166 -57.501 53.499s-20.5 51 -20.5 83zM133 580.001c0 -11.333 2.33301 -21.833 7 -31.5s11 -17.167 19 -22.5s17 -8 27 -8c11.333 0 21 2.66699 29 8s14.167 12.833 18.5 22.5s6.5 20.167 6.5 31.5
c0 12 -2.16699 22.667 -6.5 32s-10.5 16.833 -18.5 22.5s-17.667 8.5 -29 8.5c-10 0 -19 -2.83301 -27 -8.5s-14.333 -13.167 -19 -22.5s-7 -20 -7 -32z" />
    <glyph glyph-name="guillemotright" unicode="&#xbb;" horiz-adv-x="609" 
d="M584 244l-18.5 14.5l-47.5 38l-61 49.5l-61 49.5l-47.5 38l-18.5 14.5v-125l14 -12l33 -27.5l33 -27.5l14 -12l-14 -12l-33 -28.5l-33 -28.5l-14 -12v-124zM334 244l-18.5 14.5l-47.5 38l-61 49.5l-61 49.5l-47.5 38l-18.5 14.5v-125l14 -12l33 -27.5l33 -27.5l14 -12
l-14 -12l-33 -28.5l-33 -28.5l-14 -12v-124z" />
    <glyph glyph-name="onequarter" unicode="&#xbc;" horiz-adv-x="860" 
d="M693 698l-407 -698h-130l407 698h130zM25 663h198v-415h-130v290h-68v125zM840 172v-78h-347l-2 34l213 294h88v-422h-120v278l30 8l-112 -164l-18 50h268z" />
    <glyph glyph-name="onehalf" unicode="&#xbd;" horiz-adv-x="928" 
d="M25 663h198v-415h-130v290h-68v125zM545 348c13.333 20 35.334 36.4971 66.001 49.4971s62 19.167 94 18.5c47.333 -0.666992 85.666 -13.834 114.999 -39.501s44 -60.167 44 -103.5c0 -30.667 -8 -59.167 -24 -85.5s-36.167 -50.166 -60.5 -71.499
s-49 -40.666 -74 -57.999s-46.167 -32.666 -63.5 -45.999l23 94h213v-116h-316v81c14 6.66699 29.833 15.5 47.5 26.5s34.667 23.667 51 38s30 29.833 41 46.5s16.5 34 16.5 52c0 22.667 -4.16699 39.334 -12.5 50.001s-21.5 16 -39.5 16c-14.667 0 -30 -4.5 -46 -13.5
s-27.667 -19.167 -35 -30.5zM672.001 697.997l-407 -698h-130l407 698h130z" />
    <glyph glyph-name="threequarters" unicode="&#xbe;" horiz-adv-x="905" 
d="M173 260c-30.667 0 -56.168 5.83301 -76.501 17.5s-35.833 22.834 -46.5 33.501l39 81c5.33301 -6 13.833 -14.5 25.5 -25.5s25.834 -16.5 42.501 -16.5c14 0 26.333 4.16699 37 12.5s16 23.166 16 44.499c0 24 -6 40.5 -18 49.5s-26.333 13.5 -43 13.5
c-9.33301 0 -17.5 -0.833008 -24.5 -2.5s-12.167 -3.5 -15.5 -5.5l-7 12l75 126l29 -20h-139v100h258l-103 -204l-90 27c9.33301 8 20 15 32 21s27 9 45 9c19.333 0 38.666 -4.16699 57.999 -12.5s35.666 -21.333 48.999 -39s20 -40.5 20 -68.5s-6.66699 -53.667 -20 -77
s-32.166 -41.833 -56.499 -55.5s-53.166 -20.5 -86.499 -20.5zM727.999 698l-407 -698h-130l407 698h130zM854.999 173v-78h-347l-2 34l213 294h88v-422h-120v278l30 8l-112 -164l-18 50h268z" />
    <glyph glyph-name="questiondown" unicode="&#xbf;" horiz-adv-x="452" 
d="M326 342l0.00195312 -52.9971c0 -32.667 -4.16699 -60.334 -12.5 -83.001s-19 -41.834 -32 -57.501s-26.167 -30.167 -39.5 -43.5c-18 -16.667 -34 -33.167 -48 -49.5s-21 -37.833 -21 -64.5c0 -14 3.66699 -26.167 11 -36.5s16.166 -18.333 26.499 -24
s20.5 -8.5 30.5 -8.5c19.333 0 35.5 4.5 48.5 13.5s23.667 20.667 32 35s15.5 28.833 21.5 43.5l115 -54c-4 -12 -11 -27.333 -21 -46s-24.167 -37.334 -42.5 -56.001s-41.333 -34.334 -69 -47.001s-60.834 -19 -99.501 -19c-37.333 0.666992 -71.333 7.33398 -102 20.001
s-55 32.667 -73 60s-27 62.666 -27 105.999c0 36.667 5 66.334 15 89.001s22.333 42 37 58l44 46c12 12 23 24.667 33 38s18 29 24 47s9 39.667 9 65v21h140zM256.002 553.003c24 0 43.667 -6.5 59 -19.5s23 -30.167 23 -51.5c0 -20.667 -7.83301 -38 -23.5 -52
s-35.167 -21 -58.5 -21s-42.5 7 -57.5 21s-22.5 31.333 -22.5 52c0 21.333 7.33301 38.5 22 51.5s34 19.5 58 19.5z" />
    <glyph glyph-name="Agrave" unicode="&#xc0;" horiz-adv-x="696" 
d="M12 0l332 765h8l332 -765h-168l-212 538l105 72l-254 -610h-143zM239 266h221l51 -122h-317zM162 943h155l62 -135h-85z" />
    <glyph glyph-name="Aacute" unicode="&#xc1;" horiz-adv-x="696" 
d="M12 0l332 765h8l332 -765h-168l-212 538l105 72l-254 -610h-143zM239 266h221l51 -122h-317zM534 939l-148 -135h-85l78 135h155z" />
    <glyph glyph-name="Acircumflex" unicode="&#xc2;" horiz-adv-x="696" 
d="M12 0l332 765h8l332 -765h-168l-212 538l105 72l-254 -610h-143zM239 266h221l51 -122h-317zM401 816l-78 74l34 10l-79 -84h-126l185 184h1l189 -184h-126z" />
    <glyph glyph-name="Atilde" unicode="&#xc3;" horiz-adv-x="696" 
d="M12 0l332 765h8l332 -765h-168l-212 538l105 72l-254 -610h-143zM239 266h221l51 -122h-317zM426 843c-22.667 0 -41.667 4.83203 -57 14.499s-29.333 19.5 -42 29.5c-7.33301 6 -14.5 11.333 -21.5 16s-14.5 7 -22.5 7c-8.66699 0 -15.5 -3.33301 -20.5 -10
s-8.16699 -15 -9.5 -25s-1.33301 -20 0 -30h-70c-3.33301 26 -1.16602 50.667 6.50098 74s20 42.333 37 57s38.5 22 64.5 22c16.667 0 31.667 -4.66699 45 -14s25.666 -18.666 36.999 -27.999c9.33301 -8 18 -15 26 -21s16 -9 24 -9c12.667 0 20.167 7.5 22.5 22.5
s3.16602 30.5 2.49902 46.5h70c4.66699 -28.667 3.33398 -54.5 -3.99902 -77.5s-18.833 -41.167 -34.5 -54.5s-33.5 -20 -53.5 -20z" />
    <glyph glyph-name="Adieresis" unicode="&#xc4;" horiz-adv-x="696" 
d="M12 0l332 765h8l332 -765h-168l-212 538l105 72l-254 -610h-143zM239 266h221l51 -122h-317zM170 874c0 21.333 7.5 38.833 22.5 52.5s31.5 20.5 49.5 20.5c16.667 0 32.5 -6.83301 47.5 -20.5s22.5 -31.167 22.5 -52.5s-7.5 -38.666 -22.5 -51.999
s-30.833 -20 -47.5 -20c-18 0 -34.5 6.66699 -49.5 20s-22.5 30.666 -22.5 51.999v0zM370 874c0 21.333 7.5 38.833 22.5 52.5s31.5 20.5 49.5 20.5c16.667 0 32.5 -6.83301 47.5 -20.5s22.5 -31.167 22.5 -52.5s-7.5 -38.666 -22.5 -51.999s-30.833 -20 -47.5 -20
c-18 0 -34.5 6.66699 -49.5 20s-22.5 30.666 -22.5 51.999v0z" />
    <glyph glyph-name="Aring" unicode="&#xc5;" horiz-adv-x="696" 
d="M12 0l332 765h8l332 -765h-168l-212 538l105 72l-254 -610h-143zM239 266h221l51 -122h-317zM240 900c0 32 10.5 57.333 31.5 76s47.833 28 80.5 28c31.333 0 57.666 -9.33301 78.999 -28s32 -44 32 -76c0 -31.333 -10.667 -56.666 -32 -75.999s-47.666 -29 -78.999 -29
c-32 0 -58.667 9.66699 -80 29s-32 44.666 -32 75.999zM313 898c0 -12.667 3.5 -22.667 10.5 -30s16.5 -11 28.5 -11s21.5 3.66699 28.5 11s10.5 17.333 10.5 30c0 14 -3.5 24.5 -10.5 31.5s-16.5 10.5 -28.5 10.5s-21.5 -3.5 -28.5 -10.5s-10.5 -17.5 -10.5 -31.5z" />
    <glyph glyph-name="AE" unicode="&#xc6;" horiz-adv-x="967" 
d="M486 736h412v-140h-267v-159h226v-140h-226v-157h281v-140h-426v736zM501 565c-1.33301 -7.33301 -3.5 -16 -6.5 -26l-4.5 -15l-317 -524h-168l481 736zM272 276h231v-115h-276z" />
    <glyph glyph-name="Ccedilla" unicode="&#xc7;" horiz-adv-x="697" 
d="M647 61c-8 -6.66699 -22.8281 -15.6719 -44.4951 -27.0049s-48.167 -21.333 -79.5 -30s-66 -12.667 -104 -12c-58 1.33301 -109.833 11.833 -155.5 31.5s-84.334 46.5 -116.001 80.5s-55.834 73 -72.501 117s-25 91 -25 141c0 56 8.5 107.333 25.5 154s41.333 87 73 121
s69.5 60.333 113.5 79s92.667 28 146 28c49.333 0 93 -6.66699 131 -20s69 -27.666 93 -42.999l-57 -137c-16.667 12.667 -38.834 25.834 -66.501 39.501s-59.5 20.5 -95.5 20.5c-28 0 -54.833 -5.83301 -80.5 -17.5s-48.334 -28.167 -68.001 -49.5
s-35.167 -46.166 -46.5 -74.499s-17 -59.166 -17 -92.499c0 -35.333 5.16699 -67.666 15.5 -96.999s25.166 -54.5 44.499 -75.5s42.5 -37.167 69.5 -48.5s57.5 -17 91.5 -17c39.333 0 73 6.33301 101 19s49.333 26 64 40zM317.005 -136.005
c6.66699 -8 15.1689 -14.501 25.502 -19.501s21.833 -7.5 34.5 -7.5c11.333 0 23.166 3 35.499 9s18.5 15 18.5 27c0 7.33301 -3.33301 14.666 -10 21.999s-21 11 -43 11c-10.667 0 -21 -1.16699 -31 -3.5s-19.667 -4.83301 -29 -7.5l-19 66l69 51h107l-77 -86l-26 35
c7.33301 1.33301 14.5 2.33301 21.5 3l20.5 2c37.333 1.33301 68.833 -5.66699 94.5 -21s38.5 -38.666 38.5 -69.999c0 -25.333 -7.5 -46.166 -22.5 -62.499s-34.333 -28.5 -58 -36.5s-48.834 -12 -75.501 -12c-29.333 0 -53.333 4.5 -72 13.5s-33.667 19.5 -45 31.5z" />
    <glyph glyph-name="Egrave" unicode="&#xc8;" horiz-adv-x="666" 
d="M95 736h502v-140h-357v-157h316v-140h-316v-159h371v-140h-516v736zM160 923h155l62 -135h-85z" />
    <glyph glyph-name="Eacute" unicode="&#xc9;" horiz-adv-x="666" 
d="M95 736h502v-140h-357v-157h316v-140h-316v-159h371v-140h-516v736zM532 919l-148 -135h-85l78 135h155z" />
    <glyph glyph-name="Ecircumflex" unicode="&#xca;" horiz-adv-x="666" 
d="M95 736h502v-140h-357v-157h316v-140h-316v-159h371v-140h-516v736zM399 796l-78 74l34 10l-79 -84h-126l185 184h1l189 -184h-126z" />
    <glyph glyph-name="Edieresis" unicode="&#xcb;" horiz-adv-x="666" 
d="M95 736h502v-140h-357v-157h316v-140h-316v-159h371v-140h-516v736zM168 854c0 21.333 7.5 38.833 22.5 52.5s31.5 20.5 49.5 20.5c16.667 0 32.5 -6.83301 47.5 -20.5s22.5 -31.167 22.5 -52.5s-7.5 -38.666 -22.5 -51.999s-30.833 -20 -47.5 -20
c-18 0 -34.5 6.66699 -49.5 20s-22.5 30.666 -22.5 51.999v0zM368 854c0 21.333 7.5 38.833 22.5 52.5s31.5 20.5 49.5 20.5c16.667 0 32.5 -6.83301 47.5 -20.5s22.5 -31.167 22.5 -52.5s-7.5 -38.666 -22.5 -51.999s-30.833 -20 -47.5 -20c-18 0 -34.5 6.66699 -49.5 20
s-22.5 30.666 -22.5 51.999v0z" />
    <glyph glyph-name="Igrave" unicode="&#xcc;" horiz-adv-x="335" 
d="M95 736h145v-736h-145v736zM-18 923h155l62 -135h-85z" />
    <glyph glyph-name="Iacute" unicode="&#xcd;" horiz-adv-x="335" 
d="M95 736h145v-736h-145v736zM354 919l-148 -135h-85l78 135h155z" />
    <glyph glyph-name="Icircumflex" unicode="&#xce;" horiz-adv-x="335" 
d="M95 736h145v-736h-145v736zM221 796l-78 74l34 10l-79 -84h-126l185 184h1l189 -184h-126z" />
    <glyph glyph-name="Idieresis" unicode="&#xcf;" horiz-adv-x="335" 
d="M95 736h145v-736h-145v736zM-10 854c0 21.333 7.5 38.833 22.5 52.5s31.5 20.5 49.5 20.5c16.667 0 32.5 -6.83301 47.5 -20.5s22.5 -31.167 22.5 -52.5s-7.5 -38.666 -22.5 -51.999s-30.833 -20 -47.5 -20c-18 0 -34.5 6.66699 -49.5 20s-22.5 30.666 -22.5 51.999v0z
M190 854c0 21.333 7.5 38.833 22.5 52.5s31.5 20.5 49.5 20.5c16.667 0 32.5 -6.83301 47.5 -20.5s22.5 -31.167 22.5 -52.5s-7.5 -38.666 -22.5 -51.999s-30.833 -20 -47.5 -20c-18 0 -34.5 6.66699 -49.5 20s-22.5 30.666 -22.5 51.999v0z" />
    <glyph glyph-name="Eth" unicode="&#xd0;" horiz-adv-x="771" 
d="M95 0l-0.000976562 736.001h220c74 0 137 -11 189 -33s93.833 -51.333 125.5 -88s54.834 -77.667 69.501 -123s22 -91 22 -137c0 -54.667 -9.83301 -103.834 -29.5 -147.501s-46.5 -81 -80.5 -112s-73.333 -54.667 -118 -71s-92 -24.5 -142 -24.5h-256zM239.999 140.001
l85.999 -0.000976562c36.667 0 70 4.83301 100 14.5s55.833 23.834 77.5 42.501s38.334 42.167 50.001 70.5s17.5 60.833 17.5 97.5c0 48 -7.83301 87.167 -23.5 117.5s-35 53.833 -58 70.5s-46.5 28.167 -70.5 34.5s-44.333 9.5 -61 9.5h-118v-457zM19.998 429h315v-130
h-315v130z" />
    <glyph glyph-name="Ntilde" unicode="&#xd1;" horiz-adv-x="853" 
d="M754 -30l-558 504l43 -24l3 -450h-147v765h6l546 -502l-32 14l-3 459h146v-766h-4zM485 803c-22.667 0 -41.667 4.83203 -57 14.499s-29.333 19.5 -42 29.5c-7.33301 6 -14.5 11.333 -21.5 16s-14.5 7 -22.5 7c-8.66699 0 -15.5 -3.33301 -20.5 -10
s-8.16699 -15 -9.5 -25s-1.33301 -20 0 -30h-70c-3.33301 26 -1.16602 50.667 6.50098 74s20 42.333 37 57s38.5 22 64.5 22c16.667 0 31.667 -4.66699 45 -14s25.666 -18.666 36.999 -27.999c9.33301 -8 18 -15 26 -21s16 -9 24 -9c12.667 0 20.167 7.5 22.5 22.5
s3.16602 30.5 2.49902 46.5h70c4.66699 -28.667 3.33398 -54.5 -3.99902 -77.5s-18.833 -41.167 -34.5 -54.5s-33.5 -20 -53.5 -20z" />
    <glyph glyph-name="Ograve" unicode="&#xd2;" horiz-adv-x="852" 
d="M50 367c0 50.667 9.66699 98.667 29 144s46.166 85.5 80.499 120.5s74.166 62.5 119.499 82.5s94 30 146 30c51.333 0 99.666 -10 144.999 -30s85.5 -47.5 120.5 -82.5s62.333 -75.167 82 -120.5s29.5 -93.333 29.5 -144c0 -52 -9.83301 -100.667 -29.5 -146
s-47 -85.166 -82 -119.499s-75.167 -61.166 -120.5 -80.499s-93.666 -29 -144.999 -29c-52 0 -100.667 9.66699 -146 29s-85.166 46.166 -119.499 80.499s-61.166 74.166 -80.499 119.499s-29 94 -29 146zM200 367c0 -32.667 5.83105 -63.167 17.498 -91.5
s28 -53.333 49 -75s45.333 -38.5 73 -50.5s57.834 -18 90.501 -18c31.333 0 60.5 6 87.5 18s50.5 28.833 70.5 50.5s35.667 46.667 47 75s17 58.833 17 91.5c0 33.333 -5.83301 64.333 -17.5 93s-27.667 53.834 -48 75.501s-44.166 38.5 -71.499 50.5s-57 18 -89 18
s-61.667 -6 -89 -18s-51.333 -28.833 -72 -50.5s-36.667 -46.834 -48 -75.501s-17 -59.667 -17 -93zM239.998 913h155l62 -135h-85z" />
    <glyph glyph-name="Oacute" unicode="&#xd3;" horiz-adv-x="852" 
d="M50 367c0 50.667 9.66699 98.667 29 144s46.166 85.5 80.499 120.5s74.166 62.5 119.499 82.5s94 30 146 30c51.333 0 99.666 -10 144.999 -30s85.5 -47.5 120.5 -82.5s62.333 -75.167 82 -120.5s29.5 -93.333 29.5 -144c0 -52 -9.83301 -100.667 -29.5 -146
s-47 -85.166 -82 -119.499s-75.167 -61.166 -120.5 -80.499s-93.666 -29 -144.999 -29c-52 0 -100.667 9.66699 -146 29s-85.166 46.166 -119.499 80.499s-61.166 74.166 -80.499 119.499s-29 94 -29 146zM200 367c0 -32.667 5.83105 -63.167 17.498 -91.5
s28 -53.333 49 -75s45.333 -38.5 73 -50.5s57.834 -18 90.501 -18c31.333 0 60.5 6 87.5 18s50.5 28.833 70.5 50.5s35.667 46.667 47 75s17 58.833 17 91.5c0 33.333 -5.83301 64.333 -17.5 93s-27.667 53.834 -48 75.501s-44.166 38.5 -71.499 50.5s-57 18 -89 18
s-61.667 -6 -89 -18s-51.333 -28.833 -72 -50.5s-36.667 -46.834 -48 -75.501s-17 -59.667 -17 -93zM611.998 909l-148 -135h-85l78 135h155z" />
    <glyph glyph-name="Ocircumflex" unicode="&#xd4;" horiz-adv-x="852" 
d="M50 367c0 50.667 9.66699 98.667 29 144s46.166 85.5 80.499 120.5s74.166 62.5 119.499 82.5s94 30 146 30c51.333 0 99.666 -10 144.999 -30s85.5 -47.5 120.5 -82.5s62.333 -75.167 82 -120.5s29.5 -93.333 29.5 -144c0 -52 -9.83301 -100.667 -29.5 -146
s-47 -85.166 -82 -119.499s-75.167 -61.166 -120.5 -80.499s-93.666 -29 -144.999 -29c-52 0 -100.667 9.66699 -146 29s-85.166 46.166 -119.499 80.499s-61.166 74.166 -80.499 119.499s-29 94 -29 146zM200 367c0 -32.667 5.83105 -63.167 17.498 -91.5
s28 -53.333 49 -75s45.333 -38.5 73 -50.5s57.834 -18 90.501 -18c31.333 0 60.5 6 87.5 18s50.5 28.833 70.5 50.5s35.667 46.667 47 75s17 58.833 17 91.5c0 33.333 -5.83301 64.333 -17.5 93s-27.667 53.834 -48 75.501s-44.166 38.5 -71.499 50.5s-57 18 -89 18
s-61.667 -6 -89 -18s-51.333 -28.833 -72 -50.5s-36.667 -46.834 -48 -75.501s-17 -59.667 -17 -93zM478.998 786l-78 74l34 10l-79 -84h-126l185 184h1l189 -184h-126z" />
    <glyph glyph-name="Otilde" unicode="&#xd5;" horiz-adv-x="852" 
d="M50 367c0 50.667 9.66699 98.667 29 144s46.166 85.5 80.499 120.5s74.166 62.5 119.499 82.5s94 30 146 30c51.333 0 99.666 -10 144.999 -30s85.5 -47.5 120.5 -82.5s62.333 -75.167 82 -120.5s29.5 -93.333 29.5 -144c0 -52 -9.83301 -100.667 -29.5 -146
s-47 -85.166 -82 -119.499s-75.167 -61.166 -120.5 -80.499s-93.666 -29 -144.999 -29c-52 0 -100.667 9.66699 -146 29s-85.166 46.166 -119.499 80.499s-61.166 74.166 -80.499 119.499s-29 94 -29 146zM200 367c0 -32.667 5.83105 -63.167 17.498 -91.5
s28 -53.333 49 -75s45.333 -38.5 73 -50.5s57.834 -18 90.501 -18c31.333 0 60.5 6 87.5 18s50.5 28.833 70.5 50.5s35.667 46.667 47 75s17 58.833 17 91.5c0 33.333 -5.83301 64.333 -17.5 93s-27.667 53.834 -48 75.501s-44.166 38.5 -71.499 50.5s-57 18 -89 18
s-61.667 -6 -89 -18s-51.333 -28.833 -72 -50.5s-36.667 -46.834 -48 -75.501s-17 -59.667 -17 -93zM503.998 813c-22.667 0 -41.667 4.83203 -57 14.499s-29.333 19.5 -42 29.5c-7.33301 6 -14.5 11.333 -21.5 16s-14.5 7 -22.5 7c-8.66699 0 -15.5 -3.33301 -20.5 -10
s-8.16699 -15 -9.5 -25s-1.33301 -20 0 -30h-70c-3.33301 26 -1.16602 50.667 6.50098 74s20 42.333 37 57s38.5 22 64.5 22c16.667 0 31.667 -4.66699 45 -14s25.666 -18.666 36.999 -27.999c9.33301 -8 18 -15 26 -21s16 -9 24 -9c12.667 0 20.167 7.5 22.5 22.5
s3.16602 30.5 2.49902 46.5h70c4.66699 -28.667 3.33398 -54.5 -3.99902 -77.5s-18.833 -41.167 -34.5 -54.5s-33.5 -20 -53.5 -20z" />
    <glyph glyph-name="Odieresis" unicode="&#xd6;" horiz-adv-x="852" 
d="M50 367c0 50.667 9.66699 98.667 29 144s46.166 85.5 80.499 120.5s74.166 62.5 119.499 82.5s94 30 146 30c51.333 0 99.666 -10 144.999 -30s85.5 -47.5 120.5 -82.5s62.333 -75.167 82 -120.5s29.5 -93.333 29.5 -144c0 -52 -9.83301 -100.667 -29.5 -146
s-47 -85.166 -82 -119.499s-75.167 -61.166 -120.5 -80.499s-93.666 -29 -144.999 -29c-52 0 -100.667 9.66699 -146 29s-85.166 46.166 -119.499 80.499s-61.166 74.166 -80.499 119.499s-29 94 -29 146zM200 367c0 -32.667 5.83105 -63.167 17.498 -91.5
s28 -53.333 49 -75s45.333 -38.5 73 -50.5s57.834 -18 90.501 -18c31.333 0 60.5 6 87.5 18s50.5 28.833 70.5 50.5s35.667 46.667 47 75s17 58.833 17 91.5c0 33.333 -5.83301 64.333 -17.5 93s-27.667 53.834 -48 75.501s-44.166 38.5 -71.499 50.5s-57 18 -89 18
s-61.667 -6 -89 -18s-51.333 -28.833 -72 -50.5s-36.667 -46.834 -48 -75.501s-17 -59.667 -17 -93zM247.998 844c0 21.333 7.5 38.833 22.5 52.5s31.5 20.5 49.5 20.5c16.667 0 32.5 -6.83301 47.5 -20.5s22.5 -31.167 22.5 -52.5s-7.5 -38.666 -22.5 -51.999
s-30.833 -20 -47.5 -20c-18 0 -34.5 6.66699 -49.5 20s-22.5 30.666 -22.5 51.999v0zM447.998 844c0 21.333 7.5 38.833 22.5 52.5s31.5 20.5 49.5 20.5c16.667 0 32.5 -6.83301 47.5 -20.5s22.5 -31.167 22.5 -52.5s-7.5 -38.666 -22.5 -51.999s-30.833 -20 -47.5 -20
c-18 0 -34.5 6.66699 -49.5 20s-22.5 30.666 -22.5 51.999v0z" />
    <glyph glyph-name="multiply" unicode="&#xd7;" horiz-adv-x="528" 
d="M287 296l39 40.001l40 40l52 -54l52 -54l-37.5 -38l-37.5 -40c13.333 -12.667 26.333 -25.834 39 -39.501l40 -41.5l-111 -109c-12.667 13.333 -26 26.5 -40 39.5l-41 39.5l-38 -38.5l-38 -38.5l-55 53.5l-53 52.5l39.5 39l39.5 40l-83 82l109 111z" />
    <glyph glyph-name="Oslash" unicode="&#xd8;" horiz-adv-x="858" 
d="M771 675l-603 -698l-92 83l605 699zM50 367c0 50.667 9.66699 98.667 29 144s46.166 85.5 80.499 120.5s74.166 62.5 119.499 82.5s94 30 146 30c51.333 0 99.666 -10 144.999 -30s85.5 -47.5 120.5 -82.5s62.333 -75.167 82 -120.5s29.5 -93.333 29.5 -144
c0 -52 -9.83301 -100.667 -29.5 -146s-47 -85.166 -82 -119.499s-75.167 -61.166 -120.5 -80.499s-93.666 -29 -144.999 -29c-52 0 -100.667 9.66699 -146 29s-85.166 46.166 -119.499 80.499s-61.166 74.166 -80.499 119.499s-29 94 -29 146zM200 367
c0 -32.667 5.83105 -63.167 17.498 -91.5s28 -53.333 49 -75s45.333 -38.5 73 -50.5s57.834 -18 90.501 -18c31.333 0 60.5 6 87.5 18s50.5 28.833 70.5 50.5s35.667 46.667 47 75s17 58.833 17 91.5c0 33.333 -5.83301 64.333 -17.5 93s-27.667 53.834 -48 75.501
s-44.166 38.5 -71.499 50.5s-57 18 -89 18s-61.667 -6 -89 -18s-51.333 -28.833 -72 -50.5s-36.667 -46.834 -48 -75.501s-17 -59.667 -17 -93z" />
    <glyph glyph-name="Ugrave" unicode="&#xd9;" horiz-adv-x="756" 
d="M225 272c0 -23.333 6.99902 -45.666 20.999 -66.999s32.5 -38.666 55.5 -51.999s48.167 -20 75.5 -20c30 0 56.667 6.66699 80 20s41.833 30.666 55.5 51.999s20.5 43.666 20.5 66.999v464h143v-467c0 -54 -13.333 -101.833 -40 -143.5s-62.667 -74.334 -108 -98.001
s-95.666 -35.5 -150.999 -35.5v0c-54.667 0 -104.5 11.833 -149.5 35.5s-80.833 56.334 -107.5 98.001s-40 89.5 -40 143.5v467h145v-464zM191.999 923h155l62 -135h-85z" />
    <glyph glyph-name="Uacute" unicode="&#xda;" horiz-adv-x="756" 
d="M225 272c0 -23.333 6.99902 -45.666 20.999 -66.999s32.5 -38.666 55.5 -51.999s48.167 -20 75.5 -20c30 0 56.667 6.66699 80 20s41.833 30.666 55.5 51.999s20.5 43.666 20.5 66.999v464h143v-467c0 -54 -13.333 -101.833 -40 -143.5s-62.667 -74.334 -108 -98.001
s-95.666 -35.5 -150.999 -35.5v0c-54.667 0 -104.5 11.833 -149.5 35.5s-80.833 56.334 -107.5 98.001s-40 89.5 -40 143.5v467h145v-464zM563.999 919l-148 -135h-85l78 135h155z" />
    <glyph glyph-name="Ucircumflex" unicode="&#xdb;" horiz-adv-x="756" 
d="M225 272c0 -23.333 6.99902 -45.666 20.999 -66.999s32.5 -38.666 55.5 -51.999s48.167 -20 75.5 -20c30 0 56.667 6.66699 80 20s41.833 30.666 55.5 51.999s20.5 43.666 20.5 66.999v464h143v-467c0 -54 -13.333 -101.833 -40 -143.5s-62.667 -74.334 -108 -98.001
s-95.666 -35.5 -150.999 -35.5v0c-54.667 0 -104.5 11.833 -149.5 35.5s-80.833 56.334 -107.5 98.001s-40 89.5 -40 143.5v467h145v-464zM430.999 796l-78 74l34 10l-79 -84h-126l185 184h1l189 -184h-126z" />
    <glyph glyph-name="Udieresis" unicode="&#xdc;" horiz-adv-x="756" 
d="M225 272c0 -23.333 6.99902 -45.666 20.999 -66.999s32.5 -38.666 55.5 -51.999s48.167 -20 75.5 -20c30 0 56.667 6.66699 80 20s41.833 30.666 55.5 51.999s20.5 43.666 20.5 66.999v464h143v-467c0 -54 -13.333 -101.833 -40 -143.5s-62.667 -74.334 -108 -98.001
s-95.666 -35.5 -150.999 -35.5v0c-54.667 0 -104.5 11.833 -149.5 35.5s-80.833 56.334 -107.5 98.001s-40 89.5 -40 143.5v467h145v-464zM199.999 854c0 21.333 7.5 38.833 22.5 52.5s31.5 20.5 49.5 20.5c16.667 0 32.5 -6.83301 47.5 -20.5s22.5 -31.167 22.5 -52.5
s-7.5 -38.666 -22.5 -51.999s-30.833 -20 -47.5 -20c-18 0 -34.5 6.66699 -49.5 20s-22.5 30.666 -22.5 51.999v0zM399.999 854c0 21.333 7.5 38.833 22.5 52.5s31.5 20.5 49.5 20.5c16.667 0 32.5 -6.83301 47.5 -20.5s22.5 -31.167 22.5 -52.5s-7.5 -38.666 -22.5 -51.999
s-30.833 -20 -47.5 -20c-18 0 -34.5 6.66699 -49.5 20s-22.5 30.666 -22.5 51.999v0z" />
    <glyph glyph-name="Yacute" unicode="&#xdd;" horiz-adv-x="722" 
d="M286 229l-271 507h179l190 -382l-43 -3l187 385h179l-276 -507v-229h-145v229zM567 919l-148 -135h-85l78 135h155z" />
    <glyph glyph-name="Thorn" unicode="&#xde;" horiz-adv-x="636" 
d="M348 616c45.333 0 84.167 -5.83203 116.5 -17.499s58.5 -28.334 78.5 -50.001s34.667 -47.667 44 -78s14 -64.5 14 -102.5c0 -30 -4 -60.167 -12 -90.5s-21.167 -57.833 -39.5 -82.5s-43.5 -44.5 -75.5 -59.5s-72 -22.5 -120 -22.5h-109v-113h-150v732h150v-116h103z
M338.001 254.001c19.333 0 36 3 50 9s25.667 14.167 35 24.5s16.333 22 21 35s7 26.833 7 41.5c0 16.667 -3 33.5 -9 50.5s-17.167 31.5 -33.5 43.5s-39.5 18 -69.5 18h-94v-222h93z" />
    <glyph glyph-name="germandbls" unicode="&#xdf;" horiz-adv-x="626" 
d="M105 468c0 42 10.4971 78.1738 31.4971 108.507s48.667 53.666 83 69.999s70.833 24.166 109.5 23.499c45.333 0 83.833 -6.33301 115.5 -19s55.667 -29.834 72 -51.501s24.5 -45.834 24.5 -72.501c0 -26 -5 -50.833 -15 -74.5s-26.333 -41.834 -49 -54.501
c20.667 -10 38.834 -23 54.501 -39s27.834 -37 36.501 -63s13 -59 13 -99c0 -47.333 -8.16699 -86.333 -24.5 -117s-39 -53.334 -68 -68.001s-63.167 -22 -102.5 -22c-32 0 -58 4.5 -78 13.5s-33.333 17.5 -40 25.5l54 84c9.33301 -8 17.833 -13.167 25.5 -15.5
s15.834 -3.5 24.501 -3.5c18 0 31.833 4.83301 41.5 14.5s16.5 23 20.5 40s6 35.833 6 56.5c0 27.333 -3.33301 50.166 -10 68.499s-16.5 31.833 -29.5 40.5s-29.167 12.667 -48.5 12h-6l-1 121c17.333 0 30.833 4.5 40.5 13.5s14.5 20.833 14.5 35.5
c0 13.333 -2.83301 24.5 -8.5 33.5s-13.667 15.667 -24 20s-22.833 6.5 -37.5 6.5c-33.333 0 -55.833 -11.667 -67.5 -35s-17.5 -57.333 -17.5 -102v-419h-140v327h-65v114h65v27z" />
    <glyph glyph-name="agrave" unicode="&#xe0;" horiz-adv-x="614" 
d="M256 -12c-40.667 0 -77.5 8.16602 -110.5 24.499s-59.167 41.5 -78.5 75.5s-29 77.333 -29 130c0 49.333 10 92 30 128s46.333 63.833 79 83.5s67.334 29.5 104.001 29.5c43.333 0 76.166 -7.16699 98.499 -21.5s40.833 -30.166 55.5 -47.499l-6 -17l13 64h130v-437h-140
v95l11 -30c-1.33301 0 -5.33301 -3.83301 -12 -11.5s-16.5 -16.667 -29.5 -27s-29 -19.333 -48 -27s-41.5 -11.5 -67.5 -11.5zM296 101.999c16.667 0 31.666 2.5 44.999 7.5s25 12.333 35 22s18.667 21.834 26 36.501v107c-5.33301 14.667 -13.333 27.167 -24 37.5
s-23.334 18.333 -38.001 24s-31 8.5 -49 8.5c-20 0 -38.5 -5.16699 -55.5 -15.5s-30.5 -24.5 -40.5 -42.5s-15 -38.667 -15 -62s5.33301 -44.333 16 -63s24.834 -33.334 42.501 -44.001s36.834 -16 57.501 -16zM150.999 643.999h155l62 -135h-85z" />
    <glyph glyph-name="aacute" unicode="&#xe1;" horiz-adv-x="614" 
d="M256 -12c-40.667 0 -77.5 8.16602 -110.5 24.499s-59.167 41.5 -78.5 75.5s-29 77.333 -29 130c0 49.333 10 92 30 128s46.333 63.833 79 83.5s67.334 29.5 104.001 29.5c43.333 0 76.166 -7.16699 98.499 -21.5s40.833 -30.166 55.5 -47.499l-6 -17l13 64h130v-437h-140
v95l11 -30c-1.33301 0 -5.33301 -3.83301 -12 -11.5s-16.5 -16.667 -29.5 -27s-29 -19.333 -48 -27s-41.5 -11.5 -67.5 -11.5zM296 101.999c16.667 0 31.666 2.5 44.999 7.5s25 12.333 35 22s18.667 21.834 26 36.501v107c-5.33301 14.667 -13.333 27.167 -24 37.5
s-23.334 18.333 -38.001 24s-31 8.5 -49 8.5c-20 0 -38.5 -5.16699 -55.5 -15.5s-30.5 -24.5 -40.5 -42.5s-15 -38.667 -15 -62s5.33301 -44.333 16 -63s24.834 -33.334 42.501 -44.001s36.834 -16 57.501 -16zM473.999 643.999l-148 -135h-85l78 135h155z" />
    <glyph glyph-name="acircumflex" unicode="&#xe2;" horiz-adv-x="614" 
d="M256 -12c-40.667 0 -77.5 8.16602 -110.5 24.499s-59.167 41.5 -78.5 75.5s-29 77.333 -29 130c0 49.333 10 92 30 128s46.333 63.833 79 83.5s67.334 29.5 104.001 29.5c43.333 0 76.166 -7.16699 98.499 -21.5s40.833 -30.166 55.5 -47.499l-6 -17l13 64h130v-437h-140
v95l11 -30c-1.33301 0 -5.33301 -3.83301 -12 -11.5s-16.5 -16.667 -29.5 -27s-29 -19.333 -48 -27s-41.5 -11.5 -67.5 -11.5zM296 101.999c16.667 0 31.666 2.5 44.999 7.5s25 12.333 35 22s18.667 21.834 26 36.501v107c-5.33301 14.667 -13.333 27.167 -24 37.5
s-23.334 18.333 -38.001 24s-31 8.5 -49 8.5c-20 0 -38.5 -5.16699 -55.5 -15.5s-30.5 -24.5 -40.5 -42.5s-15 -38.667 -15 -62s5.33301 -44.333 16 -63s24.834 -33.334 42.501 -44.001s36.834 -16 57.501 -16zM386.999 508.999l-78 74l34 10l-79 -84h-126l185 184h1
l189 -184h-126z" />
    <glyph glyph-name="atilde" unicode="&#xe3;" horiz-adv-x="614" 
d="M256 -12c-40.667 0 -77.5 8.16602 -110.5 24.499s-59.167 41.5 -78.5 75.5s-29 77.333 -29 130c0 49.333 10 92 30 128s46.333 63.833 79 83.5s67.334 29.5 104.001 29.5c43.333 0 76.166 -7.16699 98.499 -21.5s40.833 -30.166 55.5 -47.499l-6 -17l13 64h130v-437h-140
v95l11 -30c-1.33301 0 -5.33301 -3.83301 -12 -11.5s-16.5 -16.667 -29.5 -27s-29 -19.333 -48 -27s-41.5 -11.5 -67.5 -11.5zM296 101.999c16.667 0 31.666 2.5 44.999 7.5s25 12.333 35 22s18.667 21.834 26 36.501v107c-5.33301 14.667 -13.333 27.167 -24 37.5
s-23.334 18.333 -38.001 24s-31 8.5 -49 8.5c-20 0 -38.5 -5.16699 -55.5 -15.5s-30.5 -24.5 -40.5 -42.5s-15 -38.667 -15 -62s5.33301 -44.333 16 -63s24.834 -33.334 42.501 -44.001s36.834 -16 57.501 -16zM405.999 485.999c-22.667 0 -41.667 4.83203 -57 14.499
s-29.333 19.5 -42 29.5c-7.33301 6 -14.5 11.333 -21.5 16s-14.5 7 -22.5 7c-8.66699 0 -15.5 -3.33301 -20.5 -10s-8.16699 -15 -9.5 -25s-1.33301 -20 0 -30h-70c-3.33301 26 -1.16602 50.667 6.50098 74s20 42.333 37 57s38.5 22 64.5 22
c16.667 0 31.667 -4.66699 45 -14s25.666 -18.666 36.999 -27.999c9.33301 -8 18 -15 26 -21s16 -9 24 -9c12.667 0 20.167 7.5 22.5 22.5s3.16602 30.5 2.49902 46.5h70c4.66699 -28.667 3.33398 -54.5 -3.99902 -77.5s-18.833 -41.167 -34.5 -54.5s-33.5 -20 -53.5 -20z
" />
    <glyph glyph-name="adieresis" unicode="&#xe4;" horiz-adv-x="614" 
d="M256 -12c-40.667 0 -77.5 8.16602 -110.5 24.499s-59.167 41.5 -78.5 75.5s-29 77.333 -29 130c0 49.333 10 92 30 128s46.333 63.833 79 83.5s67.334 29.5 104.001 29.5c43.333 0 76.166 -7.16699 98.499 -21.5s40.833 -30.166 55.5 -47.499l-6 -17l13 64h130v-437h-140
v95l11 -30c-1.33301 0 -5.33301 -3.83301 -12 -11.5s-16.5 -16.667 -29.5 -27s-29 -19.333 -48 -27s-41.5 -11.5 -67.5 -11.5zM296 101.999c16.667 0 31.666 2.5 44.999 7.5s25 12.333 35 22s18.667 21.834 26 36.501v107c-5.33301 14.667 -13.333 27.167 -24 37.5
s-23.334 18.333 -38.001 24s-31 8.5 -49 8.5c-20 0 -38.5 -5.16699 -55.5 -15.5s-30.5 -24.5 -40.5 -42.5s-15 -38.667 -15 -62s5.33301 -44.333 16 -63s24.834 -33.334 42.501 -44.001s36.834 -16 57.501 -16zM153.999 561.999c0 21.333 7.5 38.833 22.5 52.5
s31.5 20.5 49.5 20.5c16.667 0 32.5 -6.83301 47.5 -20.5s22.5 -31.167 22.5 -52.5s-7.5 -38.666 -22.5 -51.999s-30.833 -20 -47.5 -20c-18 0 -34.5 6.66699 -49.5 20s-22.5 30.666 -22.5 51.999v0zM353.999 561.999c0 21.333 7.5 38.833 22.5 52.5s31.5 20.5 49.5 20.5
c16.667 0 32.5 -6.83301 47.5 -20.5s22.5 -31.167 22.5 -52.5s-7.5 -38.666 -22.5 -51.999s-30.833 -20 -47.5 -20c-18 0 -34.5 6.66699 -49.5 20s-22.5 30.666 -22.5 51.999v0z" />
    <glyph glyph-name="aring" unicode="&#xe5;" horiz-adv-x="614" 
d="M256 -12c-40.667 0 -77.5 8.16602 -110.5 24.499s-59.167 41.5 -78.5 75.5s-29 77.333 -29 130c0 49.333 10 92 30 128s46.333 63.833 79 83.5s67.334 29.5 104.001 29.5c43.333 0 76.166 -7.16699 98.499 -21.5s40.833 -30.166 55.5 -47.499l-6 -17l13 64h130v-437h-140
v95l11 -30c-1.33301 0 -5.33301 -3.83301 -12 -11.5s-16.5 -16.667 -29.5 -27s-29 -19.333 -48 -27s-41.5 -11.5 -67.5 -11.5zM296 101.999c16.667 0 31.666 2.5 44.999 7.5s25 12.333 35 22s18.667 21.834 26 36.501v107c-5.33301 14.667 -13.333 27.167 -24 37.5
s-23.334 18.333 -38.001 24s-31 8.5 -49 8.5c-20 0 -38.5 -5.16699 -55.5 -15.5s-30.5 -24.5 -40.5 -42.5s-15 -38.667 -15 -62s5.33301 -44.333 16 -63s24.834 -33.334 42.501 -44.001s36.834 -16 57.501 -16zM200.999 585.999c0 32 10.5 57.333 31.5 76s47.833 28 80.5 28
c31.333 0 57.666 -9.33301 78.999 -28s32 -44 32 -76c0 -31.333 -10.667 -56.666 -32 -75.999s-47.666 -29 -78.999 -29c-32 0 -58.667 9.66699 -80 29s-32 44.666 -32 75.999zM273.999 583.999c0 -12.667 3.5 -22.667 10.5 -30s16.5 -11 28.5 -11s21.5 3.66699 28.5 11
s10.5 17.333 10.5 30c0 14 -3.5 24.5 -10.5 31.5s-16.5 10.5 -28.5 10.5s-21.5 -3.5 -28.5 -10.5s-10.5 -17.5 -10.5 -31.5z" />
    <glyph glyph-name="ae" unicode="&#xe6;" horiz-adv-x="849" 
d="M210 -11c-39.333 0 -71.665 5.83398 -96.998 17.501s-44.166 28 -56.499 49s-18.5 45.167 -18.5 72.5c0 28 9 52.167 27 72.5s41.667 36 71 47s60.333 16.5 93 16.5c29.333 0 58.166 -3.5 86.499 -10.5s49.833 -14.833 64.5 -23.5l-22 -80
c-18.667 9.33301 -34 15.666 -46 18.999s-28.667 5 -50 5c-14 0 -26.333 -1.5 -37 -4.5s-18.834 -7.66699 -24.501 -14s-8.5 -14.5 -8.5 -24.5c0 -14.667 5.33301 -26 16 -34s24.667 -12 42 -12c12.667 0 25.167 2.5 37.5 7.5s23.833 11.333 34.5 19s19 15.5 25 23.5v38h52
v-100c-13.333 -18 -29.333 -33.167 -48 -45.5s-39.834 -21.833 -63.501 -28.5s-49.5 -10 -77.5 -10zM334.001 227.001l-0.000976562 36.001c0 22 -5.66699 38.833 -17 50.5s-23.833 19.667 -37.5 24s-24.167 6.5 -31.5 6.5c-26.667 0 -49.667 -7.16699 -69 -21.5
s-33.666 -28.5 -42.999 -42.5l-70 88c22 23.333 49.5 44.166 82.5 62.499s72.833 27.5 119.5 27.5c36 0 69.167 -5.83301 99.5 -17.5s54.833 -29 73.5 -52s28 -52.167 28 -87.5v-20zM583 -11.998c-53.333 0 -98.4971 9.99902 -135.497 29.999s-65.167 47.667 -84.5 83
s-29 76 -29 122c0 44 11.333 83.667 34 119s53 63.5 91 84.5s80.333 31.5 127 31.5c62.667 0 114.167 -18.167 154.5 -54.5s66.5 -88.833 78.5 -157.5l-340 -108l-31 76l246 83l-29 -13c-5.33301 17.333 -14.833 32.5 -28.5 45.5s-34.167 19.5 -61.5 19.5
c-20.667 0 -38.834 -4.83301 -54.501 -14.5s-27.667 -23.334 -36 -41.001s-12.5 -38.5 -12.5 -62.5c0 -27.333 5 -50.166 15 -68.499s23.667 -32.166 41 -41.499s36.666 -14 57.999 -14c15.333 0 30.166 2.66699 44.499 8s28.5 12.333 42.5 21l62 -104
c-23.333 -13.333 -48.5 -24 -75.5 -32s-52.5 -12 -76.5 -12z" />
    <glyph glyph-name="ccedilla" unicode="&#xe7;" horiz-adv-x="479" 
d="M443 39c-19.333 -15.333 -43.501 -27.666 -72.501 -36.999s-57.5 -14 -85.5 -14c-50 0 -93.5 9.16699 -130.5 27.5s-65.667 44.666 -86 78.999s-30.5 75.833 -30.5 124.5s11 90.167 33 124.5s50.833 60.5 86.5 78.5s73.167 27 112.5 27s73.5 -5.33301 102.5 -16
s53.833 -24.667 74.5 -42l-68 -90c-9.33301 7.33301 -22.166 14.833 -38.499 22.5s-35.5 11.5 -57.5 11.5c-19.333 0 -37 -5 -53 -15s-28.667 -23.667 -38 -41s-14 -37.333 -14 -60c0 -21.333 5 -41 15 -59s23.833 -32.167 41.5 -42.5s38.5 -15.5 62.5 -15.5
c15.333 0 29.5 2.16699 42.5 6.5s24.167 10.5 33.5 18.5zM156.999 -136c6.66699 -8 15.1689 -14.501 25.502 -19.501s21.833 -7.5 34.5 -7.5c11.333 0 23.166 3 35.499 9s18.5 15 18.5 27c0 7.33301 -3.33301 14.666 -10 21.999s-21 11 -43 11
c-10.667 0 -21 -1.16699 -31 -3.5s-19.667 -4.83301 -29 -7.5l-19 66l69 51h107l-77 -86l-26 35c7.33301 1.33301 14.5 2.33301 21.5 3l20.5 2c37.333 1.33301 68.833 -5.66699 94.5 -21s38.5 -38.666 38.5 -69.999c0 -25.333 -7.5 -46.166 -22.5 -62.499
s-34.333 -28.5 -58 -36.5s-48.834 -12 -75.501 -12c-29.333 0 -53.333 4.5 -72 13.5s-33.667 19.5 -45 31.5z" />
    <glyph glyph-name="egrave" unicode="&#xe8;" horiz-adv-x="553" 
d="M287 -12c-53.333 0 -98.4971 9.99902 -135.497 29.999s-65.167 47.667 -84.5 83s-29 76 -29 122c0 44 11.333 83.667 34 119s53 63.5 91 84.5s80.333 31.5 127 31.5c62.667 0 114.167 -18.167 154.5 -54.5s66.5 -88.833 78.5 -157.5l-340 -108l-31 76l246 83l-29 -13
c-5.33301 17.333 -14.833 32.5 -28.5 45.5s-34.167 19.5 -61.5 19.5c-20.667 0 -38.834 -4.83301 -54.501 -14.5s-27.667 -23.334 -36 -41.001s-12.5 -38.5 -12.5 -62.5c0 -27.333 5 -50.166 15 -68.499s23.667 -32.166 41 -41.499s36.666 -14 57.999 -14
c15.333 0 30.166 2.66699 44.499 8s28.5 12.333 42.5 21l62 -104c-23.333 -13.333 -48.5 -24 -75.5 -32s-52.5 -12 -76.5 -12zM114.003 644.999h155l62 -135h-85z" />
    <glyph glyph-name="eacute" unicode="&#xe9;" horiz-adv-x="553" 
d="M287 -12c-53.333 0 -98.4971 9.99902 -135.497 29.999s-65.167 47.667 -84.5 83s-29 76 -29 122c0 44 11.333 83.667 34 119s53 63.5 91 84.5s80.333 31.5 127 31.5c62.667 0 114.167 -18.167 154.5 -54.5s66.5 -88.833 78.5 -157.5l-340 -108l-31 76l246 83l-29 -13
c-5.33301 17.333 -14.833 32.5 -28.5 45.5s-34.167 19.5 -61.5 19.5c-20.667 0 -38.834 -4.83301 -54.501 -14.5s-27.667 -23.334 -36 -41.001s-12.5 -38.5 -12.5 -62.5c0 -27.333 5 -50.166 15 -68.499s23.667 -32.166 41 -41.499s36.666 -14 57.999 -14
c15.333 0 30.166 2.66699 44.499 8s28.5 12.333 42.5 21l62 -104c-23.333 -13.333 -48.5 -24 -75.5 -32s-52.5 -12 -76.5 -12zM437.003 644.999l-148 -135h-85l78 135h155z" />
    <glyph glyph-name="ecircumflex" unicode="&#xea;" horiz-adv-x="553" 
d="M287 -12c-53.333 0 -98.4971 9.99902 -135.497 29.999s-65.167 47.667 -84.5 83s-29 76 -29 122c0 44 11.333 83.667 34 119s53 63.5 91 84.5s80.333 31.5 127 31.5c62.667 0 114.167 -18.167 154.5 -54.5s66.5 -88.833 78.5 -157.5l-340 -108l-31 76l246 83l-29 -13
c-5.33301 17.333 -14.833 32.5 -28.5 45.5s-34.167 19.5 -61.5 19.5c-20.667 0 -38.834 -4.83301 -54.501 -14.5s-27.667 -23.334 -36 -41.001s-12.5 -38.5 -12.5 -62.5c0 -27.333 5 -50.166 15 -68.499s23.667 -32.166 41 -41.499s36.666 -14 57.999 -14
c15.333 0 30.166 2.66699 44.499 8s28.5 12.333 42.5 21l62 -104c-23.333 -13.333 -48.5 -24 -75.5 -32s-52.5 -12 -76.5 -12zM350.003 509.999l-78 74l34 10l-79 -84h-126l185 184h1l189 -184h-126z" />
    <glyph glyph-name="edieresis" unicode="&#xeb;" horiz-adv-x="553" 
d="M287 -12c-53.333 0 -98.4971 9.99902 -135.497 29.999s-65.167 47.667 -84.5 83s-29 76 -29 122c0 44 11.333 83.667 34 119s53 63.5 91 84.5s80.333 31.5 127 31.5c62.667 0 114.167 -18.167 154.5 -54.5s66.5 -88.833 78.5 -157.5l-340 -108l-31 76l246 83l-29 -13
c-5.33301 17.333 -14.833 32.5 -28.5 45.5s-34.167 19.5 -61.5 19.5c-20.667 0 -38.834 -4.83301 -54.501 -14.5s-27.667 -23.334 -36 -41.001s-12.5 -38.5 -12.5 -62.5c0 -27.333 5 -50.166 15 -68.499s23.667 -32.166 41 -41.499s36.666 -14 57.999 -14
c15.333 0 30.166 2.66699 44.499 8s28.5 12.333 42.5 21l62 -104c-23.333 -13.333 -48.5 -24 -75.5 -32s-52.5 -12 -76.5 -12zM117.003 562.999c0 21.333 7.5 38.833 22.5 52.5s31.5 20.5 49.5 20.5c16.667 0 32.5 -6.83301 47.5 -20.5s22.5 -31.167 22.5 -52.5
s-7.5 -38.666 -22.5 -51.999s-30.833 -20 -47.5 -20c-18 0 -34.5 6.66699 -49.5 20s-22.5 30.666 -22.5 51.999v0zM317.003 562.999c0 21.333 7.5 38.833 22.5 52.5s31.5 20.5 49.5 20.5c16.667 0 32.5 -6.83301 47.5 -20.5s22.5 -31.167 22.5 -52.5
s-7.5 -38.666 -22.5 -51.999s-30.833 -20 -47.5 -20c-18 0 -34.5 6.66699 -49.5 20s-22.5 30.666 -22.5 51.999v0z" />
    <glyph glyph-name="igrave" unicode="&#xec;" horiz-adv-x="284" 
d="M72 437h140v-437h-140v437zM-32 624h155l62 -135h-85z" />
    <glyph glyph-name="iacute" unicode="&#xed;" horiz-adv-x="284" 
d="M72 437h140v-437h-140v437zM291 624l-148 -135h-85l78 135h155z" />
    <glyph glyph-name="icircumflex" unicode="&#xee;" horiz-adv-x="284" 
d="M72 437h140v-437h-140v437zM204 489l-78 74l34 10l-79 -84h-126l185 184h1l189 -184h-126z" />
    <glyph glyph-name="idieresis" unicode="&#xef;" horiz-adv-x="284" 
d="M72 437h140v-437h-140v437zM-29 542c0 21.333 7.5 38.833 22.5 52.5s31.5 20.5 49.5 20.5c16.667 0 32.5 -6.83301 47.5 -20.5s22.5 -31.167 22.5 -52.5s-7.5 -38.666 -22.5 -51.999s-30.833 -20 -47.5 -20c-18 0 -34.5 6.66699 -49.5 20s-22.5 30.666 -22.5 51.999v0z
M171 542c0 21.333 7.5 38.833 22.5 52.5s31.5 20.5 49.5 20.5c16.667 0 32.5 -6.83301 47.5 -20.5s22.5 -31.167 22.5 -52.5s-7.5 -38.666 -22.5 -51.999s-30.833 -20 -47.5 -20c-18 0 -34.5 6.66699 -49.5 20s-22.5 30.666 -22.5 51.999v0z" />
    <glyph glyph-name="eth" unicode="&#xf0;" horiz-adv-x="571" 
d="M273 -12c-43.333 0 -82.8281 9.33105 -118.495 27.998s-64 45.667 -85 81s-31.5 77.666 -31.5 126.999c0 44.667 9.5 84.667 28.5 120s44.667 63.166 77 83.499s68.5 30.5 108.5 30.5c31.333 0 59 -7.16699 83 -21.5s44.167 -33.166 60.5 -56.499
s28.666 -48.666 36.999 -75.999s12.5 -54 12.5 -80l-53 30c0 56 -4.83301 104.667 -14.5 146s-24.334 78.333 -44.001 111s-44.334 63.834 -74.001 93.501s-64.5 60.5 -104.5 92.5l104 92c40 -26 76.833 -58 110.5 -96s62.667 -80 87 -126s43.166 -94.333 56.499 -145
s20 -101.334 20 -152.001c0 -34 -5.33301 -67.667 -16 -101s-26.834 -63.666 -48.501 -90.999s-48.667 -49.166 -81 -65.499s-70.5 -24.5 -114.5 -24.5zM285.005 101.998c22 0 41 5.33301 57 16s28.333 25.167 37 43.5s13 38.833 13 61.5c0 23.333 -4.33301 44 -13 62
s-21 32.333 -37 43s-35 16 -57 16c-20 0 -38 -5.33301 -54 -16s-28.667 -25 -38 -43s-14 -38.667 -14 -62c0 -22.667 4.66699 -43.167 14 -61.5s22 -32.833 38 -43.5s34 -16 54 -16zM492.005 666.998l-278 -170l-45 93l278 170z" />
    <glyph glyph-name="ntilde" unicode="&#xf1;" horiz-adv-x="594" 
d="M199 437l11.001 -78l-2 7c15.333 27.333 37 49.5 65 66.5s62.333 25.5 103 25.5c41.333 0 75.833 -12.167 103.5 -36.5s41.834 -55.833 42.501 -94.5v-327h-140v275c-0.666992 19.333 -5.83398 34.833 -15.501 46.5s-25.834 17.5 -48.501 17.5c-21.333 0 -40 -7 -56 -21
s-28.333 -33 -37 -57s-13 -51.667 -13 -83v-178h-140v437h127zM376.001 476c-22.667 0 -41.667 4.83203 -57 14.499s-29.333 19.5 -42 29.5c-7.33301 6 -14.5 11.333 -21.5 16s-14.5 7 -22.5 7c-8.66699 0 -15.5 -3.33301 -20.5 -10s-8.16699 -15 -9.5 -25
s-1.33301 -20 0 -30h-70c-3.33301 26 -1.16602 50.667 6.50098 74s20 42.333 37 57s38.5 22 64.5 22c16.667 0 31.667 -4.66699 45 -14s25.666 -18.666 36.999 -27.999c9.33301 -8 18 -15 26 -21s16 -9 24 -9c12.667 0 20.167 7.5 22.5 22.5s3.16602 30.5 2.49902 46.5h70
c4.66699 -28.667 3.33398 -54.5 -3.99902 -77.5s-18.833 -41.167 -34.5 -54.5s-33.5 -20 -53.5 -20z" />
    <glyph glyph-name="ograve" unicode="&#xf2;" horiz-adv-x="571" 
d="M38 224c0 44.667 10.5 84.6699 31.5 120.003s50.5 63.166 88.5 83.499s81.667 30.5 131 30.5c50 0 93.333 -10.167 130 -30.5s64.834 -48.166 84.501 -83.499s29.5 -75.333 29.5 -120s-9.83301 -84.834 -29.5 -120.501s-47.834 -63.834 -84.501 -84.501
s-80.667 -31 -132 -31c-48 0 -90.833 9.33301 -128.5 28s-67.167 45.667 -88.5 81s-32 77.666 -32 126.999zM179 223.003c0 -22.667 4.66699 -43.167 14 -61.5s22 -32.833 38 -43.5s34 -16 54 -16c22 0 41 5.33301 57 16s28.333 25.167 37 43.5s13 38.833 13 61.5
c0 23.333 -4.33301 44 -13 62s-21 32.333 -37 43s-35 16 -57 16c-20 0 -38 -5.33301 -54 -16s-28.667 -25 -38 -43s-14 -38.667 -14 -62zM110 644.003h155l62 -135h-85z" />
    <glyph glyph-name="oacute" unicode="&#xf3;" horiz-adv-x="571" 
d="M38 224c0 44.667 10.5 84.6699 31.5 120.003s50.5 63.166 88.5 83.499s81.667 30.5 131 30.5c50 0 93.333 -10.167 130 -30.5s64.834 -48.166 84.501 -83.499s29.5 -75.333 29.5 -120s-9.83301 -84.834 -29.5 -120.501s-47.834 -63.834 -84.501 -84.501
s-80.667 -31 -132 -31c-48 0 -90.833 9.33301 -128.5 28s-67.167 45.667 -88.5 81s-32 77.666 -32 126.999zM179 223.003c0 -22.667 4.66699 -43.167 14 -61.5s22 -32.833 38 -43.5s34 -16 54 -16c22 0 41 5.33301 57 16s28.333 25.167 37 43.5s13 38.833 13 61.5
c0 23.333 -4.33301 44 -13 62s-21 32.333 -37 43s-35 16 -57 16c-20 0 -38 -5.33301 -54 -16s-28.667 -25 -38 -43s-14 -38.667 -14 -62zM433 644.003l-148 -135h-85l78 135h155z" />
    <glyph glyph-name="ocircumflex" unicode="&#xf4;" horiz-adv-x="571" 
d="M38 224c0 44.667 10.5 84.6699 31.5 120.003s50.5 63.166 88.5 83.499s81.667 30.5 131 30.5c50 0 93.333 -10.167 130 -30.5s64.834 -48.166 84.501 -83.499s29.5 -75.333 29.5 -120s-9.83301 -84.834 -29.5 -120.501s-47.834 -63.834 -84.501 -84.501
s-80.667 -31 -132 -31c-48 0 -90.833 9.33301 -128.5 28s-67.167 45.667 -88.5 81s-32 77.666 -32 126.999zM179 223.003c0 -22.667 4.66699 -43.167 14 -61.5s22 -32.833 38 -43.5s34 -16 54 -16c22 0 41 5.33301 57 16s28.333 25.167 37 43.5s13 38.833 13 61.5
c0 23.333 -4.33301 44 -13 62s-21 32.333 -37 43s-35 16 -57 16c-20 0 -38 -5.33301 -54 -16s-28.667 -25 -38 -43s-14 -38.667 -14 -62zM346 509.003l-78 74l34 10l-79 -84h-126l185 184h1l189 -184h-126z" />
    <glyph glyph-name="otilde" unicode="&#xf5;" horiz-adv-x="571" 
d="M38 224c0 44.667 10.5 84.6699 31.5 120.003s50.5 63.166 88.5 83.499s81.667 30.5 131 30.5c50 0 93.333 -10.167 130 -30.5s64.834 -48.166 84.501 -83.499s29.5 -75.333 29.5 -120s-9.83301 -84.834 -29.5 -120.501s-47.834 -63.834 -84.501 -84.501
s-80.667 -31 -132 -31c-48 0 -90.833 9.33301 -128.5 28s-67.167 45.667 -88.5 81s-32 77.666 -32 126.999zM179 223.003c0 -22.667 4.66699 -43.167 14 -61.5s22 -32.833 38 -43.5s34 -16 54 -16c22 0 41 5.33301 57 16s28.333 25.167 37 43.5s13 38.833 13 61.5
c0 23.333 -4.33301 44 -13 62s-21 32.333 -37 43s-35 16 -57 16c-20 0 -38 -5.33301 -54 -16s-28.667 -25 -38 -43s-14 -38.667 -14 -62zM365 486.003c-22.667 0 -41.667 4.83203 -57 14.499s-29.333 19.5 -42 29.5c-7.33301 6 -14.5 11.333 -21.5 16s-14.5 7 -22.5 7
c-8.66699 0 -15.5 -3.33301 -20.5 -10s-8.16699 -15 -9.5 -25s-1.33301 -20 0 -30h-70c-3.33301 26 -1.16602 50.667 6.50098 74s20 42.333 37 57s38.5 22 64.5 22c16.667 0 31.667 -4.66699 45 -14s25.666 -18.666 36.999 -27.999c9.33301 -8 18 -15 26 -21s16 -9 24 -9
c12.667 0 20.167 7.5 22.5 22.5s3.16602 30.5 2.49902 46.5h70c4.66699 -28.667 3.33398 -54.5 -3.99902 -77.5s-18.833 -41.167 -34.5 -54.5s-33.5 -20 -53.5 -20z" />
    <glyph glyph-name="odieresis" unicode="&#xf6;" horiz-adv-x="571" 
d="M38 224c0 44.667 10.5 84.6699 31.5 120.003s50.5 63.166 88.5 83.499s81.667 30.5 131 30.5c50 0 93.333 -10.167 130 -30.5s64.834 -48.166 84.501 -83.499s29.5 -75.333 29.5 -120s-9.83301 -84.834 -29.5 -120.501s-47.834 -63.834 -84.501 -84.501
s-80.667 -31 -132 -31c-48 0 -90.833 9.33301 -128.5 28s-67.167 45.667 -88.5 81s-32 77.666 -32 126.999zM179 223.003c0 -22.667 4.66699 -43.167 14 -61.5s22 -32.833 38 -43.5s34 -16 54 -16c22 0 41 5.33301 57 16s28.333 25.167 37 43.5s13 38.833 13 61.5
c0 23.333 -4.33301 44 -13 62s-21 32.333 -37 43s-35 16 -57 16c-20 0 -38 -5.33301 -54 -16s-28.667 -25 -38 -43s-14 -38.667 -14 -62zM113 562.003c0 21.333 7.5 38.833 22.5 52.5s31.5 20.5 49.5 20.5c16.667 0 32.5 -6.83301 47.5 -20.5s22.5 -31.167 22.5 -52.5
s-7.5 -38.666 -22.5 -51.999s-30.833 -20 -47.5 -20c-18 0 -34.5 6.66699 -49.5 20s-22.5 30.666 -22.5 51.999v0zM313 562.003c0 21.333 7.5 38.833 22.5 52.5s31.5 20.5 49.5 20.5c16.667 0 32.5 -6.83301 47.5 -20.5s22.5 -31.167 22.5 -52.5s-7.5 -38.666 -22.5 -51.999
s-30.833 -20 -47.5 -20c-18 0 -34.5 6.66699 -49.5 20s-22.5 30.666 -22.5 51.999v0z" />
    <glyph glyph-name="divide" unicode="&#xf7;" horiz-adv-x="510" 
d="M184 429c0 20.667 7.5 38 22.5 52s31.5 21 49.5 21c16.667 0 32.5 -7 47.5 -21s22.5 -31.333 22.5 -52c0 -22 -7.5 -39.5 -22.5 -52.5s-30.833 -19.5 -47.5 -19.5c-18 0 -34.5 6.5 -49.5 19.5s-22.5 30.5 -22.5 52.5v0zM184 114c0 20.667 7.5 38 22.5 52s31.5 21 49.5 21
c16.667 0 32.5 -7 47.5 -21s22.5 -31.333 22.5 -52c0 -22 -7.5 -39.5 -22.5 -52.5s-30.833 -19.5 -47.5 -19.5c-18 0 -34.5 6.5 -49.5 19.5s-22.5 30.5 -22.5 52.5v0zM69 329h367v-121h-367v121z" />
    <glyph glyph-name="oslash" unicode="&#xf8;" horiz-adv-x="546" 
d="M518 426l-409 -463l-67 61l406 460zM38 224c0 44.667 10.5 84.6699 31.5 120.003s50.5 63.166 88.5 83.499s81.667 30.5 131 30.5c50 0 93.333 -10.167 130 -30.5s64.834 -48.166 84.501 -83.499s29.5 -75.333 29.5 -120s-9.83301 -84.834 -29.5 -120.501
s-47.834 -63.834 -84.501 -84.501s-80.667 -31 -132 -31c-48 0 -90.833 9.33301 -128.5 28s-67.167 45.667 -88.5 81s-32 77.666 -32 126.999zM179 223.003c0 -22.667 4.66699 -43.167 14 -61.5s22 -32.833 38 -43.5s34 -16 54 -16c22 0 41 5.33301 57 16
s28.333 25.167 37 43.5s13 38.833 13 61.5c0 23.333 -4.33301 44 -13 62s-21 32.333 -37 43s-35 16 -57 16c-20 0 -38 -5.33301 -54 -16s-28.667 -25 -38 -43s-14 -38.667 -14 -62z" />
    <glyph glyph-name="ugrave" unicode="&#xf9;" horiz-adv-x="584" 
d="M213 -21c-39.333 0 -72.334 12.167 -99.001 36.5s-40.667 55.833 -42 94.5v327h140v-275c1.33301 -19.333 6.33301 -34.833 15 -46.5s23.334 -17.5 44.001 -17.5s38.5 7 53.5 21s26.667 33.167 35 57.5s12.5 51.833 12.5 82.5v178h140v-437h-127l-11 80l2 -9
c-10 -18 -22.667 -34 -38 -48s-33.5 -24.833 -54.5 -32.5s-44.5 -11.5 -70.5 -11.5zM117.999 644h155l62 -135h-85z" />
    <glyph glyph-name="uacute" unicode="&#xfa;" horiz-adv-x="584" 
d="M213 -21c-39.333 0 -72.334 12.167 -99.001 36.5s-40.667 55.833 -42 94.5v327h140v-275c1.33301 -19.333 6.33301 -34.833 15 -46.5s23.334 -17.5 44.001 -17.5s38.5 7 53.5 21s26.667 33.167 35 57.5s12.5 51.833 12.5 82.5v178h140v-437h-127l-11 80l2 -9
c-10 -18 -22.667 -34 -38 -48s-33.5 -24.833 -54.5 -32.5s-44.5 -11.5 -70.5 -11.5zM440.999 644l-148 -135h-85l78 135h155z" />
    <glyph glyph-name="ucircumflex" unicode="&#xfb;" horiz-adv-x="584" 
d="M213 -21c-39.333 0 -72.334 12.167 -99.001 36.5s-40.667 55.833 -42 94.5v327h140v-275c1.33301 -19.333 6.33301 -34.833 15 -46.5s23.334 -17.5 44.001 -17.5s38.5 7 53.5 21s26.667 33.167 35 57.5s12.5 51.833 12.5 82.5v178h140v-437h-127l-11 80l2 -9
c-10 -18 -22.667 -34 -38 -48s-33.5 -24.833 -54.5 -32.5s-44.5 -11.5 -70.5 -11.5zM353.999 509l-78 74l34 10l-79 -84h-126l185 184h1l189 -184h-126z" />
    <glyph glyph-name="udieresis" unicode="&#xfc;" horiz-adv-x="584" 
d="M213 -21c-39.333 0 -72.334 12.167 -99.001 36.5s-40.667 55.833 -42 94.5v327h140v-275c1.33301 -19.333 6.33301 -34.833 15 -46.5s23.334 -17.5 44.001 -17.5s38.5 7 53.5 21s26.667 33.167 35 57.5s12.5 51.833 12.5 82.5v178h140v-437h-127l-11 80l2 -9
c-10 -18 -22.667 -34 -38 -48s-33.5 -24.833 -54.5 -32.5s-44.5 -11.5 -70.5 -11.5zM120.999 562c0 21.333 7.5 38.833 22.5 52.5s31.5 20.5 49.5 20.5c16.667 0 32.5 -6.83301 47.5 -20.5s22.5 -31.167 22.5 -52.5s-7.5 -38.666 -22.5 -51.999s-30.833 -20 -47.5 -20
c-18 0 -34.5 6.66699 -49.5 20s-22.5 30.666 -22.5 51.999v0zM320.999 562c0 21.333 7.5 38.833 22.5 52.5s31.5 20.5 49.5 20.5c16.667 0 32.5 -6.83301 47.5 -20.5s22.5 -31.167 22.5 -52.5s-7.5 -38.666 -22.5 -51.999s-30.833 -20 -47.5 -20
c-18 0 -34.5 6.66699 -49.5 20s-22.5 30.666 -22.5 51.999v0z" />
    <glyph glyph-name="yacute" unicode="&#xfd;" horiz-adv-x="534" 
d="M107 -210l291 647h126l-282 -647h-135zM224 -2l-214 439h157l165 -369zM424 624l-148 -135h-85l78 135h155z" />
    <glyph glyph-name="thorn" unicode="&#xfe;" horiz-adv-x="625" 
d="M349 -12c-17.333 0 -34.168 2 -50.501 6s-31.666 9.83301 -45.999 17.5s-27.166 17.5 -38.499 29.5v44v-295h-139v999h140v-427l-11 30c15.333 12.667 31.666 24 48.999 34s36.333 18 57 24s43 9 67 9c40.667 0 77 -9.5 109 -28.5s57.167 -46.333 75.5 -82
s27.5 -78.5 27.5 -128.5c0 -49.333 -10.333 -91.333 -31 -126s-49 -61 -85 -79s-77.333 -27 -124 -27zM320.998 98c22.667 0 43.502 5.16797 62.502 15.501s34.333 24.5 46 42.5s17.5 38.667 17.5 62s-5.33301 44.333 -16 63s-24.834 33.334 -42.501 44.001
s-36.834 16 -57.501 16c-18.667 0 -35.167 -2.5 -49.5 -7.5s-27 -12.333 -38 -22s-20.5 -21.834 -28.5 -36.501v-107c5.33301 -14 13 -26.333 23 -37s22.167 -18.834 36.5 -24.501s29.833 -8.5 46.5 -8.5z" />
    <glyph glyph-name="ydieresis" unicode="&#xff;" horiz-adv-x="534" 
d="M107 -210l291 647h126l-282 -647h-135zM224 -2l-214 439h157l165 -369zM104 542c0 21.333 7.5 38.833 22.5 52.5s31.5 20.5 49.5 20.5c16.667 0 32.5 -6.83301 47.5 -20.5s22.5 -31.167 22.5 -52.5s-7.5 -38.666 -22.5 -51.999s-30.833 -20 -47.5 -20
c-18 0 -34.5 6.66699 -49.5 20s-22.5 30.666 -22.5 51.999v0zM304 542c0 21.333 7.5 38.833 22.5 52.5s31.5 20.5 49.5 20.5c16.667 0 32.5 -6.83301 47.5 -20.5s22.5 -31.167 22.5 -52.5s-7.5 -38.666 -22.5 -51.999s-30.833 -20 -47.5 -20c-18 0 -34.5 6.66699 -49.5 20
s-22.5 30.666 -22.5 51.999v0z" />
    <glyph glyph-name="Amacron" unicode="&#x100;" horiz-adv-x="696" 
d="M12 0l332 765h8l332 -765h-168l-212 538l105 72l-254 -610h-143zM239 266h221l51 -122h-317zM216 907h255v-97h-255v97z" />
    <glyph glyph-name="amacron" unicode="&#x101;" horiz-adv-x="614" 
d="M256 -12c-40.667 0 -77.5 8.16602 -110.5 24.499s-59.167 41.5 -78.5 75.5s-29 77.333 -29 130c0 49.333 10 92 30 128s46.333 63.833 79 83.5s67.334 29.5 104.001 29.5c43.333 0 76.166 -7.16699 98.499 -21.5s40.833 -30.166 55.5 -47.499l-6 -17l13 64h130v-437h-140
v95l11 -30c-1.33301 0 -5.33301 -3.83301 -12 -11.5s-16.5 -16.667 -29.5 -27s-29 -19.333 -48 -27s-41.5 -11.5 -67.5 -11.5zM296 101.999c16.667 0 31.666 2.5 44.999 7.5s25 12.333 35 22s18.667 21.834 26 36.501v107c-5.33301 14.667 -13.333 27.167 -24 37.5
s-23.334 18.333 -38.001 24s-31 8.5 -49 8.5c-20 0 -38.5 -5.16699 -55.5 -15.5s-30.5 -24.5 -40.5 -42.5s-15 -38.667 -15 -62s5.33301 -44.333 16 -63s24.834 -33.334 42.501 -44.001s36.834 -16 57.501 -16zM199.999 585.999h255v-97h-255v97z" />
    <glyph glyph-name="Abreve" unicode="&#x102;" horiz-adv-x="696" 
d="M12 0l332 765h8l332 -765h-168l-212 538l105 72l-254 -610h-143zM239 266h221l51 -122h-317zM348 804c-31.333 0 -58.1699 6.83203 -80.5029 20.499s-40.666 34.334 -54.999 62.001s-25.166 62.5 -32.499 104.5h93c4 -18.667 8.83301 -35.167 14.5 -49.5
s13.334 -25.333 23.001 -33s22.167 -11.5 37.5 -11.5c16 0 28.667 3.83301 38 11.5s16.666 18.667 21.999 33s10 30.833 14 49.5h93c-7.33301 -43.333 -18.166 -78.833 -32.499 -106.5s-32.5 -48 -54.5 -61s-48.667 -19.5 -80 -19.5z" />
    <glyph glyph-name="abreve" unicode="&#x103;" horiz-adv-x="614" 
d="M256 -12c-40.667 0 -77.5 8.16602 -110.5 24.499s-59.167 41.5 -78.5 75.5s-29 77.333 -29 130c0 49.333 10 92 30 128s46.333 63.833 79 83.5s67.334 29.5 104.001 29.5c43.333 0 76.166 -7.16699 98.499 -21.5s40.833 -30.166 55.5 -47.499l-6 -17l13 64h130v-437h-140
v95l11 -30c-1.33301 0 -5.33301 -3.83301 -12 -11.5s-16.5 -16.667 -29.5 -27s-29 -19.333 -48 -27s-41.5 -11.5 -67.5 -11.5zM296 101.999c16.667 0 31.666 2.5 44.999 7.5s25 12.333 35 22s18.667 21.834 26 36.501v107c-5.33301 14.667 -13.333 27.167 -24 37.5
s-23.334 18.333 -38.001 24s-31 8.5 -49 8.5c-20 0 -38.5 -5.16699 -55.5 -15.5s-30.5 -24.5 -40.5 -42.5s-15 -38.667 -15 -62s5.33301 -44.333 16 -63s24.834 -33.334 42.501 -44.001s36.834 -16 57.501 -16zM330.999 489.999c-31.333 0 -58.1699 6.83203 -80.5029 20.499
s-40.666 34.334 -54.999 62.001s-25.166 62.5 -32.499 104.5h93c4 -18.667 8.83301 -35.167 14.5 -49.5s13.334 -25.333 23.001 -33s22.167 -11.5 37.5 -11.5c16 0 28.667 3.83301 38 11.5s16.666 18.667 21.999 33s10 30.833 14 49.5h93
c-7.33301 -43.333 -18.166 -78.833 -32.499 -106.5s-32.5 -48 -54.5 -61s-48.667 -19.5 -80 -19.5z" />
    <glyph glyph-name="Aogonek" unicode="&#x104;" horiz-adv-x="696" 
d="M12 0l332 765h8l332 -765h-168l-212 538l105 72l-254 -610h-143zM239 266h221l51 -122h-317zM587 -232c-40.667 0 -75.167 11.834 -103.5 35.501s-42.5 54.834 -42.5 93.501c0 22 7.33301 43.667 22 65s35.667 37.333 63 48l158 -10
c-38 -14.667 -68.833 -28.834 -92.5 -42.501s-35.5 -30.167 -35.5 -49.5c0 -16.667 4.5 -27.834 13.5 -33.501s19.167 -8.5 30.5 -8.5c13.333 0 26 4 38 12s23.333 20.333 34 37l50 -72c-14.667 -22 -35 -40 -61 -54s-50.667 -21 -74 -21z" />
    <glyph glyph-name="aogonek" unicode="&#x105;" horiz-adv-x="621" 
d="M255 -12c-39.333 0 -75.1719 8.16699 -107.505 24.5s-58 41.5 -77 75.5s-28.5 77.333 -28.5 130c0 49.333 10 92 30 128s46.333 63.833 79 83.5s67.334 29.5 104.001 29.5c29.333 0 53.333 -3.33301 72 -10s34.334 -15.167 47.001 -25.5s23.667 -21.5 33 -33.5l9 47h130
v-437c-30.667 -12.667 -56 -25.834 -76 -39.501s-30 -31.167 -30 -52.5c0 -16.667 4.5 -27.834 13.5 -33.501s19.167 -8.5 30.5 -8.5c13.333 0 26 4 38 12s23.333 20.333 34 37l50 -72c-14.667 -22 -35 -40 -61 -54s-50.667 -21 -74 -21
c-40.667 0 -75.167 11.833 -103.5 35.5s-42.5 54.834 -42.5 93.501c0 22 7.33301 43.667 22 65s35.667 37.333 63 48l12 -17l-16 -19v121l11 -30c-7.33301 -6 -17.666 -15.167 -30.999 -27.5s-30.666 -23.666 -51.999 -33.999s-47.666 -15.5 -78.999 -15.5zM294.994 102
c18 0 33.833 2.5 47.5 7.5s25.834 12.333 36.501 22s19.667 21.834 27 36.501v107c-5.33301 14.667 -13.333 27.167 -24 37.5s-23.334 18.333 -38.001 24s-31 8.5 -49 8.5c-20 0 -38.5 -5.16699 -55.5 -15.5s-30.5 -24.5 -40.5 -42.5s-15 -38.667 -15 -62s5 -44.333 15 -63
s23.5 -33.334 40.5 -44.001s35.5 -16 55.5 -16z" />
    <glyph glyph-name="Cacute" unicode="&#x106;" horiz-adv-x="697" 
d="M647 61c-8 -6.66699 -22.8281 -15.6719 -44.4951 -27.0049s-48.167 -21.333 -79.5 -30s-66 -12.667 -104 -12c-58 1.33301 -109.833 11.833 -155.5 31.5s-84.334 46.5 -116.001 80.5s-55.834 73 -72.501 117s-25 91 -25 141c0 56 8.5 107.333 25.5 154s41.333 87 73 121
s69.5 60.333 113.5 79s92.667 28 146 28c49.333 0 93 -6.66699 131 -20s69 -27.666 93 -42.999l-57 -137c-16.667 12.667 -38.834 25.834 -66.501 39.501s-59.5 20.5 -95.5 20.5c-28 0 -54.833 -5.83301 -80.5 -17.5s-48.334 -28.167 -68.001 -49.5
s-35.167 -46.166 -46.5 -74.499s-17 -59.166 -17 -92.499c0 -35.333 5.16699 -67.666 15.5 -96.999s25.166 -54.5 44.499 -75.5s42.5 -37.167 69.5 -48.5s57.5 -17 91.5 -17c39.333 0 73 6.33301 101 19s49.333 26 64 40zM575.005 918.995l-148 -135h-85l78 135h155z" />
    <glyph glyph-name="cacute" unicode="&#x107;" horiz-adv-x="479" 
d="M443 39c-19.333 -15.333 -43.501 -27.666 -72.501 -36.999s-57.5 -14 -85.5 -14c-50 0 -93.5 9.16699 -130.5 27.5s-65.667 44.666 -86 78.999s-30.5 75.833 -30.5 124.5s11 90.167 33 124.5s50.833 60.5 86.5 78.5s73.167 27 112.5 27s73.5 -5.33301 102.5 -16
s53.833 -24.667 74.5 -42l-68 -90c-9.33301 7.33301 -22.166 14.833 -38.499 22.5s-35.5 11.5 -57.5 11.5c-19.333 0 -37 -5 -53 -15s-28.667 -23.667 -38 -41s-14 -37.333 -14 -60c0 -21.333 5 -41 15 -59s23.833 -32.167 41.5 -42.5s38.5 -15.5 62.5 -15.5
c15.333 0 29.5 2.16699 42.5 6.5s24.167 10.5 33.5 18.5zM402.999 634l-148 -135h-85l78 135h155z" />
    <glyph glyph-name="Ccircumflex" unicode="&#x108;" horiz-adv-x="697" 
d="M647 61c-8 -6.66699 -22.8281 -15.6719 -44.4951 -27.0049s-48.167 -21.333 -79.5 -30s-66 -12.667 -104 -12c-58 1.33301 -109.833 11.833 -155.5 31.5s-84.334 46.5 -116.001 80.5s-55.834 73 -72.501 117s-25 91 -25 141c0 56 8.5 107.333 25.5 154s41.333 87 73 121
s69.5 60.333 113.5 79s92.667 28 146 28c49.333 0 93 -6.66699 131 -20s69 -27.666 93 -42.999l-57 -137c-16.667 12.667 -38.834 25.834 -66.501 39.501s-59.5 20.5 -95.5 20.5c-28 0 -54.833 -5.83301 -80.5 -17.5s-48.334 -28.167 -68.001 -49.5
s-35.167 -46.166 -46.5 -74.499s-17 -59.166 -17 -92.499c0 -35.333 5.16699 -67.666 15.5 -96.999s25.166 -54.5 44.499 -75.5s42.5 -37.167 69.5 -48.5s57.5 -17 91.5 -17c39.333 0 73 6.33301 101 19s49.333 26 64 40zM442.005 795.995l-78 74l34 10l-79 -84h-126
l185 184h1l189 -184h-126z" />
    <glyph glyph-name="ccircumflex" unicode="&#x109;" horiz-adv-x="479" 
d="M443 39c-19.333 -15.333 -43.501 -27.666 -72.501 -36.999s-57.5 -14 -85.5 -14c-50 0 -93.5 9.16699 -130.5 27.5s-65.667 44.666 -86 78.999s-30.5 75.833 -30.5 124.5s11 90.167 33 124.5s50.833 60.5 86.5 78.5s73.167 27 112.5 27s73.5 -5.33301 102.5 -16
s53.833 -24.667 74.5 -42l-68 -90c-9.33301 7.33301 -22.166 14.833 -38.499 22.5s-35.5 11.5 -57.5 11.5c-19.333 0 -37 -5 -53 -15s-28.667 -23.667 -38 -41s-14 -37.333 -14 -60c0 -21.333 5 -41 15 -59s23.833 -32.167 41.5 -42.5s38.5 -15.5 62.5 -15.5
c15.333 0 29.5 2.16699 42.5 6.5s24.167 10.5 33.5 18.5zM315.999 499l-78 74l34 10l-79 -84h-126l185 184h1l189 -184h-126z" />
    <glyph glyph-name="Cdotaccent" unicode="&#x10a;" horiz-adv-x="697" 
d="M647 61c-8 -6.66699 -22.8281 -15.6719 -44.4951 -27.0049s-48.167 -21.333 -79.5 -30s-66 -12.667 -104 -12c-58 1.33301 -109.833 11.833 -155.5 31.5s-84.334 46.5 -116.001 80.5s-55.834 73 -72.501 117s-25 91 -25 141c0 56 8.5 107.333 25.5 154s41.333 87 73 121
s69.5 60.333 113.5 79s92.667 28 146 28c49.333 0 93 -6.66699 131 -20s69 -27.666 93 -42.999l-57 -137c-16.667 12.667 -38.834 25.834 -66.501 39.501s-59.5 20.5 -95.5 20.5c-28 0 -54.833 -5.83301 -80.5 -17.5s-48.334 -28.167 -68.001 -49.5
s-35.167 -46.166 -46.5 -74.499s-17 -59.166 -17 -92.499c0 -35.333 5.16699 -67.666 15.5 -96.999s25.166 -54.5 44.499 -75.5s42.5 -37.167 69.5 -48.5s57.5 -17 91.5 -17c39.333 0 73 6.33301 101 19s49.333 26 64 40zM313.005 850.995c0 20.667 8.16699 37.667 24.5 51
s33.833 20 52.5 20s35.834 -6.66699 51.501 -20s23.5 -30.333 23.5 -51s-7.83301 -37.5 -23.5 -50.5s-32.834 -19.5 -51.501 -19.5s-36.167 6.5 -52.5 19.5s-24.5 29.833 -24.5 50.5z" />
    <glyph glyph-name="cdotaccent" unicode="&#x10b;" horiz-adv-x="479" 
d="M443 39c-19.333 -15.333 -43.501 -27.666 -72.501 -36.999s-57.5 -14 -85.5 -14c-50 0 -93.5 9.16699 -130.5 27.5s-65.667 44.666 -86 78.999s-30.5 75.833 -30.5 124.5s11 90.167 33 124.5s50.833 60.5 86.5 78.5s73.167 27 112.5 27s73.5 -5.33301 102.5 -16
s53.833 -24.667 74.5 -42l-68 -90c-9.33301 7.33301 -22.166 14.833 -38.499 22.5s-35.5 11.5 -57.5 11.5c-19.333 0 -37 -5 -53 -15s-28.667 -23.667 -38 -41s-14 -37.333 -14 -60c0 -21.333 5 -41 15 -59s23.833 -32.167 41.5 -42.5s38.5 -15.5 62.5 -15.5
c15.333 0 29.5 2.16699 42.5 6.5s24.167 10.5 33.5 18.5zM180.999 602c0 20.667 8.16699 37.667 24.5 51s33.833 20 52.5 20s35.834 -6.66699 51.501 -20s23.5 -30.333 23.5 -51s-7.83301 -37.5 -23.5 -50.5s-32.834 -19.5 -51.501 -19.5s-36.167 6.5 -52.5 19.5
s-24.5 29.833 -24.5 50.5z" />
    <glyph glyph-name="Ccaron" unicode="&#x10c;" horiz-adv-x="697" 
d="M647 61c-8 -6.66699 -22.8281 -15.6719 -44.4951 -27.0049s-48.167 -21.333 -79.5 -30s-66 -12.667 -104 -12c-58 1.33301 -109.833 11.833 -155.5 31.5s-84.334 46.5 -116.001 80.5s-55.834 73 -72.501 117s-25 91 -25 141c0 56 8.5 107.333 25.5 154s41.333 87 73 121
s69.5 60.333 113.5 79s92.667 28 146 28c49.333 0 93 -6.66699 131 -20s69 -27.666 93 -42.999l-57 -137c-16.667 12.667 -38.834 25.834 -66.501 39.501s-59.5 20.5 -95.5 20.5c-28 0 -54.833 -5.83301 -80.5 -17.5s-48.334 -28.167 -68.001 -49.5
s-35.167 -46.166 -46.5 -74.499s-17 -59.166 -17 -92.499c0 -35.333 5.16699 -67.666 15.5 -96.999s25.166 -54.5 44.499 -75.5s42.5 -37.167 69.5 -48.5s57.5 -17 91.5 -17c39.333 0 73 6.33301 101 19s49.333 26 64 40zM325.005 956.995l78 -74l-34 -10l79 84h126
l-185 -184h-1l-189 184h126z" />
    <glyph glyph-name="ccaron" unicode="&#x10d;" horiz-adv-x="479" 
d="M443 39c-19.333 -15.333 -43.501 -27.666 -72.501 -36.999s-57.5 -14 -85.5 -14c-50 0 -93.5 9.16699 -130.5 27.5s-65.667 44.666 -86 78.999s-30.5 75.833 -30.5 124.5s11 90.167 33 124.5s50.833 60.5 86.5 78.5s73.167 27 112.5 27s73.5 -5.33301 102.5 -16
s53.833 -24.667 74.5 -42l-68 -90c-9.33301 7.33301 -22.166 14.833 -38.499 22.5s-35.5 11.5 -57.5 11.5c-19.333 0 -37 -5 -53 -15s-28.667 -23.667 -38 -41s-14 -37.333 -14 -60c0 -21.333 5 -41 15 -59s23.833 -32.167 41.5 -42.5s38.5 -15.5 62.5 -15.5
c15.333 0 29.5 2.16699 42.5 6.5s24.167 10.5 33.5 18.5zM204.999 683l78 -74l-34 -10l79 84h126l-185 -184h-1l-189 184h126z" />
    <glyph glyph-name="Dcaron" unicode="&#x10e;" horiz-adv-x="771" 
d="M95 0l-0.000976562 736.001h220c74 0 137 -11 189 -33s93.833 -51.333 125.5 -88s54.834 -77.667 69.501 -123s22 -91 22 -137c0 -54.667 -9.83301 -103.834 -29.5 -147.501s-46.5 -81 -80.5 -112s-73.333 -54.667 -118 -71s-92 -24.5 -142 -24.5h-256zM239.999 140.001
l85.999 -0.000976562c36.667 0 70 4.83301 100 14.5s55.833 23.834 77.5 42.501s38.334 42.167 50.001 70.5s17.5 60.833 17.5 97.5c0 48 -7.83301 87.167 -23.5 117.5s-35 53.833 -58 70.5s-46.5 28.167 -70.5 34.5s-44.333 9.5 -61 9.5h-118v-457zM253.998 937l78 -74
l-34 -10l79 84h126l-185 -184h-1l-189 184h126z" />
    <glyph glyph-name="dcaron" unicode="&#x10f;" horiz-adv-x="737" 
d="M250 -12c-40.667 0 -77 9.5 -109 28.5s-57.167 46.5 -75.5 82.5s-27.5 78.667 -27.5 128s10 91.333 30 126s47.333 61 82 79s74 27 118 27c28 0 54.833 -4.33301 80.5 -13s47.167 -22 64.5 -40v-44v427h139v-789h-140v85l11 -30c-22.667 -18.667 -48 -34.5 -76 -47.5
s-60.333 -19.5 -97 -19.5zM296 106c18.667 0 35.168 2.5 49.501 7.5s27 12.333 38 22s20.5 21.834 28.5 36.501v107c-5.33301 14.667 -13.5 27.167 -24.5 37.5s-24.333 18.333 -40 24s-32.834 8.5 -51.501 8.5c-20.667 0 -39.834 -5.16699 -57.501 -15.5
s-31.834 -24.5 -42.501 -42.5s-16 -38.667 -16 -62s5.33301 -44.333 16 -63s24.834 -33.334 42.501 -44.001s36.834 -16 57.501 -16zM677.001 629l-71.999 28.0039c14.667 13.333 26.667 32.666 36 57.999s11.666 49.666 6.99902 72.999l107 7
c4 -18.667 2.5 -39.334 -4.5 -62.001s-17 -43.334 -30 -62.001s-27.5 -32.667 -43.5 -42v0z" />
    <glyph glyph-name="Dcroat" unicode="&#x110;" horiz-adv-x="785" 
d="M109 0l-0.000976562 736.001h220c74 0 137 -11 189 -33s93.833 -51.333 125.5 -88s54.834 -77.667 69.501 -123s22 -91 22 -137c0 -54.667 -9.83301 -103.834 -29.5 -147.501s-46.5 -81 -80.5 -112s-73.333 -54.667 -118 -71s-92 -24.5 -142 -24.5h-256zM253.999 140.001
l85.999 -0.000976562c36.667 0 70 4.83301 100 14.5s55.833 23.834 77.5 42.501s38.334 42.167 50.001 70.5s17.5 60.833 17.5 97.5c0 48 -7.83301 87.167 -23.5 117.5s-35 53.833 -58 70.5s-46.5 28.167 -70.5 34.5s-44.333 9.5 -61 9.5h-118v-457zM33.998 429h315v-130
h-315v130z" />
    <glyph glyph-name="dcroat" unicode="&#x111;" horiz-adv-x="624" 
d="M250 -12c-40.667 0 -77 9.5 -109 28.5s-57.167 46.5 -75.5 82.5s-27.5 78.667 -27.5 128s10 91.333 30 126s47.333 61 82 79s74 27 118 27c28 0 54.833 -4.33301 80.5 -13s47.167 -22 64.5 -40v-44v427h139v-789h-140v85l11 -30c-22.667 -18.667 -48 -34.5 -76 -47.5
s-60.333 -19.5 -97 -19.5zM296 106c18.667 0 35.168 2.5 49.501 7.5s27 12.333 38 22s20.5 21.834 28.5 36.501v107c-5.33301 14.667 -13.5 27.167 -24.5 37.5s-24.333 18.333 -40 24s-32.834 8.5 -51.501 8.5c-20.667 0 -39.834 -5.16699 -57.501 -15.5
s-31.834 -24.5 -42.501 -42.5s-16 -38.667 -16 -62s5.33301 -44.333 16 -63s24.834 -33.334 42.501 -44.001s36.834 -16 57.501 -16zM317.001 703h315v-130h-315v130z" />
    <glyph glyph-name="Emacron" unicode="&#x112;" horiz-adv-x="666" 
d="M95 736h502v-140h-357v-157h316v-140h-316v-159h371v-140h-516v736zM214 887h255v-97h-255v97z" />
    <glyph glyph-name="emacron" unicode="&#x113;" horiz-adv-x="553" 
d="M287 -12c-53.333 0 -98.4971 9.99902 -135.497 29.999s-65.167 47.667 -84.5 83s-29 76 -29 122c0 44 11.333 83.667 34 119s53 63.5 91 84.5s80.333 31.5 127 31.5c62.667 0 114.167 -18.167 154.5 -54.5s66.5 -88.833 78.5 -157.5l-340 -108l-31 76l246 83l-29 -13
c-5.33301 17.333 -14.833 32.5 -28.5 45.5s-34.167 19.5 -61.5 19.5c-20.667 0 -38.834 -4.83301 -54.501 -14.5s-27.667 -23.334 -36 -41.001s-12.5 -38.5 -12.5 -62.5c0 -27.333 5 -50.166 15 -68.499s23.667 -32.166 41 -41.499s36.666 -14 57.999 -14
c15.333 0 30.166 2.66699 44.499 8s28.5 12.333 42.5 21l62 -104c-23.333 -13.333 -48.5 -24 -75.5 -32s-52.5 -12 -76.5 -12zM163.003 586.999h255v-97h-255v97z" />
    <glyph glyph-name="Ebreve" unicode="&#x114;" horiz-adv-x="666" 
d="M95 736h502v-140h-357v-157h316v-140h-316v-159h371v-140h-516v736zM346 784c-31.333 0 -58.1699 6.83203 -80.5029 20.499s-40.666 34.334 -54.999 62.001s-25.166 62.5 -32.499 104.5h93c4 -18.667 8.83301 -35.167 14.5 -49.5s13.334 -25.333 23.001 -33
s22.167 -11.5 37.5 -11.5c16 0 28.667 3.83301 38 11.5s16.666 18.667 21.999 33s10 30.833 14 49.5h93c-7.33301 -43.333 -18.166 -78.833 -32.499 -106.5s-32.5 -48 -54.5 -61s-48.667 -19.5 -80 -19.5z" />
    <glyph glyph-name="ebreve" unicode="&#x115;" horiz-adv-x="553" 
d="M287 -12c-53.333 0 -98.4971 9.99902 -135.497 29.999s-65.167 47.667 -84.5 83s-29 76 -29 122c0 44 11.333 83.667 34 119s53 63.5 91 84.5s80.333 31.5 127 31.5c62.667 0 114.167 -18.167 154.5 -54.5s66.5 -88.833 78.5 -157.5l-340 -108l-31 76l246 83l-29 -13
c-5.33301 17.333 -14.833 32.5 -28.5 45.5s-34.167 19.5 -61.5 19.5c-20.667 0 -38.834 -4.83301 -54.501 -14.5s-27.667 -23.334 -36 -41.001s-12.5 -38.5 -12.5 -62.5c0 -27.333 5 -50.166 15 -68.499s23.667 -32.166 41 -41.499s36.666 -14 57.999 -14
c15.333 0 30.166 2.66699 44.499 8s28.5 12.333 42.5 21l62 -104c-23.333 -13.333 -48.5 -24 -75.5 -32s-52.5 -12 -76.5 -12zM294.003 490.999c-31.333 0 -58.1699 6.83203 -80.5029 20.499s-40.666 34.334 -54.999 62.001s-25.166 62.5 -32.499 104.5h93
c4 -18.667 8.83301 -35.167 14.5 -49.5s13.334 -25.333 23.001 -33s22.167 -11.5 37.5 -11.5c16 0 28.667 3.83301 38 11.5s16.666 18.667 21.999 33s10 30.833 14 49.5h93c-7.33301 -43.333 -18.166 -78.833 -32.499 -106.5s-32.5 -48 -54.5 -61s-48.667 -19.5 -80 -19.5z
" />
    <glyph glyph-name="Edotaccent" unicode="&#x116;" horiz-adv-x="666" 
d="M95 736h502v-140h-357v-157h316v-140h-316v-159h371v-140h-516v736zM270 851c0 20.667 8.16699 37.667 24.5 51s33.833 20 52.5 20s35.834 -6.66699 51.501 -20s23.5 -30.333 23.5 -51s-7.83301 -37.5 -23.5 -50.5s-32.834 -19.5 -51.501 -19.5s-36.167 6.5 -52.5 19.5
s-24.5 29.833 -24.5 50.5z" />
    <glyph glyph-name="edotaccent" unicode="&#x117;" horiz-adv-x="553" 
d="M287 -12c-53.333 0 -98.4971 9.99902 -135.497 29.999s-65.167 47.667 -84.5 83s-29 76 -29 122c0 44 11.333 83.667 34 119s53 63.5 91 84.5s80.333 31.5 127 31.5c62.667 0 114.167 -18.167 154.5 -54.5s66.5 -88.833 78.5 -157.5l-340 -108l-31 76l246 83l-29 -13
c-5.33301 17.333 -14.833 32.5 -28.5 45.5s-34.167 19.5 -61.5 19.5c-20.667 0 -38.834 -4.83301 -54.501 -14.5s-27.667 -23.334 -36 -41.001s-12.5 -38.5 -12.5 -62.5c0 -27.333 5 -50.166 15 -68.499s23.667 -32.166 41 -41.499s36.666 -14 57.999 -14
c15.333 0 30.166 2.66699 44.499 8s28.5 12.333 42.5 21l62 -104c-23.333 -13.333 -48.5 -24 -75.5 -32s-52.5 -12 -76.5 -12zM215.003 612.999c0 20.667 8.16699 37.667 24.5 51s33.833 20 52.5 20s35.834 -6.66699 51.501 -20s23.5 -30.333 23.5 -51
s-7.83301 -37.5 -23.5 -50.5s-32.834 -19.5 -51.501 -19.5s-36.167 6.5 -52.5 19.5s-24.5 29.833 -24.5 50.5z" />
    <glyph glyph-name="Eogonek" unicode="&#x118;" horiz-adv-x="666" 
d="M95 736h502v-140h-357v-157h316v-140h-316v-159h371v-140h-516v736zM514 -232c-40.667 0 -75.167 11.834 -103.5 35.501s-42.5 54.834 -42.5 93.501c0 22 7.33301 43.667 22 65s35.667 37.333 63 48l158 -10c-38 -14.667 -68.833 -28.834 -92.5 -42.501
s-35.5 -30.167 -35.5 -49.5c0 -16.667 4.5 -27.834 13.5 -33.501s19.167 -8.5 30.5 -8.5c13.333 0 26 4 38 12s23.333 20.333 34 37l50 -72c-14.667 -22 -35 -40 -61 -54s-50.667 -21 -74 -21z" />
    <glyph glyph-name="eogonek" unicode="&#x119;" horiz-adv-x="557" 
d="M322 -232c-46.667 0 -83.498 11.8301 -110.498 35.4971s-40.5 54.834 -40.5 93.501c0 22 7.33301 43.667 22 65s35.667 37.333 63 48l148 22c-6 -8 -16.5 -15.333 -31.5 -22s-30.167 -12 -45.5 -16s-27.333 -6 -36 -6c-53.333 0 -98.5 10 -135.5 30
s-65.167 47.667 -84.5 83s-29 76 -29 122c0 44 11.333 83.667 34 119s53 63.5 91 84.5s80.333 31.5 127 31.5c62.667 0 114.167 -18.167 154.5 -54.5s66.5 -88.833 78.5 -157.5l-340 -108l-31 76l246 83l-29 -13c-5.33301 17.333 -14.833 32.5 -28.5 45.5
s-34.167 19.5 -61.5 19.5c-20.667 0 -38.834 -4.83301 -54.501 -14.5s-27.667 -23.334 -36 -41.001s-12.5 -38.5 -12.5 -62.5c0 -27.333 5 -50.166 15 -68.499s23.667 -32.166 41 -41.499s36.666 -14 57.999 -14c15.333 0 30.166 2.66699 44.499 8s28.5 12.333 42.5 21
l62 -104c-18 -10 -36.333 -18.5 -55 -25.5s-35.667 -14.167 -51 -21.5s-27.666 -16.166 -36.999 -26.499s-14 -23.5 -14 -39.5c0 -16.667 5.33301 -29.667 16 -39s21.667 -14 33 -14c13.333 0 26 4 38 12s23.333 20.333 34 37l50 -72c-14.667 -22 -35 -40 -61 -54
s-50.667 -21 -74 -21z" />
    <glyph glyph-name="Ecaron" unicode="&#x11a;" horiz-adv-x="666" 
d="M95 736h502v-140h-357v-157h316v-140h-316v-159h371v-140h-516v736zM282 957l78 -74l-34 -10l79 84h126l-185 -184h-1l-189 184h126z" />
    <glyph glyph-name="ecaron" unicode="&#x11b;" horiz-adv-x="553" 
d="M287 -12c-53.333 0 -98.4971 9.99902 -135.497 29.999s-65.167 47.667 -84.5 83s-29 76 -29 122c0 44 11.333 83.667 34 119s53 63.5 91 84.5s80.333 31.5 127 31.5c62.667 0 114.167 -18.167 154.5 -54.5s66.5 -88.833 78.5 -157.5l-340 -108l-31 76l246 83l-29 -13
c-5.33301 17.333 -14.833 32.5 -28.5 45.5s-34.167 19.5 -61.5 19.5c-20.667 0 -38.834 -4.83301 -54.501 -14.5s-27.667 -23.334 -36 -41.001s-12.5 -38.5 -12.5 -62.5c0 -27.333 5 -50.166 15 -68.499s23.667 -32.166 41 -41.499s36.666 -14 57.999 -14
c15.333 0 30.166 2.66699 44.499 8s28.5 12.333 42.5 21l62 -104c-23.333 -13.333 -48.5 -24 -75.5 -32s-52.5 -12 -76.5 -12zM239.003 693.999l78 -74l-34 -10l79 84h126l-185 -184h-1l-189 184h126z" />
    <glyph glyph-name="Gcircumflex" unicode="&#x11c;" horiz-adv-x="762" 
d="M692 74c-8.66699 -9.33301 -22.333 -18.834 -41 -28.501s-40.167 -18.5 -64.5 -26.5s-49.166 -14.5 -74.499 -19.5s-49.333 -7.5 -72 -7.5c-60 0 -114 8.83301 -162 26.5s-89 42.334 -123 74.001s-60 69.167 -78 112.5s-27 90.666 -27 141.999
c0 67.333 10.167 125.833 30.5 175.5s48 91 83 124s75.333 57.5 121 73.5s93.5 24 143.5 24c47.333 0 90.666 -5.16699 129.999 -15.5s72.666 -23.166 99.999 -38.499l-47 -135c-12 6.66699 -28 13.334 -48 20.001s-40.333 12.167 -61 16.5s-39 6.5 -55 6.5
c-40 0 -75.333 -5 -106 -15s-56.5 -25 -77.5 -45s-36.833 -44.833 -47.5 -74.5s-16 -64.167 -16 -103.5c0 -34.667 6 -65.834 18 -93.501s28.833 -51.167 50.5 -70.5s47.334 -34 77.001 -44s62.5 -15 98.5 -15c20.667 0 39.667 1.5 57 4.5s32 7.83301 44 14.5v89h-127v140
h274v-311zM464.001 775.999l-78 74l34 10l-79 -84h-126l185 184h1l189 -184h-126z" />
    <glyph glyph-name="gcircumflex" unicode="&#x11d;" horiz-adv-x="633" 
d="M298 -220c-39.333 0 -72.4971 4.66602 -99.4971 13.999s-49.833 20.666 -68.5 33.999s-35.334 26 -50.001 38l82 96c15.333 -14 33.166 -27.5 53.499 -40.5s47.166 -19.5 80.499 -19.5c22 0 42.5 3.83301 61.5 11.5s34.333 18.834 46 33.501s17.5 33 17.5 55v96l5 -25
c-10.667 -22.667 -30 -42.5 -58 -59.5s-64.667 -25.5 -110 -25.5c-39.333 0 -75.833 10.167 -109.5 30.5s-60.5 48 -80.5 83s-30 74.833 -30 119.5c0 46 10.667 86.833 32 122.5s49 63.834 83 84.501s70 31 108 31s70.833 -5.5 98.5 -16.5s48.5 -24.5 62.5 -40.5l-5 -13
l15 48h129v-437c0 -42.667 -12 -80.5 -36 -113.5s-55.833 -59 -95.5 -78s-83.5 -28.5 -131.5 -28.5zM179.003 224.999c0 -23.333 5.33301 -44.333 16 -63s25.167 -33.334 43.5 -44.001s38.833 -16 61.5 -16c19.333 0 36.5 2.5 51.5 7.5s28.333 12.333 40 22
s21.5 21.834 29.5 36.501v107c-6 14.667 -15 27.167 -27 37.5s-25.833 18.333 -41.5 24s-33.167 8.5 -52.5 8.5c-22.667 0 -43.167 -5.16699 -61.5 -15.5s-32.833 -24.5 -43.5 -42.5s-16 -38.667 -16 -62zM376.003 508.999l-78 74l34 10l-79 -84h-126l185 184h1l189 -184
h-126z" />
    <glyph glyph-name="Gbreve" unicode="&#x11e;" horiz-adv-x="762" 
d="M692 74c-8.66699 -9.33301 -22.333 -18.834 -41 -28.501s-40.167 -18.5 -64.5 -26.5s-49.166 -14.5 -74.499 -19.5s-49.333 -7.5 -72 -7.5c-60 0 -114 8.83301 -162 26.5s-89 42.334 -123 74.001s-60 69.167 -78 112.5s-27 90.666 -27 141.999
c0 67.333 10.167 125.833 30.5 175.5s48 91 83 124s75.333 57.5 121 73.5s93.5 24 143.5 24c47.333 0 90.666 -5.16699 129.999 -15.5s72.666 -23.166 99.999 -38.499l-47 -135c-12 6.66699 -28 13.334 -48 20.001s-40.333 12.167 -61 16.5s-39 6.5 -55 6.5
c-40 0 -75.333 -5 -106 -15s-56.5 -25 -77.5 -45s-36.833 -44.833 -47.5 -74.5s-16 -64.167 -16 -103.5c0 -34.667 6 -65.834 18 -93.501s28.833 -51.167 50.5 -70.5s47.334 -34 77.001 -44s62.5 -15 98.5 -15c20.667 0 39.667 1.5 57 4.5s32 7.83301 44 14.5v89h-127v140
h274v-311zM411.001 763.999c-31.333 0 -58.1699 6.83203 -80.5029 20.499s-40.666 34.334 -54.999 62.001s-25.166 62.5 -32.499 104.5h93c4 -18.667 8.83301 -35.167 14.5 -49.5s13.334 -25.333 23.001 -33s22.167 -11.5 37.5 -11.5c16 0 28.667 3.83301 38 11.5
s16.666 18.667 21.999 33s10 30.833 14 49.5h93c-7.33301 -43.333 -18.166 -78.833 -32.499 -106.5s-32.5 -48 -54.5 -61s-48.667 -19.5 -80 -19.5z" />
    <glyph glyph-name="gbreve" unicode="&#x11f;" horiz-adv-x="633" 
d="M298 -220c-39.333 0 -72.4971 4.66602 -99.4971 13.999s-49.833 20.666 -68.5 33.999s-35.334 26 -50.001 38l82 96c15.333 -14 33.166 -27.5 53.499 -40.5s47.166 -19.5 80.499 -19.5c22 0 42.5 3.83301 61.5 11.5s34.333 18.834 46 33.501s17.5 33 17.5 55v96l5 -25
c-10.667 -22.667 -30 -42.5 -58 -59.5s-64.667 -25.5 -110 -25.5c-39.333 0 -75.833 10.167 -109.5 30.5s-60.5 48 -80.5 83s-30 74.833 -30 119.5c0 46 10.667 86.833 32 122.5s49 63.834 83 84.501s70 31 108 31s70.833 -5.5 98.5 -16.5s48.5 -24.5 62.5 -40.5l-5 -13
l15 48h129v-437c0 -42.667 -12 -80.5 -36 -113.5s-55.833 -59 -95.5 -78s-83.5 -28.5 -131.5 -28.5zM179.003 224.999c0 -23.333 5.33301 -44.333 16 -63s25.167 -33.334 43.5 -44.001s38.833 -16 61.5 -16c19.333 0 36.5 2.5 51.5 7.5s28.333 12.333 40 22
s21.5 21.834 29.5 36.501v107c-6 14.667 -15 27.167 -27 37.5s-25.833 18.333 -41.5 24s-33.167 8.5 -52.5 8.5c-22.667 0 -43.167 -5.16699 -61.5 -15.5s-32.833 -24.5 -43.5 -42.5s-16 -38.667 -16 -62zM320.003 489.999c-31.333 0 -58.1699 6.83203 -80.5029 20.499
s-40.666 34.334 -54.999 62.001s-25.166 62.5 -32.499 104.5h93c4 -18.667 8.83301 -35.167 14.5 -49.5s13.334 -25.333 23.001 -33s22.167 -11.5 37.5 -11.5c16 0 28.667 3.83301 38 11.5s16.666 18.667 21.999 33s10 30.833 14 49.5h93
c-7.33301 -43.333 -18.166 -78.833 -32.499 -106.5s-32.5 -48 -54.5 -61s-48.667 -19.5 -80 -19.5z" />
    <glyph glyph-name="Gdotaccent" unicode="&#x120;" horiz-adv-x="762" 
d="M692 74c-8.66699 -9.33301 -22.333 -18.834 -41 -28.501s-40.167 -18.5 -64.5 -26.5s-49.166 -14.5 -74.499 -19.5s-49.333 -7.5 -72 -7.5c-60 0 -114 8.83301 -162 26.5s-89 42.334 -123 74.001s-60 69.167 -78 112.5s-27 90.666 -27 141.999
c0 67.333 10.167 125.833 30.5 175.5s48 91 83 124s75.333 57.5 121 73.5s93.5 24 143.5 24c47.333 0 90.666 -5.16699 129.999 -15.5s72.666 -23.166 99.999 -38.499l-47 -135c-12 6.66699 -28 13.334 -48 20.001s-40.333 12.167 -61 16.5s-39 6.5 -55 6.5
c-40 0 -75.333 -5 -106 -15s-56.5 -25 -77.5 -45s-36.833 -44.833 -47.5 -74.5s-16 -64.167 -16 -103.5c0 -34.667 6 -65.834 18 -93.501s28.833 -51.167 50.5 -70.5s47.334 -34 77.001 -44s62.5 -15 98.5 -15c20.667 0 39.667 1.5 57 4.5s32 7.83301 44 14.5v89h-127v140
h274v-311zM335.001 830.999c0 20.667 8.16699 37.667 24.5 51s33.833 20 52.5 20s35.834 -6.66699 51.501 -20s23.5 -30.333 23.5 -51s-7.83301 -37.5 -23.5 -50.5s-32.834 -19.5 -51.501 -19.5s-36.167 6.5 -52.5 19.5s-24.5 29.833 -24.5 50.5z" />
    <glyph glyph-name="gdotaccent" unicode="&#x121;" horiz-adv-x="633" 
d="M298 -220c-39.333 0 -72.4971 4.66602 -99.4971 13.999s-49.833 20.666 -68.5 33.999s-35.334 26 -50.001 38l82 96c15.333 -14 33.166 -27.5 53.499 -40.5s47.166 -19.5 80.499 -19.5c22 0 42.5 3.83301 61.5 11.5s34.333 18.834 46 33.501s17.5 33 17.5 55v96l5 -25
c-10.667 -22.667 -30 -42.5 -58 -59.5s-64.667 -25.5 -110 -25.5c-39.333 0 -75.833 10.167 -109.5 30.5s-60.5 48 -80.5 83s-30 74.833 -30 119.5c0 46 10.667 86.833 32 122.5s49 63.834 83 84.501s70 31 108 31s70.833 -5.5 98.5 -16.5s48.5 -24.5 62.5 -40.5l-5 -13
l15 48h129v-437c0 -42.667 -12 -80.5 -36 -113.5s-55.833 -59 -95.5 -78s-83.5 -28.5 -131.5 -28.5zM179.003 224.999c0 -23.333 5.33301 -44.333 16 -63s25.167 -33.334 43.5 -44.001s38.833 -16 61.5 -16c19.333 0 36.5 2.5 51.5 7.5s28.333 12.333 40 22
s21.5 21.834 29.5 36.501v107c-6 14.667 -15 27.167 -27 37.5s-25.833 18.333 -41.5 24s-33.167 8.5 -52.5 8.5c-22.667 0 -43.167 -5.16699 -61.5 -15.5s-32.833 -24.5 -43.5 -42.5s-16 -38.667 -16 -62zM241.003 611.999c0 20.667 8.16699 37.667 24.5 51
s33.833 20 52.5 20s35.834 -6.66699 51.501 -20s23.5 -30.333 23.5 -51s-7.83301 -37.5 -23.5 -50.5s-32.834 -19.5 -51.501 -19.5s-36.167 6.5 -52.5 19.5s-24.5 29.833 -24.5 50.5z" />
    <glyph glyph-name="uni0122" unicode="&#x122;" horiz-adv-x="762" 
d="M692 74c-8.66699 -9.33301 -22.333 -18.834 -41 -28.501s-40.167 -18.5 -64.5 -26.5s-49.166 -14.5 -74.499 -19.5s-49.333 -7.5 -72 -7.5c-60 0 -114 8.83301 -162 26.5s-89 42.334 -123 74.001s-60 69.167 -78 112.5s-27 90.666 -27 141.999
c0 67.333 10.167 125.833 30.5 175.5s48 91 83 124s75.333 57.5 121 73.5s93.5 24 143.5 24c47.333 0 90.666 -5.16699 129.999 -15.5s72.666 -23.166 99.999 -38.499l-47 -135c-12 6.66699 -28 13.334 -48 20.001s-40.333 12.167 -61 16.5s-39 6.5 -55 6.5
c-40 0 -75.333 -5 -106 -15s-56.5 -25 -77.5 -45s-36.833 -44.833 -47.5 -74.5s-16 -64.167 -16 -103.5c0 -34.667 6 -65.834 18 -93.501s28.833 -51.167 50.5 -70.5s47.334 -34 77.001 -44s62.5 -15 98.5 -15c20.667 0 39.667 1.5 57 4.5s32 7.83301 44 14.5v89h-127v140
h274v-311zM356.001 -234.001l-71.999 48.002c14.667 14 25.167 34.5 31.5 61.5s7.16602 52.167 2.49902 75.5l122 -1c4 -18.667 2.83301 -39.834 -3.5 -63.501s-16.333 -46.334 -30 -68.001s-30.5 -39.167 -50.5 -52.5z" />
    <glyph glyph-name="uni0123" unicode="&#x123;" horiz-adv-x="598" 
d="M225 507l44.5 105.5l43.5 104.5h112l-39.5 -104.5l-39.5 -105.5h-121zM298 -220c-39.333 0 -72.4971 4.66602 -99.4971 13.999s-49.833 20.666 -68.5 33.999s-35.334 26 -50.001 38l82 96c15.333 -14 33.166 -27.5 53.499 -40.5s47.166 -19.5 80.499 -19.5
c22 0 42.5 3.83301 61.5 11.5s34.333 18.834 46 33.501s17.5 33 17.5 55v96l5 -25c-10.667 -22.667 -30 -42.5 -58 -59.5s-64.667 -25.5 -110 -25.5c-39.333 0 -75.833 10.167 -109.5 30.5s-60.5 48 -80.5 83s-30 74.833 -30 119.5c0 46 10.667 86.833 32 122.5
s49 63.834 83 84.501s70 31 108 31s70.833 -5.5 98.5 -16.5s48.5 -24.5 62.5 -40.5l-5 -13l15 48h129v-437c0 -42.667 -12 -80.5 -36 -113.5s-55.833 -59 -95.5 -78s-83.5 -28.5 -131.5 -28.5zM179.003 224.999c0 -23.333 5.33301 -44.333 16 -63
s25.167 -33.334 43.5 -44.001s38.833 -16 61.5 -16c19.333 0 36.5 2.5 51.5 7.5s28.333 12.333 40 22s21.5 21.834 29.5 36.501v107c-6 14.667 -15 27.167 -27 37.5s-25.833 18.333 -41.5 24s-33.167 8.5 -52.5 8.5c-22.667 0 -43.167 -5.16699 -61.5 -15.5
s-32.833 -24.5 -43.5 -42.5s-16 -38.667 -16 -62z" />
    <glyph glyph-name="Hcircumflex" unicode="&#x124;" horiz-adv-x="809" 
d="M714 736v-736h-145v299h-329v-299h-145v736h145v-297h329v297h145zM458 776l-78 74l34 10l-79 -84h-126l185 184h1l189 -184h-126z" />
    <glyph glyph-name="hcircumflex" unicode="&#x125;" horiz-adv-x="594" 
d="M72 0l0.000976562 789h137v-440l-1 17c15.333 27.333 37 49.5 65 66.5s62.333 25.5 103 25.5c41.333 0 75.833 -12.167 103.5 -36.5s41.834 -55.833 42.501 -94.5v-327h-140v275c-0.666992 19.333 -5.83398 34.833 -15.501 46.5s-25.834 17.5 -48.501 17.5
c-21.333 0 -40 -7 -56 -21s-28.333 -33 -37 -57s-13 -51.667 -13 -83v-178h-140zM194.001 829l-78 74l34 10l-79 -84h-126l185 184h1l189 -184h-126z" />
    <glyph glyph-name="Hbar" unicode="&#x126;" horiz-adv-x="975" 
d="M95 606h785v-107h-785v107zM806 736v-736h-145v299h-329v-299h-145v736h145v-297h329v297h145z" />
    <glyph glyph-name="hbar" unicode="&#x127;" horiz-adv-x="594" 
d="M72 0l0.000976562 789h137v-440l-1 17c15.333 27.333 37 49.5 65 66.5s62.333 25.5 103 25.5c41.333 0 75.833 -12.167 103.5 -36.5s41.834 -55.833 42.501 -94.5v-327h-140v275c-0.666992 19.333 -5.83398 34.833 -15.501 46.5s-25.834 17.5 -48.501 17.5
c-21.333 0 -40 -7 -56 -21s-28.333 -33 -37 -57s-13 -51.667 -13 -83v-178h-140zM-5.99902 686h315v-130h-315v130z" />
    <glyph glyph-name="Itilde" unicode="&#x128;" horiz-adv-x="335" 
d="M95 736h145v-736h-145v736zM246 823c-22.667 0 -41.667 4.83203 -57 14.499s-29.333 19.5 -42 29.5c-7.33301 6 -14.5 11.333 -21.5 16s-14.5 7 -22.5 7c-8.66699 0 -15.5 -3.33301 -20.5 -10s-8.16699 -15 -9.5 -25s-1.33301 -20 0 -30h-70
c-3.33301 26 -1.16602 50.667 6.50098 74s20 42.333 37 57s38.5 22 64.5 22c16.667 0 31.667 -4.66699 45 -14s25.666 -18.666 36.999 -27.999c9.33301 -8 18 -15 26 -21s16 -9 24 -9c12.667 0 20.167 7.5 22.5 22.5s3.16602 30.5 2.49902 46.5h70
c4.66699 -28.667 3.33398 -54.5 -3.99902 -77.5s-18.833 -41.167 -34.5 -54.5s-33.5 -20 -53.5 -20z" />
    <glyph glyph-name="itilde" unicode="&#x129;" horiz-adv-x="284" 
d="M72 437h140v-437h-140v437zM223 466c-22.667 0 -41.667 4.83203 -57 14.499s-29.333 19.5 -42 29.5c-7.33301 6 -14.5 11.333 -21.5 16s-14.5 7 -22.5 7c-8.66699 0 -15.5 -3.33301 -20.5 -10s-8.16699 -15 -9.5 -25s-1.33301 -20 0 -30h-70
c-3.33301 26 -1.16602 50.667 6.50098 74s20 42.333 37 57s38.5 22 64.5 22c16.667 0 31.667 -4.66699 45 -14s25.666 -18.666 36.999 -27.999c9.33301 -8 18 -15 26 -21s16 -9 24 -9c12.667 0 20.167 7.5 22.5 22.5s3.16602 30.5 2.49902 46.5h70
c4.66699 -28.667 3.33398 -54.5 -3.99902 -77.5s-18.833 -41.167 -34.5 -54.5s-33.5 -20 -53.5 -20z" />
    <glyph glyph-name="Imacron" unicode="&#x12a;" horiz-adv-x="335" 
d="M95 736h145v-736h-145v736zM36 887h255v-97h-255v97z" />
    <glyph glyph-name="imacron" unicode="&#x12b;" horiz-adv-x="284" 
d="M72 437h140v-437h-140v437zM17 566h255v-97h-255v97z" />
    <glyph glyph-name="Ibreve" unicode="&#x12c;" horiz-adv-x="335" 
d="M95 736h145v-736h-145v736zM168 784c-31.333 0 -58.1699 6.83203 -80.5029 20.499s-40.666 34.334 -54.999 62.001s-25.166 62.5 -32.499 104.5h93c4 -18.667 8.83301 -35.167 14.5 -49.5s13.334 -25.333 23.001 -33s22.167 -11.5 37.5 -11.5
c16 0 28.667 3.83301 38 11.5s16.666 18.667 21.999 33s10 30.833 14 49.5h93c-7.33301 -43.333 -18.166 -78.833 -32.499 -106.5s-32.5 -48 -54.5 -61s-48.667 -19.5 -80 -19.5z" />
    <glyph glyph-name="ibreve" unicode="&#x12d;" horiz-adv-x="284" 
d="M72 437h140v-437h-140v437zM148 470c-31.333 0 -58.1699 6.83203 -80.5029 20.499s-40.666 34.334 -54.999 62.001s-25.166 62.5 -32.499 104.5h93c4 -18.667 8.83301 -35.167 14.5 -49.5s13.334 -25.333 23.001 -33s22.167 -11.5 37.5 -11.5
c16 0 28.667 3.83301 38 11.5s16.666 18.667 21.999 33s10 30.833 14 49.5h93c-7.33301 -43.333 -18.166 -78.833 -32.499 -106.5s-32.5 -48 -54.5 -61s-48.667 -19.5 -80 -19.5z" />
    <glyph glyph-name="Iogonek" unicode="&#x12e;" horiz-adv-x="285" 
d="M153 -232c-40.667 0 -75.167 10.1689 -103.5 30.502s-42.5 49.833 -42.5 88.5c0 22 7.33301 43.667 22 65s35.667 37.333 63 48l118 6l25 -6c-34 -12.667 -61.333 -25.834 -82 -39.501s-31 -31.167 -31 -52.5c0 -16.667 4.5 -27.834 13.5 -33.501s19.167 -8.5 30.5 -8.5
c13.333 0 26 4 38 12s23.333 20.333 34 37l50 -72c-14.667 -22 -35 -40 -61 -54s-50.667 -21 -74 -21zM95 736.002h145v-736h-145v736z" />
    <glyph glyph-name="iogonek" unicode="&#x12f;" horiz-adv-x="290" 
d="M141 -232c-40.667 0 -75.167 11.833 -103.5 35.5s-42.5 54.834 -42.5 93.501c0 22 7.33301 43.667 22 65s35.667 37.333 63 48h108l26 -10c-31.333 -12.667 -56.5 -25.667 -75.5 -39s-28.5 -31 -28.5 -53c0 -16.667 4.5 -27.834 13.5 -33.501s19.167 -8.5 30.5 -8.5
c13.333 0 26 4 38 12s23.333 20.333 34 37l50 -72c-14.667 -22 -35 -40 -61 -54s-50.667 -21 -74 -21zM72 437h140v-437h-140v437zM67 602c0 20.667 8.16699 37.667 24.5 51s33.833 20 52.5 20s35.834 -6.66699 51.501 -20s23.5 -30.333 23.5 -51
s-7.83301 -37.5 -23.5 -50.5s-32.834 -19.5 -51.501 -19.5s-36.167 6.5 -52.5 19.5s-24.5 29.833 -24.5 50.5z" />
    <glyph glyph-name="Idotaccent" unicode="&#x130;" horiz-adv-x="335" 
d="M95 736h145v-736h-145v736zM92 851c0 20.667 8.16699 37.667 24.5 51s33.833 20 52.5 20s35.834 -6.66699 51.501 -20s23.5 -30.333 23.5 -51s-7.83301 -37.5 -23.5 -50.5s-32.834 -19.5 -51.501 -19.5s-36.167 6.5 -52.5 19.5s-24.5 29.833 -24.5 50.5z" />
    <glyph glyph-name="dotlessi" unicode="&#x131;" horiz-adv-x="284" 
d="M72 437h140v-437h-140v437z" />
    <glyph glyph-name="IJ" unicode="&#x132;" horiz-adv-x="735" 
d="M95 736h145v-736h-145v736zM640 155c0 -64 -12.667 -118.668 -38 -164.001s-60.5 -80.166 -105.5 -104.499s-97.167 -37.5 -156.5 -39.5v0v141c45.333 2.66699 82.333 16.667 111 42s43 68 43 128v578h146v-581z" />
    <glyph glyph-name="ij" unicode="&#x133;" horiz-adv-x="560" 
d="M72 437h140v-437h-140v437zM69 592c0 20.667 8.16699 37.667 24.5 51s33.833 20 52.5 20s35.834 -6.66699 51.501 -20s23.5 -30.333 23.5 -51s-7.83301 -37.5 -23.5 -50.5s-32.834 -19.5 -51.501 -19.5s-36.167 6.5 -52.5 19.5s-24.5 29.833 -24.5 50.5zM355 -211l-81 87
c20 14.667 35.5 32.667 46.5 54s16.5 47.333 16.5 78v429h140v-437c0 -52 -9.33301 -95.167 -28 -129.5s-50 -61.5 -94 -81.5zM332 592c0 20.667 8.16699 37.667 24.5 51s33.833 20 52.5 20s35.834 -6.66699 51.501 -20s23.5 -30.333 23.5 -51s-7.83301 -37.5 -23.5 -50.5
s-32.834 -19.5 -51.501 -19.5s-36.167 6.5 -52.5 19.5s-24.5 29.833 -24.5 50.5z" />
    <glyph glyph-name="Jcircumflex" unicode="&#x134;" horiz-adv-x="400" 
d="M305 155c0 -64 -12.667 -118.668 -38 -164.001s-60.5 -80.166 -105.5 -104.499s-97.167 -37.5 -156.5 -39.5v0v141c45.333 2.66699 82.333 16.667 111 42s43 68 43 128v578h146v-581zM291 795.999l-78 74l34 10l-79 -84h-126l185 184h1l189 -184h-126z" />
    <glyph glyph-name="jcircumflex" unicode="&#x135;" horiz-adv-x="295" 
d="M101 -211l-81 87c20 14.667 35.5 32.667 46.5 54s16.5 47.333 16.5 78v429h140v-437c0 -52 -9.33301 -95.167 -28 -129.5s-50 -61.5 -94 -81.5zM213 489l-78 74l34 10l-79 -84h-126l185 184h1l189 -184h-126z" />
    <glyph glyph-name="uni0136" unicode="&#x136;" horiz-adv-x="704" 
d="M242 474l-4 -37l22 28l240 271h188l-304 -330l305 -406h-184l-227 314l-36 -36v-278h-147v736h147v-262zM305 -234l-71.999 48.002c14.667 14 25.167 34.5 31.5 61.5s7.16602 52.167 2.49902 75.5l122 -1c4 -18.667 2.83301 -39.834 -3.5 -63.501
s-16.333 -46.334 -30 -68.001s-30.5 -39.167 -50.5 -52.5z" />
    <glyph glyph-name="uni0137" unicode="&#x137;" horiz-adv-x="546" 
d="M72 0v789h140v-789h-140zM323 297l198 -297h-163l-127 217zM170 121l-14 133l264 194l85 -75zM248 -214l-71.999 48.002c14.667 14 25.167 34.5 31.5 61.5s7.16602 52.167 2.49902 75.5l122 -1c4 -18.667 2.83301 -39.834 -3.5 -63.501s-16.333 -46.334 -30 -68.001
s-30.5 -39.167 -50.5 -52.5z" />
    <glyph glyph-name="kgreenlandic" unicode="&#x138;" horiz-adv-x="562" 
d="M203 116l-21 123l177 198h168zM212 0h-140v437h140v-437zM330 254l193 -254h-161l-140 194z" />
    <glyph glyph-name="Lacute" unicode="&#x139;" horiz-adv-x="641" 
d="M95 736h145v-596h346v-140h-491v736zM351 919l-148 -135h-85l78 135h155z" />
    <glyph glyph-name="lacute" unicode="&#x13a;" horiz-adv-x="284" 
d="M72 789h140v-789h-140v789zM328 970l-148 -135h-85l78 135h155z" />
    <glyph glyph-name="uni013B" unicode="&#x13b;" horiz-adv-x="641" 
d="M95 736h145v-596h346v-140h-491v736zM303 -234l-71.999 48.002c14.667 14 25.167 34.5 31.5 61.5s7.16602 52.167 2.49902 75.5l122 -1c4 -18.667 2.83301 -39.834 -3.5 -63.501s-16.333 -46.334 -30 -68.001s-30.5 -39.167 -50.5 -52.5z" />
    <glyph glyph-name="uni013C" unicode="&#x13c;" horiz-adv-x="284" 
d="M72 789h140v-789h-140v789zM118 -214l-71.999 48.002c14.667 14 25.167 34.5 31.5 61.5s7.16602 52.167 2.49902 75.5l122 -1c4 -18.667 2.83301 -39.834 -3.5 -63.501s-16.333 -46.334 -30 -68.001s-30.5 -39.167 -50.5 -52.5z" />
    <glyph glyph-name="Lcaron" unicode="&#x13d;" horiz-adv-x="640" 
d="M95 736h145v-596h346v-140h-491v736zM501 559l-71.999 28.0039c14.667 13.333 26.667 32.666 36 57.999s11.666 49.666 6.99902 72.999l107 7c4 -18.667 2.5 -39.334 -4.5 -62.001s-17 -43.334 -30 -62.001s-27.5 -32.667 -43.5 -42v0z" />
    <glyph glyph-name="lcaron" unicode="&#x13e;" horiz-adv-x="397" 
d="M72 789h140v-789h-140v789zM332 619l-71.999 28.0039c14.667 13.333 26.667 32.666 36 57.999s11.666 49.666 6.99902 72.999l107 7c4 -18.667 2.5 -39.334 -4.5 -62.001s-17 -43.334 -30 -62.001s-27.5 -32.667 -43.5 -42v0z" />
    <glyph glyph-name="Ldot" unicode="&#x13f;" horiz-adv-x="634" 
d="M95 736h145v-596h346v-140h-491v736zM447 393c0 20.667 7.5 38 22.5 52s31.5 21 49.5 21c16.667 0 32.5 -7 47.5 -21s22.5 -31.333 22.5 -52c0 -22 -7.5 -39.5 -22.5 -52.5s-30.833 -19.5 -47.5 -19.5c-18 0 -34.5 6.5 -49.5 19.5s-22.5 30.5 -22.5 52.5v0z" />
    <glyph glyph-name="ldot" unicode="&#x140;" horiz-adv-x="401" 
d="M72 789h140v-789h-140v789zM273 339c0 20.667 7.5 38 22.5 52s31.5 21 49.5 21c16.667 0 32.5 -7 47.5 -21s22.5 -31.333 22.5 -52c0 -22 -7.5 -39.5 -22.5 -52.5s-30.833 -19.5 -47.5 -19.5c-18 0 -34.5 6.5 -49.5 19.5s-22.5 30.5 -22.5 52.5v0z" />
    <glyph glyph-name="Lslash" unicode="&#x141;" horiz-adv-x="640" 
d="M411 494l30 -113l-406 -126l-30 113zM95 736h145v-596h346v-140h-491v736z" />
    <glyph glyph-name="lslash" unicode="&#x142;" horiz-adv-x="315" 
d="M300 413v-121l-285 -67v121zM82 789h140v-789h-140v789z" />
    <glyph glyph-name="Nacute" unicode="&#x143;" horiz-adv-x="853" 
d="M754 -30l-558 504l43 -24l3 -450h-147v765h6l546 -502l-32 14l-3 459h146v-766h-4zM593 899l-148 -135h-85l78 135h155z" />
    <glyph glyph-name="nacute" unicode="&#x144;" horiz-adv-x="594" 
d="M199 437l11.001 -78l-2 7c15.333 27.333 37 49.5 65 66.5s62.333 25.5 103 25.5c41.333 0 75.833 -12.167 103.5 -36.5s41.834 -55.833 42.501 -94.5v-327h-140v275c-0.666992 19.333 -5.83398 34.833 -15.501 46.5s-25.834 17.5 -48.501 17.5c-21.333 0 -40 -7 -56 -21
s-28.333 -33 -37 -57s-13 -51.667 -13 -83v-178h-140v437h127zM444.001 634l-148 -135h-85l78 135h155z" />
    <glyph glyph-name="uni0145" unicode="&#x145;" horiz-adv-x="853" 
d="M754 -30l-558 504l43 -24l3 -450h-147v765h6l546 -502l-32 14l-3 459h146v-766h-4zM402 -234l-71.999 48.002c14.667 14 25.167 34.5 31.5 61.5s7.16602 52.167 2.49902 75.5l122 -1c4 -18.667 2.83301 -39.834 -3.5 -63.501s-16.333 -46.334 -30 -68.001
s-30.5 -39.167 -50.5 -52.5z" />
    <glyph glyph-name="uni0146" unicode="&#x146;" horiz-adv-x="594" 
d="M199 437l11.001 -78l-2 7c15.333 27.333 37 49.5 65 66.5s62.333 25.5 103 25.5c41.333 0 75.833 -12.167 103.5 -36.5s41.834 -55.833 42.501 -94.5v-327h-140v275c-0.666992 19.333 -5.83398 34.833 -15.501 46.5s-25.834 17.5 -48.501 17.5c-21.333 0 -40 -7 -56 -21
s-28.333 -33 -37 -57s-13 -51.667 -13 -83v-178h-140v437h127zM273.001 -214l-71.999 48.002c14.667 14 25.167 34.5 31.5 61.5s7.16602 52.167 2.49902 75.5l122 -1c4 -18.667 2.83301 -39.834 -3.5 -63.501s-16.333 -46.334 -30 -68.001s-30.5 -39.167 -50.5 -52.5z" />
    <glyph glyph-name="Ncaron" unicode="&#x147;" horiz-adv-x="853" 
d="M754 -30l-558 504l43 -24l3 -450h-147v765h6l546 -502l-32 14l-3 459h146v-766h-4zM343 937l78 -74l-34 -10l79 84h126l-185 -184h-1l-189 184h126z" />
    <glyph glyph-name="ncaron" unicode="&#x148;" horiz-adv-x="594" 
d="M199 437l11.001 -78l-2 7c15.333 27.333 37 49.5 65 66.5s62.333 25.5 103 25.5c41.333 0 75.833 -12.167 103.5 -36.5s41.834 -55.833 42.501 -94.5v-327h-140v275c-0.666992 19.333 -5.83398 34.833 -15.501 46.5s-25.834 17.5 -48.501 17.5c-21.333 0 -40 -7 -56 -21
s-28.333 -33 -37 -57s-13 -51.667 -13 -83v-178h-140v437h127zM246.001 683l78 -74l-34 -10l79 84h126l-185 -184h-1l-189 184h126z" />
    <glyph glyph-name="napostrophe" unicode="&#x149;" horiz-adv-x="620" 
d="M12 423l-71.999 48.002c14.667 14 25.167 34.5 31.5 61.5s7.16602 52.167 2.49902 75.5l122 -1c4 -18.667 2.83301 -39.834 -3.5 -63.501s-16.333 -46.334 -30 -68.001s-30.5 -39.167 -50.5 -52.5zM225.001 437.002l11.001 -78l-2 7c15.333 27.333 37 49.5 65 66.5
s62.333 25.5 103 25.5c41.333 0 75.833 -12.167 103.5 -36.5s41.834 -55.833 42.501 -94.5v-327h-140v275c-0.666992 19.333 -5.83398 34.833 -15.501 46.5s-25.834 17.5 -48.501 17.5c-21.333 0 -40 -7 -56 -21s-28.333 -33 -37 -57s-13 -51.667 -13 -83v-178h-140v437h127
z" />
    <glyph glyph-name="Eng" unicode="&#x14a;" horiz-adv-x="803" 
d="M729 -30l-558 504l43 -24l3 -450h-147v765h6l546 -502l-32 14l-3 459h146v-732zM733 30v-30c0 -48 -9.83301 -89.667 -29.5 -125s-50.5 -64 -92.5 -86l-80 87c20 14.667 35.5 32.667 46.5 54s16.5 47.333 16.5 78v155z" />
    <glyph glyph-name="eng" unicode="&#x14b;" horiz-adv-x="594" 
d="M522 7c0 -48 -9.83301 -90.833 -29.5 -128.5s-50.5 -67.5 -92.5 -89.5l-80 87c20 14.667 35.333 32.667 46 54s16 47.333 16 78v267c-0.666992 19.333 -5.83398 34.833 -15.501 46.5s-25.834 17.5 -48.501 17.5c-21.333 0 -40 -7 -56 -21s-28.333 -33 -37 -57
s-13 -51.667 -13 -83v-178h-140v437h127l10 -71c15.333 27.333 36.833 49.5 64.5 66.5s61.834 25.5 102.501 25.5c41.333 0 75.833 -12.167 103.5 -36.5s41.834 -55.833 42.501 -94.5v-320z" />
    <glyph glyph-name="Omacron" unicode="&#x14c;" horiz-adv-x="852" 
d="M50 367c0 50.667 9.66699 98.667 29 144s46.166 85.5 80.499 120.5s74.166 62.5 119.499 82.5s94 30 146 30c51.333 0 99.666 -10 144.999 -30s85.5 -47.5 120.5 -82.5s62.333 -75.167 82 -120.5s29.5 -93.333 29.5 -144c0 -52 -9.83301 -100.667 -29.5 -146
s-47 -85.166 -82 -119.499s-75.167 -61.166 -120.5 -80.499s-93.666 -29 -144.999 -29c-52 0 -100.667 9.66699 -146 29s-85.166 46.166 -119.499 80.499s-61.166 74.166 -80.499 119.499s-29 94 -29 146zM200 367c0 -32.667 5.83105 -63.167 17.498 -91.5
s28 -53.333 49 -75s45.333 -38.5 73 -50.5s57.834 -18 90.501 -18c31.333 0 60.5 6 87.5 18s50.5 28.833 70.5 50.5s35.667 46.667 47 75s17 58.833 17 91.5c0 33.333 -5.83301 64.333 -17.5 93s-27.667 53.834 -48 75.501s-44.166 38.5 -71.499 50.5s-57 18 -89 18
s-61.667 -6 -89 -18s-51.333 -28.833 -72 -50.5s-36.667 -46.834 -48 -75.501s-17 -59.667 -17 -93zM293.998 877h255v-97h-255v97z" />
    <glyph glyph-name="omacron" unicode="&#x14d;" horiz-adv-x="571" 
d="M38 224c0 44.667 10.5 84.6699 31.5 120.003s50.5 63.166 88.5 83.499s81.667 30.5 131 30.5c50 0 93.333 -10.167 130 -30.5s64.834 -48.166 84.501 -83.499s29.5 -75.333 29.5 -120s-9.83301 -84.834 -29.5 -120.501s-47.834 -63.834 -84.501 -84.501
s-80.667 -31 -132 -31c-48 0 -90.833 9.33301 -128.5 28s-67.167 45.667 -88.5 81s-32 77.666 -32 126.999zM179 223.003c0 -22.667 4.66699 -43.167 14 -61.5s22 -32.833 38 -43.5s34 -16 54 -16c22 0 41 5.33301 57 16s28.333 25.167 37 43.5s13 38.833 13 61.5
c0 23.333 -4.33301 44 -13 62s-21 32.333 -37 43s-35 16 -57 16c-20 0 -38 -5.33301 -54 -16s-28.667 -25 -38 -43s-14 -38.667 -14 -62zM159 586.003h255v-97h-255v97z" />
    <glyph glyph-name="Obreve" unicode="&#x14e;" horiz-adv-x="852" 
d="M50 367c0 50.667 9.66699 98.667 29 144s46.166 85.5 80.499 120.5s74.166 62.5 119.499 82.5s94 30 146 30c51.333 0 99.666 -10 144.999 -30s85.5 -47.5 120.5 -82.5s62.333 -75.167 82 -120.5s29.5 -93.333 29.5 -144c0 -52 -9.83301 -100.667 -29.5 -146
s-47 -85.166 -82 -119.499s-75.167 -61.166 -120.5 -80.499s-93.666 -29 -144.999 -29c-52 0 -100.667 9.66699 -146 29s-85.166 46.166 -119.499 80.499s-61.166 74.166 -80.499 119.499s-29 94 -29 146zM200 367c0 -32.667 5.83105 -63.167 17.498 -91.5
s28 -53.333 49 -75s45.333 -38.5 73 -50.5s57.834 -18 90.501 -18c31.333 0 60.5 6 87.5 18s50.5 28.833 70.5 50.5s35.667 46.667 47 75s17 58.833 17 91.5c0 33.333 -5.83301 64.333 -17.5 93s-27.667 53.834 -48 75.501s-44.166 38.5 -71.499 50.5s-57 18 -89 18
s-61.667 -6 -89 -18s-51.333 -28.833 -72 -50.5s-36.667 -46.834 -48 -75.501s-17 -59.667 -17 -93zM425.998 774c-31.333 0 -58.1699 6.83203 -80.5029 20.499s-40.666 34.334 -54.999 62.001s-25.166 62.5 -32.499 104.5h93c4 -18.667 8.83301 -35.167 14.5 -49.5
s13.334 -25.333 23.001 -33s22.167 -11.5 37.5 -11.5c16 0 28.667 3.83301 38 11.5s16.666 18.667 21.999 33s10 30.833 14 49.5h93c-7.33301 -43.333 -18.166 -78.833 -32.499 -106.5s-32.5 -48 -54.5 -61s-48.667 -19.5 -80 -19.5z" />
    <glyph glyph-name="obreve" unicode="&#x14f;" horiz-adv-x="571" 
d="M38 224c0 44.667 10.5 84.6699 31.5 120.003s50.5 63.166 88.5 83.499s81.667 30.5 131 30.5c50 0 93.333 -10.167 130 -30.5s64.834 -48.166 84.501 -83.499s29.5 -75.333 29.5 -120s-9.83301 -84.834 -29.5 -120.501s-47.834 -63.834 -84.501 -84.501
s-80.667 -31 -132 -31c-48 0 -90.833 9.33301 -128.5 28s-67.167 45.667 -88.5 81s-32 77.666 -32 126.999zM179 223.003c0 -22.667 4.66699 -43.167 14 -61.5s22 -32.833 38 -43.5s34 -16 54 -16c22 0 41 5.33301 57 16s28.333 25.167 37 43.5s13 38.833 13 61.5
c0 23.333 -4.33301 44 -13 62s-21 32.333 -37 43s-35 16 -57 16c-20 0 -38 -5.33301 -54 -16s-28.667 -25 -38 -43s-14 -38.667 -14 -62zM290 490.003c-31.333 0 -58.1699 6.83203 -80.5029 20.499s-40.666 34.334 -54.999 62.001s-25.166 62.5 -32.499 104.5h93
c4 -18.667 8.83301 -35.167 14.5 -49.5s13.334 -25.333 23.001 -33s22.167 -11.5 37.5 -11.5c16 0 28.667 3.83301 38 11.5s16.666 18.667 21.999 33s10 30.833 14 49.5h93c-7.33301 -43.333 -18.166 -78.833 -32.499 -106.5s-32.5 -48 -54.5 -61s-48.667 -19.5 -80 -19.5z
" />
    <glyph glyph-name="Ohungarumlaut" unicode="&#x150;" horiz-adv-x="852" 
d="M50 367c0 50.667 9.66699 98.667 29 144s46.166 85.5 80.499 120.5s74.166 62.5 119.499 82.5s94 30 146 30c51.333 0 99.666 -10 144.999 -30s85.5 -47.5 120.5 -82.5s62.333 -75.167 82 -120.5s29.5 -93.333 29.5 -144c0 -52 -9.83301 -100.667 -29.5 -146
s-47 -85.166 -82 -119.499s-75.167 -61.166 -120.5 -80.499s-93.666 -29 -144.999 -29c-52 0 -100.667 9.66699 -146 29s-85.166 46.166 -119.499 80.499s-61.166 74.166 -80.499 119.499s-29 94 -29 146zM200 367c0 -32.667 5.83105 -63.167 17.498 -91.5
s28 -53.333 49 -75s45.333 -38.5 73 -50.5s57.834 -18 90.501 -18c31.333 0 60.5 6 87.5 18s50.5 28.833 70.5 50.5s35.667 46.667 47 75s17 58.833 17 91.5c0 33.333 -5.83301 64.333 -17.5 93s-27.667 53.834 -48 75.501s-44.166 38.5 -71.499 50.5s-57 18 -89 18
s-61.667 -6 -89 -18s-51.333 -28.833 -72 -50.5s-36.667 -46.834 -48 -75.501s-17 -59.667 -17 -93zM478.998 915l-148 -135h-85l78 135h155zM662.998 913l-148 -135h-85l78 135h155z" />
    <glyph glyph-name="ohungarumlaut" unicode="&#x151;" horiz-adv-x="571" 
d="M38 224c0 44.667 10.5 84.6699 31.5 120.003s50.5 63.166 88.5 83.499s81.667 30.5 131 30.5c50 0 93.333 -10.167 130 -30.5s64.834 -48.166 84.501 -83.499s29.5 -75.333 29.5 -120s-9.83301 -84.834 -29.5 -120.501s-47.834 -63.834 -84.501 -84.501
s-80.667 -31 -132 -31c-48 0 -90.833 9.33301 -128.5 28s-67.167 45.667 -88.5 81s-32 77.666 -32 126.999zM179 223.003c0 -22.667 4.66699 -43.167 14 -61.5s22 -32.833 38 -43.5s34 -16 54 -16c22 0 41 5.33301 57 16s28.333 25.167 37 43.5s13 38.833 13 61.5
c0 23.333 -4.33301 44 -13 62s-21 32.333 -37 43s-35 16 -57 16c-20 0 -38 -5.33301 -54 -16s-28.667 -25 -38 -43s-14 -38.667 -14 -62zM359 644.003l-148 -135h-85l78 135h155zM543 642.003l-148 -135h-85l78 135h155z" />
    <glyph glyph-name="OE" unicode="&#x152;" horiz-adv-x="1021" 
d="M484 594c-8 2 -16 3.50098 -24 4.50098s-16.333 1.5 -25 1.5c-31.333 0 -60.666 -6 -87.999 -18s-51.333 -28.667 -72 -50s-36.834 -46.166 -48.501 -74.499s-17.5 -58.5 -17.5 -90.5s5.83301 -62.167 17.5 -90.5s28.167 -53.333 49.5 -75s45.833 -38.5 73.5 -50.5
s57.5 -18 89.5 -18c17.333 0 34 2 50 6l37 -135c-14.667 -4 -29.667 -7 -45 -9s-31 -3 -47 -3c-52 0 -100.667 9.66699 -146 29s-85.166 46.166 -119.499 80.499s-61.166 74.166 -80.499 119.499s-29 94 -29 146c0 50.667 9.66699 98.667 29 144s46.166 85.5 80.499 120.5
s74.166 62.5 119.499 82.5s94 30 146 30c16.667 0 33 -1.16699 49 -3.5s31.333 -5.5 46 -9.5zM477 736.001h472v-135h-322v-164h281v-138h-281v-160h336v-139h-486v736z" />
    <glyph glyph-name="oe" unicode="&#x153;" horiz-adv-x="855" 
d="M443 39c-19.333 -15.333 -43.501 -27.666 -72.501 -36.999s-57.5 -14 -85.5 -14c-50 0 -93.5 9.16699 -130.5 27.5s-65.667 44.666 -86 78.999s-30.5 75.833 -30.5 124.5s11 90.167 33 124.5s50.833 60.5 86.5 78.5s73.167 27 112.5 27s73.5 -5.33301 102.5 -16
s53.833 -24.667 74.5 -42l-68 -90c-9.33301 7.33301 -22.166 14.833 -38.499 22.5s-35.5 11.5 -57.5 11.5c-19.333 0 -37 -5 -53 -15s-28.667 -23.667 -38 -41s-14 -37.333 -14 -60c0 -21.333 5 -41 15 -59s23.833 -32.167 41.5 -42.5s38.5 -15.5 62.5 -15.5
c15.333 0 29.5 2.16699 42.5 6.5s24.167 10.5 33.5 18.5zM588.999 -12c-53.333 0 -98.4971 9.99902 -135.497 29.999s-65.167 47.667 -84.5 83s-29 76 -29 122c0 44 11.333 83.667 34 119s53 63.5 91 84.5s80.333 31.5 127 31.5c62.667 0 114.167 -18.167 154.5 -54.5
s66.5 -88.833 78.5 -157.5l-340 -108l-31 76l246 83l-29 -13c-5.33301 17.333 -14.833 32.5 -28.5 45.5s-34.167 19.5 -61.5 19.5c-20.667 0 -38.834 -4.83301 -54.501 -14.5s-27.667 -23.334 -36 -41.001s-12.5 -38.5 -12.5 -62.5c0 -27.333 5 -50.166 15 -68.499
s23.667 -32.166 41 -41.499s36.666 -14 57.999 -14c15.333 0 30.166 2.66699 44.499 8s28.5 12.333 42.5 21l62 -104c-23.333 -13.333 -48.5 -24 -75.5 -32s-52.5 -12 -76.5 -12z" />
    <glyph glyph-name="Racute" unicode="&#x154;" horiz-adv-x="686" 
d="M318 736c46 0 86.998 -5.83203 122.998 -17.499s66.167 -28.334 90.5 -50.001s42.833 -47.667 55.5 -78s19 -64.5 19 -102.5c0 -30 -4.5 -60 -13.5 -90s-23.667 -57.333 -44 -82s-47.166 -44.5 -80.499 -59.5s-74.666 -22.5 -123.999 -22.5h-104v-234h-145v736h223z
M342.998 374.001c22 0 40.332 3.66797 54.999 11.001s26.167 16.666 34.5 27.999s14.333 23.166 18 35.499s5.5 23.833 5.5 34.5c0 8 -1.16699 18.167 -3.5 30.5s-7.16602 24.833 -14.499 37.5s-18.5 23.334 -33.5 32.001s-35.167 13 -60.5 13h-104v-222h103z
M478.997 284.002l182 -284h-169l-186 280zM506.997 919.002l-148 -135h-85l78 135h155z" />
    <glyph glyph-name="racute" unicode="&#x155;" horiz-adv-x="410" 
d="M198 437l13 -120l-3 18c12.667 26 30 48.167 52 66.5s43.833 32.5 65.5 42.5s38.167 15 49.5 15l-7 -140c-32.667 4 -60.667 -1.33301 -84 -16s-41.333 -34 -54 -58s-19 -48.667 -19 -74v-171h-139v437h126zM341 624l-148 -135h-85l78 135h155z" />
    <glyph glyph-name="uni0156" unicode="&#x156;" horiz-adv-x="686" 
d="M318 736c46 0 86.998 -5.83203 122.998 -17.499s66.167 -28.334 90.5 -50.001s42.833 -47.667 55.5 -78s19 -64.5 19 -102.5c0 -30 -4.5 -60 -13.5 -90s-23.667 -57.333 -44 -82s-47.166 -44.5 -80.499 -59.5s-74.666 -22.5 -123.999 -22.5h-104v-234h-145v736h223z
M342.998 374.001c22 0 40.332 3.66797 54.999 11.001s26.167 16.666 34.5 27.999s14.333 23.166 18 35.499s5.5 23.833 5.5 34.5c0 8 -1.16699 18.167 -3.5 30.5s-7.16602 24.833 -14.499 37.5s-18.5 23.334 -33.5 32.001s-35.167 13 -60.5 13h-104v-222h103z
M478.997 284.002l182 -284h-169l-186 280zM335.997 -233.998l-71.999 48.002c14.667 14 25.167 34.5 31.5 61.5s7.16602 52.167 2.49902 75.5l122 -1c4 -18.667 2.83301 -39.834 -3.5 -63.501s-16.333 -46.334 -30 -68.001s-30.5 -39.167 -50.5 -52.5z" />
    <glyph glyph-name="uni0157" unicode="&#x157;" horiz-adv-x="410" 
d="M198 437l13 -120l-3 18c12.667 26 30 48.167 52 66.5s43.833 32.5 65.5 42.5s38.167 15 49.5 15l-7 -140c-32.667 4 -60.667 -1.33301 -84 -16s-41.333 -34 -54 -58s-19 -48.667 -19 -74v-171h-139v437h126zM103 -214l-71.999 48.002c14.667 14 25.167 34.5 31.5 61.5
s7.16602 52.167 2.49902 75.5l122 -1c4 -18.667 2.83301 -39.834 -3.5 -63.501s-16.333 -46.334 -30 -68.001s-30.5 -39.167 -50.5 -52.5z" />
    <glyph glyph-name="Rcaron" unicode="&#x158;" horiz-adv-x="686" 
d="M318 736c46 0 86.998 -5.83203 122.998 -17.499s66.167 -28.334 90.5 -50.001s42.833 -47.667 55.5 -78s19 -64.5 19 -102.5c0 -30 -4.5 -60 -13.5 -90s-23.667 -57.333 -44 -82s-47.166 -44.5 -80.499 -59.5s-74.666 -22.5 -123.999 -22.5h-104v-234h-145v736h223z
M342.998 374.001c22 0 40.332 3.66797 54.999 11.001s26.167 16.666 34.5 27.999s14.333 23.166 18 35.499s5.5 23.833 5.5 34.5c0 8 -1.16699 18.167 -3.5 30.5s-7.16602 24.833 -14.499 37.5s-18.5 23.334 -33.5 32.001s-35.167 13 -60.5 13h-104v-222h103z
M478.997 284.002l182 -284h-169l-186 280zM256.997 957.002l78 -74l-34 -10l79 84h126l-185 -184h-1l-189 184h126z" />
    <glyph glyph-name="rcaron" unicode="&#x159;" horiz-adv-x="410" 
d="M198 437l13 -120l-3 18c12.667 26 30 48.167 52 66.5s43.833 32.5 65.5 42.5s38.167 15 49.5 15l-7 -140c-32.667 4 -60.667 -1.33301 -84 -16s-41.333 -34 -54 -58s-19 -48.667 -19 -74v-171h-139v437h126zM143 673l78 -74l-34 -10l79 84h126l-185 -184h-1l-189 184h126
z" />
    <glyph glyph-name="Sacute" unicode="&#x15a;" horiz-adv-x="583" 
d="M488 558c-28 15.333 -56.5029 28.0039 -85.5029 38.0039s-56.167 15 -81.5 15c-31.333 0 -56 -6.33301 -74 -19s-27 -31.667 -27 -57c0 -17.333 6.83301 -32.833 20.5 -46.5s31.334 -25.834 53.001 -36.501s44.167 -20.334 67.5 -29.001c21.333 -8 42.5 -17.5 63.5 -28.5
s39.833 -24.667 56.5 -41s30 -36.666 40 -60.999s15 -54.166 15 -89.499c0 -37.333 -9.66699 -72 -29 -104s-47.666 -57.833 -84.999 -77.5s-83.333 -29.5 -138 -29.5c-28 0 -56.5 2.83301 -85.5 8.5s-57.5 14.334 -85.5 26.001s-55 26.5 -81 44.5l64 113
c17.333 -12.667 36.166 -23.834 56.499 -33.501s40.833 -17.167 61.5 -22.5s39.667 -8 57 -8s34.833 2.5 52.5 7.5s32.334 13.5 44.001 25.5s17.5 28.667 17.5 50c0 14.667 -4.83301 28 -14.5 40s-22.667 23 -39 33s-34.166 18.667 -53.499 26
c-22.667 8.66699 -46 18.667 -70 30s-46.5 25.166 -67.5 41.499s-38 36.666 -51 60.999s-19.5 54.166 -19.5 89.499c0 42.667 9.5 79.667 28.5 111s45.833 56.166 80.5 74.499s74.667 28.5 120 30.5c59.333 0 107.5 -7 144.5 -21s70.167 -30.667 99.5 -50zM474.997 899.004
l-148 -135h-85l78 135h155z" />
    <glyph glyph-name="sacute" unicode="&#x15b;" horiz-adv-x="447" 
d="M214 -9c-36 0 -69.4951 6.33105 -100.495 18.998s-57.167 30.334 -78.5 53.001l58 77c21.333 -19.333 41.166 -33.166 59.499 -41.499s34.833 -12.5 49.5 -12.5c11.333 0 21.5 1.16699 30.5 3.5s16.167 6 21.5 11s8 11.5 8 19.5c0 11.333 -4.5 20.333 -13.5 27
s-20.5 12.167 -34.5 16.5l-45 13.5c-40 12.667 -68.833 31.167 -86.5 55.5s-26.5 50.833 -26.5 79.5c0 22 5.83301 44.167 17.5 66.5s30.334 41 56.001 56s58.834 22.5 99.501 22.5c36.667 0 67.667 -3.66699 93 -11s49.333 -19.333 72 -36l-53 -82
c-12.667 10 -26.834 18.5 -42.501 25.5s-30.167 10.833 -43.5 11.5c-12 0.666992 -22.167 -0.666016 -30.5 -3.99902s-14.833 -7.66602 -19.5 -12.999s-7 -11 -7 -17c-0.666992 -12.667 4.16602 -22.667 14.499 -30s23.5 -13 39.5 -17s31.667 -8.66699 47 -14
c21.333 -6.66699 39.666 -15.667 54.999 -27s27.166 -24.833 35.499 -40.5s12.5 -34.5 12.5 -56.5c0 -26.667 -6.83301 -51.834 -20.5 -75.501s-34.334 -42.834 -62.001 -57.501s-62.834 -22 -105.501 -22zM372.005 633.998l-148 -135h-85l78 135h155z" />
    <glyph glyph-name="Scircumflex" unicode="&#x15c;" horiz-adv-x="583" 
d="M488 558c-28 15.333 -56.5029 28.0039 -85.5029 38.0039s-56.167 15 -81.5 15c-31.333 0 -56 -6.33301 -74 -19s-27 -31.667 -27 -57c0 -17.333 6.83301 -32.833 20.5 -46.5s31.334 -25.834 53.001 -36.501s44.167 -20.334 67.5 -29.001c21.333 -8 42.5 -17.5 63.5 -28.5
s39.833 -24.667 56.5 -41s30 -36.666 40 -60.999s15 -54.166 15 -89.499c0 -37.333 -9.66699 -72 -29 -104s-47.666 -57.833 -84.999 -77.5s-83.333 -29.5 -138 -29.5c-28 0 -56.5 2.83301 -85.5 8.5s-57.5 14.334 -85.5 26.001s-55 26.5 -81 44.5l64 113
c17.333 -12.667 36.166 -23.834 56.499 -33.501s40.833 -17.167 61.5 -22.5s39.667 -8 57 -8s34.833 2.5 52.5 7.5s32.334 13.5 44.001 25.5s17.5 28.667 17.5 50c0 14.667 -4.83301 28 -14.5 40s-22.667 23 -39 33s-34.166 18.667 -53.499 26
c-22.667 8.66699 -46 18.667 -70 30s-46.5 25.166 -67.5 41.499s-38 36.666 -51 60.999s-19.5 54.166 -19.5 89.499c0 42.667 9.5 79.667 28.5 111s45.833 56.166 80.5 74.499s74.667 28.5 120 30.5c59.333 0 107.5 -7 144.5 -21s70.167 -30.667 99.5 -50zM341.997 776.004
l-78 74l34 10l-79 -84h-126l185 184h1l189 -184h-126z" />
    <glyph glyph-name="scircumflex" unicode="&#x15d;" horiz-adv-x="447" 
d="M214 -9c-36 0 -69.4951 6.33105 -100.495 18.998s-57.167 30.334 -78.5 53.001l58 77c21.333 -19.333 41.166 -33.166 59.499 -41.499s34.833 -12.5 49.5 -12.5c11.333 0 21.5 1.16699 30.5 3.5s16.167 6 21.5 11s8 11.5 8 19.5c0 11.333 -4.5 20.333 -13.5 27
s-20.5 12.167 -34.5 16.5l-45 13.5c-40 12.667 -68.833 31.167 -86.5 55.5s-26.5 50.833 -26.5 79.5c0 22 5.83301 44.167 17.5 66.5s30.334 41 56.001 56s58.834 22.5 99.501 22.5c36.667 0 67.667 -3.66699 93 -11s49.333 -19.333 72 -36l-53 -82
c-12.667 10 -26.834 18.5 -42.501 25.5s-30.167 10.833 -43.5 11.5c-12 0.666992 -22.167 -0.666016 -30.5 -3.99902s-14.833 -7.66602 -19.5 -12.999s-7 -11 -7 -17c-0.666992 -12.667 4.16602 -22.667 14.499 -30s23.5 -13 39.5 -17s31.667 -8.66699 47 -14
c21.333 -6.66699 39.666 -15.667 54.999 -27s27.166 -24.833 35.499 -40.5s12.5 -34.5 12.5 -56.5c0 -26.667 -6.83301 -51.834 -20.5 -75.501s-34.334 -42.834 -62.001 -57.501s-62.834 -22 -105.501 -22zM285.005 498.998l-78 74l34 10l-79 -84h-126l185 184h1l189 -184
h-126z" />
    <glyph glyph-name="Scedilla" unicode="&#x15e;" horiz-adv-x="583" 
d="M488 558c-28 15.333 -56.5029 28.0039 -85.5029 38.0039s-56.167 15 -81.5 15c-31.333 0 -56 -6.33301 -74 -19s-27 -31.667 -27 -57c0 -17.333 6.83301 -32.833 20.5 -46.5s31.334 -25.834 53.001 -36.501s44.167 -20.334 67.5 -29.001c21.333 -8 42.5 -17.5 63.5 -28.5
s39.833 -24.667 56.5 -41s30 -36.666 40 -60.999s15 -54.166 15 -89.499c0 -37.333 -9.66699 -72 -29 -104s-47.666 -57.833 -84.999 -77.5s-83.333 -29.5 -138 -29.5c-28 0 -56.5 2.83301 -85.5 8.5s-57.5 14.334 -85.5 26.001s-55 26.5 -81 44.5l64 113
c17.333 -12.667 36.166 -23.834 56.499 -33.501s40.833 -17.167 61.5 -22.5s39.667 -8 57 -8s34.833 2.5 52.5 7.5s32.334 13.5 44.001 25.5s17.5 28.667 17.5 50c0 14.667 -4.83301 28 -14.5 40s-22.667 23 -39 33s-34.166 18.667 -53.499 26
c-22.667 8.66699 -46 18.667 -70 30s-46.5 25.166 -67.5 41.499s-38 36.666 -51 60.999s-19.5 54.166 -19.5 89.499c0 42.667 9.5 79.667 28.5 111s45.833 56.166 80.5 74.499s74.667 28.5 120 30.5c59.333 0 107.5 -7 144.5 -21s70.167 -30.667 99.5 -50zM206.997 -145.996
c6.66699 -8 15.1689 -14.501 25.502 -19.501s21.833 -7.5 34.5 -7.5c11.333 0 23.166 3 35.499 9s18.5 15 18.5 27c0 7.33301 -3.33301 14.666 -10 21.999s-21 11 -43 11c-10.667 0 -21 -1.16699 -31 -3.5s-19.667 -4.83301 -29 -7.5l-19 66l69 51h107l-77 -86l-26 35
c7.33301 1.33301 14.5 2.33301 21.5 3l20.5 2c37.333 1.33301 68.833 -5.66699 94.5 -21s38.5 -38.666 38.5 -69.999c0 -25.333 -7.5 -46.166 -22.5 -62.499s-34.333 -28.5 -58 -36.5s-48.834 -12 -75.501 -12c-29.333 0 -53.333 4.5 -72 13.5s-33.667 19.5 -45 31.5z" />
    <glyph glyph-name="scedilla" unicode="&#x15f;" horiz-adv-x="447" 
d="M214 -9c-36 0 -69.4951 6.33105 -100.495 18.998s-57.167 30.334 -78.5 53.001l58 77c21.333 -19.333 41.166 -33.166 59.499 -41.499s34.833 -12.5 49.5 -12.5c11.333 0 21.5 1.16699 30.5 3.5s16.167 6 21.5 11s8 11.5 8 19.5c0 11.333 -4.5 20.333 -13.5 27
s-20.5 12.167 -34.5 16.5l-45 13.5c-40 12.667 -68.833 31.167 -86.5 55.5s-26.5 50.833 -26.5 79.5c0 22 5.83301 44.167 17.5 66.5s30.334 41 56.001 56s58.834 22.5 99.501 22.5c36.667 0 67.667 -3.66699 93 -11s49.333 -19.333 72 -36l-53 -82
c-12.667 10 -26.834 18.5 -42.501 25.5s-30.167 10.833 -43.5 11.5c-12 0.666992 -22.167 -0.666016 -30.5 -3.99902s-14.833 -7.66602 -19.5 -12.999s-7 -11 -7 -17c-0.666992 -12.667 4.16602 -22.667 14.499 -30s23.5 -13 39.5 -17s31.667 -8.66699 47 -14
c21.333 -6.66699 39.666 -15.667 54.999 -27s27.166 -24.833 35.499 -40.5s12.5 -34.5 12.5 -56.5c0 -26.667 -6.83301 -51.834 -20.5 -75.501s-34.334 -42.834 -62.001 -57.501s-62.834 -22 -105.501 -22zM138.005 -146.002c6.66699 -8 15.1689 -14.501 25.502 -19.501
s21.833 -7.5 34.5 -7.5c11.333 0 23.166 3 35.499 9s18.5 15 18.5 27c0 7.33301 -3.33301 14.666 -10 21.999s-21 11 -43 11c-10.667 0 -21 -1.16699 -31 -3.5s-19.667 -4.83301 -29 -7.5l-19 66l69 51h107l-77 -86l-26 35c7.33301 1.33301 14.5 2.33301 21.5 3l20.5 2
c37.333 1.33301 68.833 -5.66699 94.5 -21s38.5 -38.666 38.5 -69.999c0 -25.333 -7.5 -46.166 -22.5 -62.499s-34.333 -28.5 -58 -36.5s-48.834 -12 -75.501 -12c-29.333 0 -53.333 4.5 -72 13.5s-33.667 19.5 -45 31.5z" />
    <glyph glyph-name="Scaron" unicode="&#x160;" horiz-adv-x="583" 
d="M488 558c-28 15.333 -56.5029 28.0039 -85.5029 38.0039s-56.167 15 -81.5 15c-31.333 0 -56 -6.33301 -74 -19s-27 -31.667 -27 -57c0 -17.333 6.83301 -32.833 20.5 -46.5s31.334 -25.834 53.001 -36.501s44.167 -20.334 67.5 -29.001c21.333 -8 42.5 -17.5 63.5 -28.5
s39.833 -24.667 56.5 -41s30 -36.666 40 -60.999s15 -54.166 15 -89.499c0 -37.333 -9.66699 -72 -29 -104s-47.666 -57.833 -84.999 -77.5s-83.333 -29.5 -138 -29.5c-28 0 -56.5 2.83301 -85.5 8.5s-57.5 14.334 -85.5 26.001s-55 26.5 -81 44.5l64 113
c17.333 -12.667 36.166 -23.834 56.499 -33.501s40.833 -17.167 61.5 -22.5s39.667 -8 57 -8s34.833 2.5 52.5 7.5s32.334 13.5 44.001 25.5s17.5 28.667 17.5 50c0 14.667 -4.83301 28 -14.5 40s-22.667 23 -39 33s-34.166 18.667 -53.499 26
c-22.667 8.66699 -46 18.667 -70 30s-46.5 25.166 -67.5 41.499s-38 36.666 -51 60.999s-19.5 54.166 -19.5 89.499c0 42.667 9.5 79.667 28.5 111s45.833 56.166 80.5 74.499s74.667 28.5 120 30.5c59.333 0 107.5 -7 144.5 -21s70.167 -30.667 99.5 -50zM224.997 937.004
l78 -74l-34 -10l79 84h126l-185 -184h-1l-189 184h126z" />
    <glyph glyph-name="scaron" unicode="&#x161;" horiz-adv-x="447" 
d="M214 -9c-36 0 -69.4951 6.33105 -100.495 18.998s-57.167 30.334 -78.5 53.001l58 77c21.333 -19.333 41.166 -33.166 59.499 -41.499s34.833 -12.5 49.5 -12.5c11.333 0 21.5 1.16699 30.5 3.5s16.167 6 21.5 11s8 11.5 8 19.5c0 11.333 -4.5 20.333 -13.5 27
s-20.5 12.167 -34.5 16.5l-45 13.5c-40 12.667 -68.833 31.167 -86.5 55.5s-26.5 50.833 -26.5 79.5c0 22 5.83301 44.167 17.5 66.5s30.334 41 56.001 56s58.834 22.5 99.501 22.5c36.667 0 67.667 -3.66699 93 -11s49.333 -19.333 72 -36l-53 -82
c-12.667 10 -26.834 18.5 -42.501 25.5s-30.167 10.833 -43.5 11.5c-12 0.666992 -22.167 -0.666016 -30.5 -3.99902s-14.833 -7.66602 -19.5 -12.999s-7 -11 -7 -17c-0.666992 -12.667 4.16602 -22.667 14.499 -30s23.5 -13 39.5 -17s31.667 -8.66699 47 -14
c21.333 -6.66699 39.666 -15.667 54.999 -27s27.166 -24.833 35.499 -40.5s12.5 -34.5 12.5 -56.5c0 -26.667 -6.83301 -51.834 -20.5 -75.501s-34.334 -42.834 -62.001 -57.501s-62.834 -22 -105.501 -22zM174.005 682.998l78 -74l-34 -10l79 84h126l-185 -184h-1l-189 184
h126z" />
    <glyph glyph-name="uni0162" unicode="&#x162;" horiz-adv-x="586" 
d="M45 736h496v-140h-179v-596h-145v596h-172v140zM211 -136c6.66699 -8 15.1689 -14.501 25.502 -19.501s21.833 -7.5 34.5 -7.5c11.333 0 23.166 3 35.499 9s18.5 15 18.5 27c0 7.33301 -3.33301 14.666 -10 21.999s-21 11 -43 11c-10.667 0 -21 -1.16699 -31 -3.5
s-19.667 -4.83301 -29 -7.5l-19 66l69 51h107l-77 -86l-26 35c7.33301 1.33301 14.5 2.33301 21.5 3l20.5 2c37.333 1.33301 68.833 -5.66699 94.5 -21s38.5 -38.666 38.5 -69.999c0 -25.333 -7.5 -46.166 -22.5 -62.499s-34.333 -28.5 -58 -36.5s-48.834 -12 -75.501 -12
c-29.333 0 -53.333 4.5 -72 13.5s-33.667 19.5 -45 31.5z" />
    <glyph glyph-name="uni0163" unicode="&#x163;" horiz-adv-x="394" 
d="M113 629h140v-190h106v-109h-106v-330h-140v330h-68v109h68v190zM95 -136c6.66699 -8 15.1689 -14.501 25.502 -19.501s21.833 -7.5 34.5 -7.5c11.333 0 23.166 3 35.499 9s18.5 15 18.5 27c0 7.33301 -3.33301 14.666 -10 21.999s-21 11 -43 11
c-10.667 0 -21 -1.16699 -31 -3.5s-19.667 -4.83301 -29 -7.5l-19 66l69 51h107l-77 -86l-26 35c7.33301 1.33301 14.5 2.33301 21.5 3l20.5 2c37.333 1.33301 68.833 -5.66699 94.5 -21s38.5 -38.666 38.5 -69.999c0 -25.333 -7.5 -46.166 -22.5 -62.499
s-34.333 -28.5 -58 -36.5s-48.834 -12 -75.501 -12c-29.333 0 -53.333 4.5 -72 13.5s-33.667 19.5 -45 31.5z" />
    <glyph glyph-name="Tcaron" unicode="&#x164;" horiz-adv-x="586" 
d="M45 736h496v-140h-179v-596h-145v596h-172v140zM229 937l78 -74l-34 -10l79 84h126l-185 -184h-1l-189 184h126z" />
    <glyph glyph-name="tcaron" unicode="&#x165;" horiz-adv-x="394" 
d="M113 629h140v-190h106v-109h-106v-330h-140v330h-68v109h68v190zM355 505l-71.999 48.002c14.667 14 25.167 34.5 31.5 61.5s7.16602 52.167 2.49902 75.5l122 -1c4 -18.667 2.83301 -39.834 -3.5 -63.501s-16.333 -46.334 -30 -68.001s-30.5 -39.167 -50.5 -52.5z" />
    <glyph glyph-name="Tbar" unicode="&#x166;" horiz-adv-x="586" 
d="M45 736h496v-140h-179v-596h-145v596h-172v140zM131 429h315v-130h-315v130z" />
    <glyph glyph-name="tbar" unicode="&#x167;" horiz-adv-x="394" 
d="M113 629h140v-190h106v-109h-106v-330h-140v330h-68v109h68v190zM25 251h315v-130h-315v130z" />
    <glyph glyph-name="Utilde" unicode="&#x168;" horiz-adv-x="756" 
d="M225 272c0 -23.333 6.99902 -45.666 20.999 -66.999s32.5 -38.666 55.5 -51.999s48.167 -20 75.5 -20c30 0 56.667 6.66699 80 20s41.833 30.666 55.5 51.999s20.5 43.666 20.5 66.999v464h143v-467c0 -54 -13.333 -101.833 -40 -143.5s-62.667 -74.334 -108 -98.001
s-95.666 -35.5 -150.999 -35.5v0c-54.667 0 -104.5 11.833 -149.5 35.5s-80.833 56.334 -107.5 98.001s-40 89.5 -40 143.5v467h145v-464zM455.999 823c-22.667 0 -41.667 4.83203 -57 14.499s-29.333 19.5 -42 29.5c-7.33301 6 -14.5 11.333 -21.5 16s-14.5 7 -22.5 7
c-8.66699 0 -15.5 -3.33301 -20.5 -10s-8.16699 -15 -9.5 -25s-1.33301 -20 0 -30h-70c-3.33301 26 -1.16602 50.667 6.50098 74s20 42.333 37 57s38.5 22 64.5 22c16.667 0 31.667 -4.66699 45 -14s25.666 -18.666 36.999 -27.999c9.33301 -8 18 -15 26 -21s16 -9 24 -9
c12.667 0 20.167 7.5 22.5 22.5s3.16602 30.5 2.49902 46.5h70c4.66699 -28.667 3.33398 -54.5 -3.99902 -77.5s-18.833 -41.167 -34.5 -54.5s-33.5 -20 -53.5 -20z" />
    <glyph glyph-name="utilde" unicode="&#x169;" horiz-adv-x="584" 
d="M213 -21c-39.333 0 -72.334 12.167 -99.001 36.5s-40.667 55.833 -42 94.5v327h140v-275c1.33301 -19.333 6.33301 -34.833 15 -46.5s23.334 -17.5 44.001 -17.5s38.5 7 53.5 21s26.667 33.167 35 57.5s12.5 51.833 12.5 82.5v178h140v-437h-127l-11 80l2 -9
c-10 -18 -22.667 -34 -38 -48s-33.5 -24.833 -54.5 -32.5s-44.5 -11.5 -70.5 -11.5zM372.999 486c-22.667 0 -41.667 4.83203 -57 14.499s-29.333 19.5 -42 29.5c-7.33301 6 -14.5 11.333 -21.5 16s-14.5 7 -22.5 7c-8.66699 0 -15.5 -3.33301 -20.5 -10
s-8.16699 -15 -9.5 -25s-1.33301 -20 0 -30h-70c-3.33301 26 -1.16602 50.667 6.50098 74s20 42.333 37 57s38.5 22 64.5 22c16.667 0 31.667 -4.66699 45 -14s25.666 -18.666 36.999 -27.999c9.33301 -8 18 -15 26 -21s16 -9 24 -9c12.667 0 20.167 7.5 22.5 22.5
s3.16602 30.5 2.49902 46.5h70c4.66699 -28.667 3.33398 -54.5 -3.99902 -77.5s-18.833 -41.167 -34.5 -54.5s-33.5 -20 -53.5 -20z" />
    <glyph glyph-name="Umacron" unicode="&#x16a;" horiz-adv-x="756" 
d="M225 272c0 -23.333 6.99902 -45.666 20.999 -66.999s32.5 -38.666 55.5 -51.999s48.167 -20 75.5 -20c30 0 56.667 6.66699 80 20s41.833 30.666 55.5 51.999s20.5 43.666 20.5 66.999v464h143v-467c0 -54 -13.333 -101.833 -40 -143.5s-62.667 -74.334 -108 -98.001
s-95.666 -35.5 -150.999 -35.5v0c-54.667 0 -104.5 11.833 -149.5 35.5s-80.833 56.334 -107.5 98.001s-40 89.5 -40 143.5v467h145v-464zM245.999 887h255v-97h-255v97z" />
    <glyph glyph-name="umacron" unicode="&#x16b;" horiz-adv-x="584" 
d="M213 -21c-39.333 0 -72.334 12.167 -99.001 36.5s-40.667 55.833 -42 94.5v327h140v-275c1.33301 -19.333 6.33301 -34.833 15 -46.5s23.334 -17.5 44.001 -17.5s38.5 7 53.5 21s26.667 33.167 35 57.5s12.5 51.833 12.5 82.5v178h140v-437h-127l-11 80l2 -9
c-10 -18 -22.667 -34 -38 -48s-33.5 -24.833 -54.5 -32.5s-44.5 -11.5 -70.5 -11.5zM166.999 586h255v-97h-255v97z" />
    <glyph glyph-name="Ubreve" unicode="&#x16c;" horiz-adv-x="756" 
d="M225 272c0 -23.333 6.99902 -45.666 20.999 -66.999s32.5 -38.666 55.5 -51.999s48.167 -20 75.5 -20c30 0 56.667 6.66699 80 20s41.833 30.666 55.5 51.999s20.5 43.666 20.5 66.999v464h143v-467c0 -54 -13.333 -101.833 -40 -143.5s-62.667 -74.334 -108 -98.001
s-95.666 -35.5 -150.999 -35.5v0c-54.667 0 -104.5 11.833 -149.5 35.5s-80.833 56.334 -107.5 98.001s-40 89.5 -40 143.5v467h145v-464zM377.999 784c-31.333 0 -58.1699 6.83203 -80.5029 20.499s-40.666 34.334 -54.999 62.001s-25.166 62.5 -32.499 104.5h93
c4 -18.667 8.83301 -35.167 14.5 -49.5s13.334 -25.333 23.001 -33s22.167 -11.5 37.5 -11.5c16 0 28.667 3.83301 38 11.5s16.666 18.667 21.999 33s10 30.833 14 49.5h93c-7.33301 -43.333 -18.166 -78.833 -32.499 -106.5s-32.5 -48 -54.5 -61s-48.667 -19.5 -80 -19.5z
" />
    <glyph glyph-name="ubreve" unicode="&#x16d;" horiz-adv-x="584" 
d="M213 -21c-39.333 0 -72.334 12.167 -99.001 36.5s-40.667 55.833 -42 94.5v327h140v-275c1.33301 -19.333 6.33301 -34.833 15 -46.5s23.334 -17.5 44.001 -17.5s38.5 7 53.5 21s26.667 33.167 35 57.5s12.5 51.833 12.5 82.5v178h140v-437h-127l-11 80l2 -9
c-10 -18 -22.667 -34 -38 -48s-33.5 -24.833 -54.5 -32.5s-44.5 -11.5 -70.5 -11.5zM297.999 490c-31.333 0 -58.1699 6.83203 -80.5029 20.499s-40.666 34.334 -54.999 62.001s-25.166 62.5 -32.499 104.5h93c4 -18.667 8.83301 -35.167 14.5 -49.5
s13.334 -25.333 23.001 -33s22.167 -11.5 37.5 -11.5c16 0 28.667 3.83301 38 11.5s16.666 18.667 21.999 33s10 30.833 14 49.5h93c-7.33301 -43.333 -18.166 -78.833 -32.499 -106.5s-32.5 -48 -54.5 -61s-48.667 -19.5 -80 -19.5z" />
    <glyph glyph-name="Uring" unicode="&#x16e;" horiz-adv-x="756" 
d="M225 272c0 -23.333 6.99902 -45.666 20.999 -66.999s32.5 -38.666 55.5 -51.999s48.167 -20 75.5 -20c30 0 56.667 6.66699 80 20s41.833 30.666 55.5 51.999s20.5 43.666 20.5 66.999v464h143v-467c0 -54 -13.333 -101.833 -40 -143.5s-62.667 -74.334 -108 -98.001
s-95.666 -35.5 -150.999 -35.5v0c-54.667 0 -104.5 11.833 -149.5 35.5s-80.833 56.334 -107.5 98.001s-40 89.5 -40 143.5v467h145v-464zM269.999 880c0 32 10.5 57.333 31.5 76s47.833 28 80.5 28c31.333 0 57.666 -9.33301 78.999 -28s32 -44 32 -76
c0 -31.333 -10.667 -56.666 -32 -75.999s-47.666 -29 -78.999 -29c-32 0 -58.667 9.66699 -80 29s-32 44.666 -32 75.999zM342.999 878c0 -12.667 3.5 -22.667 10.5 -30s16.5 -11 28.5 -11s21.5 3.66699 28.5 11s10.5 17.333 10.5 30c0 14 -3.5 24.5 -10.5 31.5
s-16.5 10.5 -28.5 10.5s-21.5 -3.5 -28.5 -10.5s-10.5 -17.5 -10.5 -31.5z" />
    <glyph glyph-name="uring" unicode="&#x16f;" horiz-adv-x="584" 
d="M213 -21c-39.333 0 -72.334 12.167 -99.001 36.5s-40.667 55.833 -42 94.5v327h140v-275c1.33301 -19.333 6.33301 -34.833 15 -46.5s23.334 -17.5 44.001 -17.5s38.5 7 53.5 21s26.667 33.167 35 57.5s12.5 51.833 12.5 82.5v178h140v-437h-127l-11 80l2 -9
c-10 -18 -22.667 -34 -38 -48s-33.5 -24.833 -54.5 -32.5s-44.5 -11.5 -70.5 -11.5zM167.999 586c0 32 10.5 57.333 31.5 76s47.833 28 80.5 28c31.333 0 57.666 -9.33301 78.999 -28s32 -44 32 -76c0 -31.333 -10.667 -56.666 -32 -75.999s-47.666 -29 -78.999 -29
c-32 0 -58.667 9.66699 -80 29s-32 44.666 -32 75.999zM240.999 584c0 -12.667 3.5 -22.667 10.5 -30s16.5 -11 28.5 -11s21.5 3.66699 28.5 11s10.5 17.333 10.5 30c0 14 -3.5 24.5 -10.5 31.5s-16.5 10.5 -28.5 10.5s-21.5 -3.5 -28.5 -10.5s-10.5 -17.5 -10.5 -31.5z" />
    <glyph glyph-name="Uhungarumlaut" unicode="&#x170;" horiz-adv-x="756" 
d="M225 272c0 -23.333 6.99902 -45.666 20.999 -66.999s32.5 -38.666 55.5 -51.999s48.167 -20 75.5 -20c30 0 56.667 6.66699 80 20s41.833 30.666 55.5 51.999s20.5 43.666 20.5 66.999v464h143v-467c0 -54 -13.333 -101.833 -40 -143.5s-62.667 -74.334 -108 -98.001
s-95.666 -35.5 -150.999 -35.5v0c-54.667 0 -104.5 11.833 -149.5 35.5s-80.833 56.334 -107.5 98.001s-40 89.5 -40 143.5v467h145v-464zM430.999 925l-148 -135h-85l78 135h155zM614.999 923l-148 -135h-85l78 135h155z" />
    <glyph glyph-name="uhungarumlaut" unicode="&#x171;" horiz-adv-x="584" 
d="M213 -21c-39.333 0 -72.334 12.167 -99.001 36.5s-40.667 55.833 -42 94.5v327h140v-275c1.33301 -19.333 6.33301 -34.833 15 -46.5s23.334 -17.5 44.001 -17.5s38.5 7 53.5 21s26.667 33.167 35 57.5s12.5 51.833 12.5 82.5v178h140v-437h-127l-11 80l2 -9
c-10 -18 -22.667 -34 -38 -48s-33.5 -24.833 -54.5 -32.5s-44.5 -11.5 -70.5 -11.5zM366.999 644l-148 -135h-85l78 135h155zM550.999 642l-148 -135h-85l78 135h155z" />
    <glyph glyph-name="Uogonek" unicode="&#x172;" horiz-adv-x="756" 
d="M487 -232c-40.667 0 -75.167 11.834 -103.5 35.501s-42.5 54.834 -42.5 93.501c0 22 7.33301 43.667 22 65s35.667 37.333 63 48l41 59l16 -60c-34 -11.333 -69.333 -17 -106 -17c-60 0 -112.333 12 -157 36s-79.167 56.833 -103.5 98.5s-36.5 89.167 -36.5 142.5v467
h145v-464c0 -23.333 7 -45.666 21 -66.999s32.5 -38.666 55.5 -51.999s48.167 -20 75.5 -20c30 0 56.667 6.66699 80 20s41.833 30.666 55.5 51.999s20.5 43.666 20.5 66.999v464h143v-476c0 -40 -7 -74.333 -21 -103s-31.5 -53.334 -52.5 -74.001
s-42.167 -39.667 -63.5 -57c-22 -18.667 -41.333 -37 -58 -55s-25 -39 -25 -63c0 -16.667 4.5 -27.834 13.5 -33.501s19.167 -8.5 30.5 -8.5c13.333 0 26 4 38 12s23.333 20.333 34 37l50 -72c-14.667 -22 -35 -40 -61 -54s-50.667 -21 -74 -21z" />
    <glyph glyph-name="uogonek" unicode="&#x173;" horiz-adv-x="590" 
d="M449 -232c-40.667 0 -75.167 11.833 -103.5 35.5s-42.5 54.834 -42.5 93.501c0 22 7.33301 43.667 22 65s35.667 37.333 63 48l78 13l49 -23c-28.667 -12.667 -52 -25.667 -70 -39s-27 -31 -27 -53c0 -16.667 4.5 -27.834 13.5 -33.501s19.167 -8.5 30.5 -8.5
c13.333 0 26 4 38 12s23.333 20.333 34 37l50 -72c-14.667 -22 -35 -40 -61 -54s-50.667 -21 -74 -21zM213 -21c-39.333 0 -72.334 12.167 -99.001 36.5s-40.667 55.833 -42 94.5v327h140v-275c1.33301 -19.333 6.33301 -34.833 15 -46.5s23.334 -17.5 44.001 -17.5
s38.5 7 53.5 21s26.667 33.167 35 57.5s12.5 51.833 12.5 82.5v178h140v-437h-127l-11 80l2 -9c-10 -18 -22.667 -34 -38 -48s-33.5 -24.833 -54.5 -32.5s-44.5 -11.5 -70.5 -11.5z" />
    <glyph glyph-name="Wcircumflex" unicode="&#x174;" horiz-adv-x="1023" 
d="M32 731h170l157 -462l-23 10l137 341l67 -199l-212 -455zM401 731h144l181 -447l-26 4l135 443h156l-284 -763zM565 786l-78 74l34 10l-79 -84h-126l185 184h1l189 -184h-126z" />
    <glyph glyph-name="wcircumflex" unicode="&#x175;" horiz-adv-x="684" 
d="M384 437l96 -225l-26 -2l84 227h136l-197 -463l-140 290l-128 -290l-199 463h136l106 -243l-48 7l84 186l-23 50h119zM402 489l-78 74l34 10l-79 -84h-126l185 184h1l189 -184h-126z" />
    <glyph glyph-name="Ycircumflex" unicode="&#x176;" horiz-adv-x="722" 
d="M286 229l-271 507h179l190 -382l-43 -3l187 385h179l-276 -507v-229h-145v229zM434 796l-78 74l34 10l-79 -84h-126l185 184h1l189 -184h-126z" />
    <glyph glyph-name="ycircumflex" unicode="&#x177;" horiz-adv-x="534" 
d="M107 -210l291 647h126l-282 -647h-135zM224 -2l-214 439h157l165 -369zM337 489l-78 74l34 10l-79 -84h-126l185 184h1l189 -184h-126z" />
    <glyph glyph-name="Ydieresis" unicode="&#x178;" horiz-adv-x="722" 
d="M286 229l-271 507h179l190 -382l-43 -3l187 385h179l-276 -507v-229h-145v229zM203 854c0 21.333 7.5 38.833 22.5 52.5s31.5 20.5 49.5 20.5c16.667 0 32.5 -6.83301 47.5 -20.5s22.5 -31.167 22.5 -52.5s-7.5 -38.666 -22.5 -51.999s-30.833 -20 -47.5 -20
c-18 0 -34.5 6.66699 -49.5 20s-22.5 30.666 -22.5 51.999v0zM403 854c0 21.333 7.5 38.833 22.5 52.5s31.5 20.5 49.5 20.5c16.667 0 32.5 -6.83301 47.5 -20.5s22.5 -31.167 22.5 -52.5s-7.5 -38.666 -22.5 -51.999s-30.833 -20 -47.5 -20c-18 0 -34.5 6.66699 -49.5 20
s-22.5 30.666 -22.5 51.999v0z" />
    <glyph glyph-name="Zacute" unicode="&#x179;" horiz-adv-x="722" 
d="M45 0l17 27l45.5 72l64 102l73 117l73 117l64 102l45.5 72l17 27l16 -40h-265c-14 0 -28.5 3.16699 -43.5 9.5s-27.667 15 -38 26s-15.5 23.167 -15.5 36.5v105h133v-14c0 -14.667 2.33301 -22.167 7 -22.5s13 -0.5 25 -0.5h409l-388 -612l-8 16h395v-140h-626zM547 899
l-148 -135h-85l78 135h155z" />
    <glyph glyph-name="zacute" unicode="&#x17a;" horiz-adv-x="522" 
d="M140 323c-24 0 -45 8.66797 -63 26.001s-27 40.666 -27 69.999v60h105v-14c0 -14 2.5 -22.167 7.5 -24.5s13.833 -3.5 26.5 -3.5h277l-242 -352l-26 29h265v-114h-443l249 363l21 -40h-150zM408 624.001l-148 -135h-85l78 135h155z" />
    <glyph glyph-name="Zdotaccent" unicode="&#x17b;" horiz-adv-x="722" 
d="M45 0l17 27l45.5 72l64 102l73 117l73 117l64 102l45.5 72l17 27l16 -40h-265c-14 0 -28.5 3.16699 -43.5 9.5s-27.667 15 -38 26s-15.5 23.167 -15.5 36.5v105h133v-14c0 -14.667 2.33301 -22.167 7 -22.5s13 -0.5 25 -0.5h409l-388 -612l-8 16h395v-140h-626zM285 831
c0 20.667 8.16699 37.667 24.5 51s33.833 20 52.5 20s35.834 -6.66699 51.501 -20s23.5 -30.333 23.5 -51s-7.83301 -37.5 -23.5 -50.5s-32.834 -19.5 -51.501 -19.5s-36.167 6.5 -52.5 19.5s-24.5 29.833 -24.5 50.5z" />
    <glyph glyph-name="zdotaccent" unicode="&#x17c;" horiz-adv-x="522" 
d="M140 323c-24 0 -45 8.66797 -63 26.001s-27 40.666 -27 69.999v60h105v-14c0 -14 2.5 -22.167 7.5 -24.5s13.833 -3.5 26.5 -3.5h277l-242 -352l-26 29h265v-114h-443l249 363l21 -40h-150zM186 592.001c0 20.667 8.16699 37.667 24.5 51s33.833 20 52.5 20
s35.834 -6.66699 51.501 -20s23.5 -30.333 23.5 -51s-7.83301 -37.5 -23.5 -50.5s-32.834 -19.5 -51.501 -19.5s-36.167 6.5 -52.5 19.5s-24.5 29.833 -24.5 50.5z" />
    <glyph glyph-name="Zcaron" unicode="&#x17d;" horiz-adv-x="722" 
d="M45 0l17 27l45.5 72l64 102l73 117l73 117l64 102l45.5 72l17 27l16 -40h-265c-14 0 -28.5 3.16699 -43.5 9.5s-27.667 15 -38 26s-15.5 23.167 -15.5 36.5v105h133v-14c0 -14.667 2.33301 -22.167 7 -22.5s13 -0.5 25 -0.5h409l-388 -612l-8 16h395v-140h-626zM297 937
l78 -74l-34 -10l79 84h126l-185 -184h-1l-189 184h126z" />
    <glyph glyph-name="zcaron" unicode="&#x17e;" horiz-adv-x="522" 
d="M140 323c-24 0 -45 8.66797 -63 26.001s-27 40.666 -27 69.999v60h105v-14c0 -14 2.5 -22.167 7.5 -24.5s13.833 -3.5 26.5 -3.5h277l-242 -352l-26 29h265v-114h-443l249 363l21 -40h-150zM210 673.001l78 -74l-34 -10l79 84h126l-185 -184h-1l-189 184h126z" />
    <glyph glyph-name="uni018F" unicode="&#x18f;" horiz-adv-x="785" 
d="M376 743c56 0 106.165 -8.99512 150.498 -26.9951s82 -43.167 113 -75.5s54.667 -70.166 71 -113.499s24.5 -90.666 24.5 -141.999c0 -55.333 -9.5 -106.333 -28.5 -153s-45.333 -87.334 -79 -122.001s-72.167 -61.667 -115.5 -81s-89.666 -29 -138.999 -29
c-59.333 0 -112 13.167 -158 39.5s-83.833 64.166 -113.5 113.499s-50.167 109 -61.5 179l568 184l31 -106l-474 -159l45 43c11.333 -46.667 31.166 -85.834 59.499 -117.501s66.5 -47.5 114.5 -47.5c26 0 50.833 6.16699 74.5 18.5s44.667 29.666 63 51.999
s32.833 48.666 43.5 78.999s16 63.166 16 98.499c0 34.667 -6 65.834 -18 93.501s-28.167 51.167 -48.5 70.5s-42.666 34.166 -66.999 44.499s-49.166 15.5 -74.499 15.5c-22 0 -45.167 -3.66699 -69.5 -11s-46.833 -17.333 -67.5 -30s-37.334 -27 -50.001 -43l-72 118
c18.667 19.333 43.5 37.166 74.5 53.499s63.333 29.5 97 39.5s63.834 15 90.501 15z" />
    <glyph glyph-name="florin" unicode="&#x192;" horiz-adv-x="366" 
d="M97 515c0 62 12 112.833 36 152.5s57.5 69.5 100.5 89.5s92.833 30.667 149.5 32v-139c-36 -2.66699 -64.167 -9.66699 -84.5 -21s-34.666 -27 -42.999 -47s-12.5 -44 -12.5 -72v-71h132v-134h-132v-195c0 -62 -10 -112.833 -30 -152.5s-51 -69.334 -93 -89.001
s-96.333 -30.5 -163 -32.5v138c36 2.66699 64.167 9.83398 84.5 21.501s34.666 27.5 42.999 47.5s12.5 44 12.5 72v190h-74v134h74v76z" />
    <glyph glyph-name="uni019D" unicode="&#x19d;" horiz-adv-x="828" 
d="M729 -30l-558 504l43 -24l3 -450h-147v765h6l546 -502l-32 14l-3 459h146v-732zM217 30v-30c0 -48 -9.83301 -89.667 -29.5 -125s-50.5 -64 -92.5 -86l-88 87c20 14.667 35.5 32.667 46.5 54s16.5 47.333 16.5 78v155z" />
    <glyph glyph-name="Ohorn" unicode="&#x1a0;" horiz-adv-x="852" 
d="M50 367c0 50.667 9.66699 98.667 29 144s46.166 85.5 80.499 120.5s74.166 62.5 119.499 82.5s94 30 146 30c51.333 0 99.666 -10 144.999 -30s85.5 -47.5 120.5 -82.5s62.333 -75.167 82 -120.5s29.5 -93.333 29.5 -144c0 -52 -9.83301 -100.667 -29.5 -146
s-47 -85.166 -82 -119.499s-75.167 -61.166 -120.5 -80.499s-93.666 -29 -144.999 -29c-52 0 -100.667 9.66699 -146 29s-85.166 46.166 -119.499 80.499s-61.166 74.166 -80.499 119.499s-29 94 -29 146zM200 367c0 -32.667 5.83105 -63.167 17.498 -91.5
s28 -53.333 49 -75s45.333 -38.5 73 -50.5s57.834 -18 90.501 -18c31.333 0 60.5 6 87.5 18s50.5 28.833 70.5 50.5s35.667 46.667 47 75s17 58.833 17 91.5c0 33.333 -5.83301 64.333 -17.5 93s-27.667 53.834 -48 75.501s-44.166 38.5 -71.499 50.5s-57 18 -89 18
s-61.667 -6 -89 -18s-51.333 -28.833 -72 -50.5s-36.667 -46.834 -48 -75.501s-17 -59.667 -17 -93zM496.998 737c23.333 0 39.167 5.16699 47.5 15.5s15.5 29.833 21.5 58.5h103c-7.33301 -43.333 -18.5 -76.333 -33.5 -99s-34 -38 -57 -46s-50.167 -12 -81.5 -12v83z" />
    <glyph glyph-name="ohorn" unicode="&#x1a1;" horiz-adv-x="571" 
d="M38 224c0 44.667 10.5 84.6699 31.5 120.003s50.5 63.166 88.5 83.499s81.667 30.5 131 30.5c50 0 93.333 -10.167 130 -30.5s64.834 -48.166 84.501 -83.499s29.5 -75.333 29.5 -120s-9.83301 -84.834 -29.5 -120.501s-47.834 -63.834 -84.501 -84.501
s-80.667 -31 -132 -31c-48 0 -90.833 9.33301 -128.5 28s-67.167 45.667 -88.5 81s-32 77.666 -32 126.999zM179 223.003c0 -22.667 4.66699 -43.167 14 -61.5s22 -32.833 38 -43.5s34 -16 54 -16c22 0 41 5.33301 57 16s28.333 25.167 37 43.5s13 38.833 13 61.5
c0 23.333 -4.33301 44 -13 62s-21 32.333 -37 43s-35 16 -57 16c-20 0 -38 -5.33301 -54 -16s-28.667 -25 -38 -43s-14 -38.667 -14 -62zM376 437.003c23.333 0 41.834 7.16699 55.501 21.5s23.5 35.833 29.5 64.5h103c-7.33301 -43.333 -19.833 -77.333 -37.5 -102
s-39.334 -42 -65.001 -52s-54.167 -15 -85.5 -15v83z" />
    <glyph glyph-name="Uhorn" unicode="&#x1af;" horiz-adv-x="791" 
d="M225 272c0 -23.333 6.99902 -45.666 20.999 -66.999s32.5 -38.666 55.5 -51.999s48.167 -20 75.5 -20c30 0 56.667 6.66699 80 20s41.833 30.666 55.5 51.999s20.5 43.666 20.5 66.999v464h143v-467c0 -54 -13.333 -101.833 -40 -143.5s-62.667 -74.334 -108 -98.001
s-95.666 -35.5 -150.999 -35.5v0c-54.667 0 -104.5 11.833 -149.5 35.5s-80.833 56.334 -107.5 98.001s-40 89.5 -40 143.5v467h145v-464zM653.999 666c23.333 0 39.167 5.16699 47.5 15.5s15.5 29.833 21.5 58.5h103c-7.33301 -43.333 -18.5 -76.333 -33.5 -99
s-34 -38 -57 -46s-50.167 -12 -81.5 -12v83z" />
    <glyph glyph-name="uhorn" unicode="&#x1b0;" horiz-adv-x="584" 
d="M213 -21c-39.333 0 -72.334 12.167 -99.001 36.5s-40.667 55.833 -42 94.5v327h140v-275c1.33301 -19.333 6.33301 -34.833 15 -46.5s23.334 -17.5 44.001 -17.5s38.5 7 53.5 21s26.667 33.167 35 57.5s12.5 51.833 12.5 82.5v178h140v-437h-127l-11 80l2 -9
c-10 -18 -22.667 -34 -38 -48s-33.5 -24.833 -54.5 -32.5s-44.5 -11.5 -70.5 -11.5zM432.999 437c23.333 0 41.834 7.16699 55.501 21.5s23.5 35.833 29.5 64.5h103c-7.33301 -43.333 -19.833 -77.333 -37.5 -102s-39.334 -42 -65.001 -52s-54.167 -15 -85.5 -15v83z" />
    <glyph glyph-name="uni01C4" unicode="&#x1c4;" horiz-adv-x="1398" 
d="M95 0l-0.000976562 736.001h220c74 0 137 -11 189 -33s93.833 -51.333 125.5 -88s54.834 -77.667 69.501 -123s22 -91 22 -137c0 -54.667 -9.83301 -103.834 -29.5 -147.501s-46.5 -81 -80.5 -112s-73.333 -54.667 -118 -71s-92 -24.5 -142 -24.5h-256zM239.999 140.001
l85.999 -0.000976562c36.667 0 70 4.83301 100 14.5s55.833 23.834 77.5 42.501s38.334 42.167 50.001 70.5s17.5 60.833 17.5 97.5c0 48 -7.83301 87.167 -23.5 117.5s-35 53.833 -58 70.5s-46.5 28.167 -70.5 34.5s-44.333 9.5 -61 9.5h-118v-457zM720.998 0l17 27
l45.5 72l64 102l73 117l73 117l64 102l45.5 72l17 27l16 -40h-265c-14 0 -28.5 3.16699 -43.5 9.5s-27.667 15 -38 26s-15.5 23.167 -15.5 36.5v105h133v-14c0 -14.667 2.33301 -22.167 7 -22.5s13 -0.5 25 -0.5h409l-388 -612l-8 16h395v-140h-626zM972.998 937l78 -74
l-34 -10l79 84h126l-185 -184h-1l-189 184h126z" />
    <glyph glyph-name="uni01C5" unicode="&#x1c5;" horiz-adv-x="1293" 
d="M95 0l-0.000976562 736.001h220c74 0 137 -11 189 -33s93.833 -51.333 125.5 -88s54.834 -77.667 69.501 -123s22 -91 22 -137c0 -54.667 -9.83301 -103.834 -29.5 -147.501s-46.5 -81 -80.5 -112s-73.333 -54.667 -118 -71s-92 -24.5 -142 -24.5h-256zM239.999 140.001
l85.999 -0.000976562c36.667 0 70 4.83301 100 14.5s55.833 23.834 77.5 42.501s38.334 42.167 50.001 70.5s17.5 60.833 17.5 97.5c0 48 -7.83301 87.167 -23.5 117.5s-35 53.833 -58 70.5s-46.5 28.167 -70.5 34.5s-44.333 9.5 -61 9.5h-118v-457zM910.998 323
c-24 0 -45 8.66797 -63 26.001s-27 40.666 -27 69.999v60h105v-14c0 -14 2.5 -22.167 7.5 -24.5s13.833 -3.5 26.5 -3.5h277l-242 -352l-26 29h265v-114h-443l249 363l21 -40h-150zM980.998 673.001l78 -74l-34 -10l79 84h126l-185 -184h-1l-189 184h126z" />
    <glyph glyph-name="uni01C6" unicode="&#x1c6;" horiz-adv-x="1146" 
d="M250 -12c-40.667 0 -77 9.5 -109 28.5s-57.167 46.5 -75.5 82.5s-27.5 78.667 -27.5 128s10 91.333 30 126s47.333 61 82 79s74 27 118 27c28 0 54.833 -4.33301 80.5 -13s47.167 -22 64.5 -40v-44v427h139v-789h-140v85l11 -30c-22.667 -18.667 -48 -34.5 -76 -47.5
s-60.333 -19.5 -97 -19.5zM296 106c18.667 0 35.168 2.5 49.501 7.5s27 12.333 38 22s20.5 21.834 28.5 36.501v107c-5.33301 14.667 -13.5 27.167 -24.5 37.5s-24.333 18.333 -40 24s-32.834 8.5 -51.501 8.5c-20.667 0 -39.834 -5.16699 -57.501 -15.5
s-31.834 -24.5 -42.501 -42.5s-16 -38.667 -16 -62s5.33301 -44.333 16 -63s24.834 -33.334 42.501 -44.001s36.834 -16 57.501 -16zM764.001 323c-24 0 -45 8.66797 -63 26.001s-27 40.666 -27 69.999v60h105v-14c0 -14 2.5 -22.167 7.5 -24.5s13.833 -3.5 26.5 -3.5h277
l-242 -352l-26 29h265v-114h-443l249 363l21 -40h-150zM834.001 673.001l78 -74l-34 -10l79 84h126l-185 -184h-1l-189 184h126z" />
    <glyph glyph-name="uni01C7" unicode="&#x1c7;" horiz-adv-x="1041" 
d="M95 736h145v-596h346v-140h-491v736zM946 155c0 -64 -12.667 -118.668 -38 -164.001s-60.5 -80.166 -105.5 -104.499s-97.167 -37.5 -156.5 -39.5v0v141c45.333 2.66699 82.333 16.667 111 42s43 68 43 128v578h146v-581z" />
    <glyph glyph-name="uni01C8" unicode="&#x1c8;" horiz-adv-x="936" 
d="M95 736h145v-596h346v-140h-491v736zM742 -211l-81 87c20 14.667 35.5 32.667 46.5 54s16.5 47.333 16.5 78v429h140v-437c0 -52 -9.33301 -95.167 -28 -129.5s-50 -61.5 -94 -81.5zM719 592c0 20.667 8.16699 37.667 24.5 51s33.833 20 52.5 20
s35.834 -6.66699 51.501 -20s23.5 -30.333 23.5 -51s-7.83301 -37.5 -23.5 -50.5s-32.834 -19.5 -51.501 -19.5s-36.167 6.5 -52.5 19.5s-24.5 29.833 -24.5 50.5z" />
    <glyph glyph-name="uni01C9" unicode="&#x1c9;" horiz-adv-x="579" 
d="M72 789h140v-789h-140v789zM385 -211l-81 87c20 14.667 35.5 32.667 46.5 54s16.5 47.333 16.5 78v429h140v-437c0 -52 -9.33301 -95.167 -28 -129.5s-50 -61.5 -94 -81.5zM362 592c0 20.667 8.16699 37.667 24.5 51s33.833 20 52.5 20s35.834 -6.66699 51.501 -20
s23.5 -30.333 23.5 -51s-7.83301 -37.5 -23.5 -50.5s-32.834 -19.5 -51.501 -19.5s-36.167 6.5 -52.5 19.5s-24.5 29.833 -24.5 50.5z" />
    <glyph glyph-name="uni01CA" unicode="&#x1ca;" horiz-adv-x="1253" 
d="M754 -30l-558 504l43 -24l3 -450h-147v765h6l546 -502l-32 14l-3 459h146v-766h-4zM1158 155c0 -64 -12.667 -118.668 -38 -164.001s-60.5 -80.166 -105.5 -104.499s-97.167 -37.5 -156.5 -39.5v0v141c45.333 2.66699 82.333 16.667 111 42s43 68 43 128v578h146v-581z
" />
    <glyph glyph-name="uni01CB" unicode="&#x1cb;" horiz-adv-x="1148" 
d="M754 -30l-558 504l43 -24l3 -450h-147v765h6l546 -502l-32 14l-3 459h146v-766h-4zM954 -211l-81 87c20 14.667 35.5 32.667 46.5 54s16.5 47.333 16.5 78v429h140v-437c0 -52 -9.33301 -95.167 -28 -129.5s-50 -61.5 -94 -81.5zM931 592
c0 20.667 8.16699 37.667 24.5 51s33.833 20 52.5 20s35.834 -6.66699 51.501 -20s23.5 -30.333 23.5 -51s-7.83301 -37.5 -23.5 -50.5s-32.834 -19.5 -51.501 -19.5s-36.167 6.5 -52.5 19.5s-24.5 29.833 -24.5 50.5z" />
    <glyph glyph-name="uni01CC" unicode="&#x1cc;" horiz-adv-x="874" 
d="M199 437l11.001 -78l-2 7c15.333 27.333 37 49.5 65 66.5s62.333 25.5 103 25.5c41.333 0 75.833 -12.167 103.5 -36.5s41.834 -55.833 42.501 -94.5v-327h-140v275c-0.666992 19.333 -5.83398 34.833 -15.501 46.5s-25.834 17.5 -48.501 17.5c-21.333 0 -40 -7 -56 -21
s-28.333 -33 -37 -57s-13 -51.667 -13 -83v-178h-140v437h127zM669.001 -211l-81 87c20 14.667 35.5 32.667 46.5 54s16.5 47.333 16.5 78v429h140v-437c0 -52 -9.33301 -95.167 -28 -129.5s-50 -61.5 -94 -81.5zM646.001 592c0 20.667 8.16699 37.667 24.5 51
s33.833 20 52.5 20s35.834 -6.66699 51.501 -20s23.5 -30.333 23.5 -51s-7.83301 -37.5 -23.5 -50.5s-32.834 -19.5 -51.501 -19.5s-36.167 6.5 -52.5 19.5s-24.5 29.833 -24.5 50.5z" />
    <glyph glyph-name="uni01D3" unicode="&#x1d3;" horiz-adv-x="756" 
d="M225 272c0 -23.333 6.99902 -45.666 20.999 -66.999s32.5 -38.666 55.5 -51.999s48.167 -20 75.5 -20c30 0 56.667 6.66699 80 20s41.833 30.666 55.5 51.999s20.5 43.666 20.5 66.999v464h143v-467c0 -54 -13.333 -101.833 -40 -143.5s-62.667 -74.334 -108 -98.001
s-95.666 -35.5 -150.999 -35.5v0c-54.667 0 -104.5 11.833 -149.5 35.5s-80.833 56.334 -107.5 98.001s-40 89.5 -40 143.5v467h145v-464zM313.999 957l78 -74l-34 -10l79 84h126l-185 -184h-1l-189 184h126z" />
    <glyph glyph-name="Gcaron" unicode="&#x1e6;" horiz-adv-x="762" 
d="M692 74c-8.66699 -9.33301 -22.333 -18.834 -41 -28.501s-40.167 -18.5 -64.5 -26.5s-49.166 -14.5 -74.499 -19.5s-49.333 -7.5 -72 -7.5c-60 0 -114 8.83301 -162 26.5s-89 42.334 -123 74.001s-60 69.167 -78 112.5s-27 90.666 -27 141.999
c0 67.333 10.167 125.833 30.5 175.5s48 91 83 124s75.333 57.5 121 73.5s93.5 24 143.5 24c47.333 0 90.666 -5.16699 129.999 -15.5s72.666 -23.166 99.999 -38.499l-47 -135c-12 6.66699 -28 13.334 -48 20.001s-40.333 12.167 -61 16.5s-39 6.5 -55 6.5
c-40 0 -75.333 -5 -106 -15s-56.5 -25 -77.5 -45s-36.833 -44.833 -47.5 -74.5s-16 -64.167 -16 -103.5c0 -34.667 6 -65.834 18 -93.501s28.833 -51.167 50.5 -70.5s47.334 -34 77.001 -44s62.5 -15 98.5 -15c20.667 0 39.667 1.5 57 4.5s32 7.83301 44 14.5v89h-127v140
h274v-311zM347.001 936.999l78 -74l-34 -10l79 84h126l-185 -184h-1l-189 184h126z" />
    <glyph glyph-name="gcaron" unicode="&#x1e7;" horiz-adv-x="633" 
d="M298 -220c-39.333 0 -72.4971 4.66602 -99.4971 13.999s-49.833 20.666 -68.5 33.999s-35.334 26 -50.001 38l82 96c15.333 -14 33.166 -27.5 53.499 -40.5s47.166 -19.5 80.499 -19.5c22 0 42.5 3.83301 61.5 11.5s34.333 18.834 46 33.501s17.5 33 17.5 55v96l5 -25
c-10.667 -22.667 -30 -42.5 -58 -59.5s-64.667 -25.5 -110 -25.5c-39.333 0 -75.833 10.167 -109.5 30.5s-60.5 48 -80.5 83s-30 74.833 -30 119.5c0 46 10.667 86.833 32 122.5s49 63.834 83 84.501s70 31 108 31s70.833 -5.5 98.5 -16.5s48.5 -24.5 62.5 -40.5l-5 -13
l15 48h129v-437c0 -42.667 -12 -80.5 -36 -113.5s-55.833 -59 -95.5 -78s-83.5 -28.5 -131.5 -28.5zM179.003 224.999c0 -23.333 5.33301 -44.333 16 -63s25.167 -33.334 43.5 -44.001s38.833 -16 61.5 -16c19.333 0 36.5 2.5 51.5 7.5s28.333 12.333 40 22
s21.5 21.834 29.5 36.501v107c-6 14.667 -15 27.167 -27 37.5s-25.833 18.333 -41.5 24s-33.167 8.5 -52.5 8.5c-22.667 0 -43.167 -5.16699 -61.5 -15.5s-32.833 -24.5 -43.5 -42.5s-16 -38.667 -16 -62zM265.003 692.999l78 -74l-34 -10l79 84h126l-185 -184h-1l-189 184
h126z" />
    <glyph glyph-name="uni01EA" unicode="&#x1ea;" horiz-adv-x="852" 
d="M425 -8c-52 0 -100.665 9.66992 -145.998 29.0029s-85.166 46.166 -119.499 80.499s-61.166 74.166 -80.499 119.499s-29 94 -29 146c0 50.667 9.66699 98.667 29 144s46.166 85.5 80.499 120.5s74.166 62.5 119.499 82.5s94 30 146 30c51.333 0 99.666 -10 144.999 -30
s85.5 -47.5 120.5 -82.5s62.333 -75.167 82 -120.5s29.5 -93.333 29.5 -144s-6.66699 -94.834 -20 -132.501s-30.5 -70.334 -51.5 -98.001s-43.5 -51.834 -67.5 -72.501c-18.667 -16.667 -37 -31.667 -55 -45l-49 -37.5c-14.667 -11.667 -26.334 -23.167 -35.001 -34.5
s-13 -23.666 -13 -36.999c0 -18 4.5 -29.833 13.5 -35.5s19.167 -8.5 30.5 -8.5c13.333 0 26 4 38 12s23.333 20.333 34 37l50 -72c-14.667 -22 -35 -40 -61 -54s-50.667 -21 -74 -21c-40.667 0 -75.167 10.167 -103.5 30.5s-42.5 49.833 -42.5 88.5
c0 14.667 3.33301 29.334 10 44.001s16.334 28 29.001 40s28 21.667 46 29l132 47c-28.667 -17.333 -58.334 -30.833 -89.001 -40.5s-63.667 -14.5 -99 -14.5zM430.002 133.003c31.333 0 60.498 6.00098 87.498 18.001s50.5 28.667 70.5 50s35.667 46.166 47 74.499
s17 58.833 17 91.5c0 32 -5.83301 62.167 -17.5 90.5s-27.667 53.166 -48 74.499s-44.166 38 -71.499 50s-57 18 -89 18s-61.667 -6 -89 -18s-51.333 -28.667 -72 -50s-36.667 -46.166 -48 -74.499s-17 -58.5 -17 -90.5s5.83301 -62.167 17.5 -90.5s28 -53.333 49 -75
s45.333 -38.5 73 -50.5s57.834 -18 90.501 -18z" />
    <glyph glyph-name="uni01EB" unicode="&#x1eb;" horiz-adv-x="579" 
d="M349 -232c-24 0 -46.334 4.66797 -67.001 14.001s-37.334 23.5 -50.001 42.5s-19 43.167 -19 72.5c0 22 7.33301 43.667 22 65s35.667 37.333 63 48l34 -8c-2.66699 -2 -9 -4.83301 -19 -8.5s-17.333 -5.5 -22 -5.5c-48 0 -90.833 9.33301 -128.5 28
s-67.167 45.667 -88.5 81s-32 77.666 -32 126.999c0 44.667 10.5 84.5 31.5 119.5s50.5 62.833 88.5 83.5s81.667 31 131 31c50 0 93.333 -10.167 130 -30.5s64.834 -48.166 84.501 -83.499s29.5 -75.333 29.5 -120c0 -48 -12 -90.833 -36 -128.5s-55.667 -69.167 -95 -94.5
c-23.333 -14.667 -42.166 -28.334 -56.499 -41.001s-21.5 -30 -21.5 -52c0 -14 4.5 -24.5 13.5 -31.5s19.167 -10.5 30.5 -10.5c13.333 0 26 4 38 12s23.333 20.333 34 37l50 -72c-14.667 -22 -35.5 -40 -62.5 -54s-54.5 -21 -82.5 -21zM288.999 102.001
c22 0 41 5.33301 57 16s28.333 25.167 37 43.5s13 38.833 13 61.5c0 23.333 -4.33301 44 -13 62s-21 32.333 -37 43s-35 16 -57 16c-20 0 -38 -5.33301 -54 -16s-28.667 -25 -38 -43s-14 -38.667 -14 -62c0 -22.667 4.66699 -43.167 14 -61.5s22 -32.833 38 -43.5
s34 -16 54 -16z" />
    <glyph glyph-name="uni01F3" unicode="&#x1f3;" horiz-adv-x="1146" 
d="M250 -12c-40.667 0 -77 9.5 -109 28.5s-57.167 46.5 -75.5 82.5s-27.5 78.667 -27.5 128s10 91.333 30 126s47.333 61 82 79s74 27 118 27c28 0 54.833 -4.33301 80.5 -13s47.167 -22 64.5 -40v-44v427h139v-789h-140v85l11 -30c-22.667 -18.667 -48 -34.5 -76 -47.5
s-60.333 -19.5 -97 -19.5zM296 106c18.667 0 35.168 2.5 49.501 7.5s27 12.333 38 22s20.5 21.834 28.5 36.501v107c-5.33301 14.667 -13.5 27.167 -24.5 37.5s-24.333 18.333 -40 24s-32.834 8.5 -51.501 8.5c-20.667 0 -39.834 -5.16699 -57.501 -15.5
s-31.834 -24.5 -42.501 -42.5s-16 -38.667 -16 -62s5.33301 -44.333 16 -63s24.834 -33.334 42.501 -44.001s36.834 -16 57.501 -16zM764.001 323c-24 0 -45 8.66797 -63 26.001s-27 40.666 -27 69.999v60h105v-14c0 -14 2.5 -22.167 7.5 -24.5s13.833 -3.5 26.5 -3.5h277
l-242 -352l-26 29h265v-114h-443l249 363l21 -40h-150z" />
    <glyph glyph-name="Aringacute" unicode="&#x1fa;" horiz-adv-x="696" 
d="M12 0l332 765h8l332 -765h-168l-212 538l105 72l-254 -610h-143zM239 266h221l51 -122h-317zM240 900c0 32 10.5 57.333 31.5 76s47.833 28 80.5 28c31.333 0 57.666 -9.33301 78.999 -28s32 -44 32 -76c0 -31.333 -10.667 -56.666 -32 -75.999s-47.666 -29 -78.999 -29
c-32 0 -58.667 9.66699 -80 29s-32 44.666 -32 75.999zM313 898c0 -12.667 3.5 -22.667 10.5 -30s16.5 -11 28.5 -11s21.5 3.66699 28.5 11s10.5 17.333 10.5 30c0 14 -3.5 24.5 -10.5 31.5s-16.5 10.5 -28.5 10.5s-21.5 -3.5 -28.5 -10.5s-10.5 -17.5 -10.5 -31.5z
M534 1177l-148 -135h-85l78 135h155z" />
    <glyph glyph-name="aringacute" unicode="&#x1fb;" horiz-adv-x="614" 
d="M256 -12c-40.667 0 -77.5 8.16602 -110.5 24.499s-59.167 41.5 -78.5 75.5s-29 77.333 -29 130c0 49.333 10 92 30 128s46.333 63.833 79 83.5s67.334 29.5 104.001 29.5c43.333 0 76.166 -7.16699 98.499 -21.5s40.833 -30.166 55.5 -47.499l-6 -17l13 64h130v-437h-140
v95l11 -30c-1.33301 0 -5.33301 -3.83301 -12 -11.5s-16.5 -16.667 -29.5 -27s-29 -19.333 -48 -27s-41.5 -11.5 -67.5 -11.5zM296 101.999c16.667 0 31.666 2.5 44.999 7.5s25 12.333 35 22s18.667 21.834 26 36.501v107c-5.33301 14.667 -13.333 27.167 -24 37.5
s-23.334 18.333 -38.001 24s-31 8.5 -49 8.5c-20 0 -38.5 -5.16699 -55.5 -15.5s-30.5 -24.5 -40.5 -42.5s-15 -38.667 -15 -62s5.33301 -44.333 16 -63s24.834 -33.334 42.501 -44.001s36.834 -16 57.501 -16zM200.999 585.999c0 32 10.5 57.333 31.5 76s47.833 28 80.5 28
c31.333 0 57.666 -9.33301 78.999 -28s32 -44 32 -76c0 -31.333 -10.667 -56.666 -32 -75.999s-47.666 -29 -78.999 -29c-32 0 -58.667 9.66699 -80 29s-32 44.666 -32 75.999zM273.999 583.999c0 -12.667 3.5 -22.667 10.5 -30s16.5 -11 28.5 -11s21.5 3.66699 28.5 11
s10.5 17.333 10.5 30c0 14 -3.5 24.5 -10.5 31.5s-16.5 10.5 -28.5 10.5s-21.5 -3.5 -28.5 -10.5s-10.5 -17.5 -10.5 -31.5zM473.999 876.999l-148 -135h-85l78 135h155z" />
    <glyph glyph-name="AEacute" unicode="&#x1fc;" horiz-adv-x="967" 
d="M486 736h412v-140h-267v-159h226v-140h-226v-157h281v-140h-426v736zM501 565c-1.33301 -7.33301 -3.5 -16 -6.5 -26l-4.5 -15l-317 -524h-168l481 736zM272 276h231v-115h-276zM859 919l-148 -135h-85l78 135h155z" />
    </font>
</defs>
</svg>
